<svg xmlns="http://www.w3.org/2000/svg" width="750" height="750" viewBox="0 0 750 750">
  <defs>
    <linearGradient id="bootstrap-sketch-a" x1="50%" x2="50%" y1="0%" y2="100%">
      <stop offset="0%" stop-color="#5C24AE"/>
      <stop offset="100%" stop-color="#30135A"/>
    </linearGradient>
    <linearGradient id="bootstrap-sketch-b" x1="50%" x2="50%" y1="-17.303%" y2="100%">
      <stop offset="0%" stop-color="#7331D4"/>
      <stop offset="100%" stop-color="#461B84"/>
    </linearGradient>
    <linearGradient id="bootstrap-sketch-c" x1="50%" x2="50%" y1="0%" y2="100%">
      <stop offset="0%" stop-color="#905BDD"/>
      <stop offset="100%" stop-color="#5521A0"/>
    </linearGradient>
  </defs>
  <g fill="none" fill-rule="evenodd">
    <g fill-rule="nonzero" transform="translate(143 160.777)">
      <g transform="translate(0 116.223)">
        <path fill="#000" d="M186.129198,11.9449481 L17.7607769,125.279759 C-5.38988101,140.863132 -5.38988101,166.36353 17.7607769,181.946903 L186.129198,295.281714 C209.279856,310.865087 247.162751,310.865087 270.313408,295.281714 L438.68183,181.946903 C461.832487,166.36353 461.832487,140.863132 438.68183,125.279759 L270.313408,11.9449481 C247.162751,-3.63842479 209.279856,-3.63842479 186.129198,11.9449481 Z"/>
        <path fill="url(#bootstrap-sketch-a)" d="M186.129198,11.9449481 L17.7607769,125.279759 C-5.38988101,140.863132 -5.38988101,166.36353 17.7607769,181.946903 L186.129198,295.281714 C209.279856,310.865087 247.162751,310.865087 270.313408,295.281714 L438.68183,181.946903 C461.832487,166.36353 461.832487,140.863132 438.68183,125.279759 L270.313408,11.9449481 C247.162751,-3.63842479 209.279856,-3.63842479 186.129198,11.9449481 Z"/>
      </g>
      <g transform="translate(0 58.223)">
        <path fill="#000" d="M186.129198,11.9449481 L17.7607769,125.279759 C-5.38988101,140.863132 -5.38988101,166.36353 17.7607769,181.946903 L186.129198,295.281714 C209.279856,310.865087 247.162751,310.865087 270.313408,295.281714 L438.68183,181.946903 C461.832487,166.36353 461.832487,140.863132 438.68183,125.279759 L270.313408,11.9449481 C247.162751,-3.63842479 209.279856,-3.63842479 186.129198,11.9449481 Z"/>
        <path fill="url(#bootstrap-sketch-b)" d="M186.129198,11.9449481 L17.7607769,125.279759 C-5.38988101,140.863132 -5.38988101,166.36353 17.7607769,181.946903 L186.129198,295.281714 C209.279856,310.865087 247.162751,310.865087 270.313408,295.281714 L438.68183,181.946903 C461.832487,166.36353 461.832487,140.863132 438.68183,125.279759 L270.313408,11.9449481 C247.162751,-3.63842479 209.279856,-3.63842479 186.129198,11.9449481 Z"/>
      </g>
      <g transform="translate(0 .223)">
        <path fill="#000" d="M186.129198,11.9449481 L17.7607769,125.279759 C-5.38988101,140.863132 -5.38988101,166.36353 17.7607769,181.946903 L186.129198,295.281714 C209.279856,310.865087 247.162751,310.865087 270.313408,295.281714 L438.68183,181.946903 C461.832487,166.36353 461.832487,140.863132 438.68183,125.279759 L270.313408,11.9449481 C247.162751,-3.63842479 209.279856,-3.63842479 186.129198,11.9449481 Z"/>
        <path fill="url(#bootstrap-sketch-c)" d="M186.129198,11.9449481 L17.7607769,125.279759 C-5.38988101,140.863132 -5.38988101,166.36353 17.7607769,181.946903 L186.129198,295.281714 C209.279856,310.865087 247.162751,310.865087 270.313408,295.281714 L438.68183,181.946903 C461.832487,166.36353 461.832487,140.863132 438.68183,125.279759 L270.313408,11.9449481 C247.162751,-3.63842479 209.279856,-3.63842479 186.129198,11.9449481 Z"/>
      </g>
      <path fill="#FFF" d="M252.851196,222.223455 L122,134.073268 L173.235676,99.5574274 C195.631872,84.4693602 223.847522,83.0545919 243.433604,96.249312 C257.052248,105.423553 259.755688,120.684076 249.417775,130.700678 L250.144096,131.190265 C270.184063,120.74226 294.124409,121.478737 311.531529,133.205746 C334.563582,148.721546 331.752945,169.069784 303.91745,187.821886 L252.851196,222.223455 L252.851196,222.223455 Z M194.724101,161.073905 L220.839226,143.481294 C240.152872,130.470038 242.963509,118.190016 228.799994,108.648847 C215.832895,99.9133472 199.78377,101.072839 183.907727,111.767733 L152.720908,132.777489 L194.724101,161.073905 L194.724101,161.073905 Z M287.034285,179.767823 C306.711353,166.511774 309.067581,154.170947 293.938253,143.978743 C278.809448,133.78654 260.386839,135.794159 239.533748,149.842248 L208.792447,170.551648 L254.766612,201.522443 L287.034285,179.767823 L287.034285,179.767823 Z"/>
    </g>
    <g fill-rule="nonzero" transform="translate(401.8 375)">
      <polygon fill="#FDB300" points="48.636 6.651 111.2 0 173.764 6.651 222.2 72.03 111.2 202 .2 72.03"/>
      <g transform="translate(.2 74)">
        <polygon fill="#EA6C00" points="44.859 0 110.748 129.37 0 0"/>
        <polygon fill="#EA6C00" points="155.607 0 221.497 129.37 110.748 0" transform="matrix(-1 0 0 1 332.245 0)"/>
        <polygon fill="#FDAD00" points="44.859 0 176.638 0 110.748 129.37"/>
      </g>
      <g transform="translate(.2)">
        <polygon fill="#FDD231" points="110.748 0 48.326 6.71 44.859 72.671"/>
        <polygon fill="#FDD231" points="176.638 0 114.216 6.71 110.748 72.671" transform="matrix(-1 0 0 1 287.386 0)"/>
        <polygon fill="#FDAD00" points="173.17 72.671 221.497 6.71 218.029 72.671" transform="matrix(-1 0 0 1 394.667 0)"/>
        <polygon fill="#FDAD00" points="0 72.671 48.326 6.71 44.859 72.671"/>
        <polygon fill="#FEEEB7" points="110.748 0 44.859 72.671 176.638 72.671"/>
      </g>
    </g>
  </g>
</svg>
