<svg width="772" height="86" viewBox="0 0 772 86" fill="none" xmlns="http://www.w3.org/2000/svg">
<rect width="772" height="86" fill="white"/>
<rect width="16" height="9" rx="2" fill="#007BFF" fill-opacity="0.5"/>
<rect y="11" width="16" height="9" rx="2" fill="#007BFF" fill-opacity="0.5"/>
<rect y="22" width="16" height="9" rx="2" fill="#007BFF" fill-opacity="0.5"/>
<rect y="33" width="16" height="9" rx="2" fill="#007BFF" fill-opacity="0.5"/>
<rect y="44" width="16" height="9" rx="2" fill="#007BFF" fill-opacity="0.5"/>
<rect y="55" width="16" height="9" rx="2" fill="#007BFF" fill-opacity="0.5"/>
<rect y="66" width="16" height="9" rx="2" fill="#007BFF" fill-opacity="0.5"/>
<rect y="77" width="16" height="9" rx="2" fill="#007BFF" fill-opacity="0.5"/>
<rect x="36" width="16" height="9" rx="2" fill="#007BFF" fill-opacity="0.5"/>
<rect x="36" y="11" width="16" height="9" rx="2" fill="#007BFF" fill-opacity="0.5"/>
<rect x="36" y="22" width="16" height="9" rx="2" fill="#007BFF" fill-opacity="0.5"/>
<rect x="36" y="33" width="16" height="9" rx="2" fill="#007BFF" fill-opacity="0.5"/>
<rect x="54" width="16" height="9" rx="2" fill="#007BFF" fill-opacity="0.5"/>
<rect x="54" y="11" width="16" height="9" rx="2" fill="#007BFF" fill-opacity="0.5"/>
<rect x="54" y="22" width="16" height="9" rx="2" fill="#007BFF" fill-opacity="0.5"/>
<rect x="54" y="33" width="16" height="9" rx="2" fill="#007BFF" fill-opacity="0.5"/>
<rect x="90" width="16" height="9" rx="2" fill="#007BFF" fill-opacity="0.5"/>
<rect x="90" y="11" width="16" height="9" rx="2" fill="#007BFF" fill-opacity="0.5"/>
<rect x="90" y="22" width="16" height="9" rx="2" fill="#007BFF" fill-opacity="0.5"/>
<rect x="126" width="16" height="9" rx="2" fill="#007BFF" fill-opacity="0.5"/>
<rect x="108" width="16" height="9" rx="2" fill="#007BFF" fill-opacity="0.5"/>
<rect x="108" y="11" width="16" height="9" rx="2" fill="#007BFF" fill-opacity="0.5"/>
<rect x="108" y="22" width="16" height="9" rx="2" fill="#007BFF" fill-opacity="0.5"/>
<rect x="126" y="11" width="16" height="9" rx="2" fill="#007BFF" fill-opacity="0.5"/>
<rect x="162" width="16" height="9" rx="2" fill="#007BFF" fill-opacity="0.5"/>
<rect x="162" y="11" width="16" height="9" rx="2" fill="#007BFF" fill-opacity="0.5"/>
<rect x="216" y="11" width="16" height="9" rx="2" fill="#007BFF" fill-opacity="0.5"/>
<rect x="198" width="16" height="9" rx="2" fill="#007BFF" fill-opacity="0.5"/>
<rect x="180" width="16" height="9" rx="2" fill="#007BFF" fill-opacity="0.5"/>
<rect x="180" y="11" width="16" height="9" rx="2" fill="#007BFF" fill-opacity="0.5"/>
<rect x="216" width="16" height="9" rx="2" fill="#007BFF" fill-opacity="0.5"/>
<rect x="198" y="11" width="16" height="9" rx="2" fill="#007BFF" fill-opacity="0.5"/>
<rect x="252" width="16" height="9" rx="2" fill="#007BFF" fill-opacity="0.5"/>
<rect x="252" y="11" width="16" height="9" rx="2" fill="#007BFF" fill-opacity="0.5"/>
<rect x="324" width="16" height="9" rx="2" fill="#007BFF" fill-opacity="0.5"/>
<rect x="288" width="16" height="9" rx="2" fill="#007BFF" fill-opacity="0.5"/>
<rect x="270" width="16" height="9" rx="2" fill="#007BFF" fill-opacity="0.5"/>
<rect x="270" y="11" width="16" height="9" rx="2" fill="#007BFF" fill-opacity="0.5"/>
<rect x="306" width="16" height="9" rx="2" fill="#007BFF" fill-opacity="0.5"/>
<rect x="288" y="11" width="16" height="9" rx="2" fill="#007BFF" fill-opacity="0.5"/>
<rect x="360" width="16" height="9" rx="2" fill="#007BFF" fill-opacity="0.5"/>
<rect x="360" y="11" width="16" height="9" rx="2" fill="#007BFF" fill-opacity="0.5"/>
<rect x="432" width="16" height="9" rx="2" fill="#007BFF" fill-opacity="0.5"/>
<rect x="396" width="16" height="9" rx="2" fill="#007BFF" fill-opacity="0.5"/>
<rect x="378" width="16" height="9" rx="2" fill="#007BFF" fill-opacity="0.5"/>
<rect x="378" y="11" width="16" height="9" rx="2" fill="#007BFF" fill-opacity="0.5"/>
<rect x="414" width="16" height="9" rx="2" fill="#007BFF" fill-opacity="0.5"/>
<rect x="450" width="16" height="9" rx="2" fill="#007BFF" fill-opacity="0.5"/>
<rect x="486" width="16" height="9" rx="2" fill="#007BFF" fill-opacity="0.5"/>
<rect x="486" y="11" width="16" height="9" rx="2" fill="#007BFF" fill-opacity="0.5"/>
<rect x="558" width="16" height="9" rx="2" fill="#007BFF" fill-opacity="0.5"/>
<rect x="522" width="16" height="9" rx="2" fill="#007BFF" fill-opacity="0.5"/>
<rect x="504" width="16" height="9" rx="2" fill="#007BFF" fill-opacity="0.5"/>
<rect x="594" width="16" height="9" rx="2" fill="#007BFF" fill-opacity="0.5"/>
<rect x="540" width="16" height="9" rx="2" fill="#007BFF" fill-opacity="0.5"/>
<rect x="576" width="16" height="9" rx="2" fill="#007BFF" fill-opacity="0.5"/>
<rect x="630" width="16" height="9" rx="2" fill="#007BFF" fill-opacity="0.5"/>
<rect x="756" width="16" height="9" rx="2" fill="#007BFF" fill-opacity="0.5"/>
<rect x="702" width="16" height="9" rx="2" fill="#007BFF" fill-opacity="0.5"/>
<rect x="666" width="16" height="9" rx="2" fill="#007BFF" fill-opacity="0.5"/>
<rect x="648" width="16" height="9" rx="2" fill="#007BFF" fill-opacity="0.5"/>
<rect x="738" width="16" height="9" rx="2" fill="#007BFF" fill-opacity="0.5"/>
<rect x="684" width="16" height="9" rx="2" fill="#007BFF" fill-opacity="0.5"/>
<rect x="720" width="16" height="9" rx="2" fill="#007BFF" fill-opacity="0.5"/>
</svg>
