<svg width="356" height="243" viewBox="0 0 356 243" fill="none" xmlns="http://www.w3.org/2000/svg">
<path d="M0 20H280V228H3.99999C1.79085 228 0 226.209 0 224V20Z" fill="#007BFF" fill-opacity="0.1"/>
<rect x="10" y="30" width="260" height="187" rx="4" fill="white" fill-opacity="0.8"/>
<path d="M152.887 24.6025H155.218V27.37C154.882 27.616 154.524 27.7945 154.143 27.9055C153.765 28.0165 153.369 28.072 152.955 28.072C152.415 28.072 151.923 27.988 151.479 27.82C151.038 27.649 150.66 27.415 150.345 27.118C150.03 26.818 149.787 26.464 149.616 26.056C149.445 25.645 149.359 25.1995 149.359 24.7195C149.359 24.2305 149.44 23.782 149.602 23.374C149.764 22.963 149.995 22.609 150.295 22.312C150.598 22.015 150.963 21.784 151.389 21.619C151.818 21.454 152.296 21.3715 152.824 21.3715C153.097 21.3715 153.354 21.394 153.594 21.439C153.834 21.484 154.054 21.5455 154.255 21.6235C154.459 21.7015 154.645 21.7945 154.813 21.9025C154.981 22.0105 155.131 22.1275 155.263 22.2535L154.822 22.924C154.753 23.029 154.663 23.0935 154.552 23.1175C154.444 23.1415 154.327 23.1145 154.201 23.0365C154.081 22.9645 153.967 22.903 153.859 22.852C153.754 22.798 153.646 22.7545 153.535 22.7215C153.424 22.6885 153.307 22.6645 153.184 22.6495C153.061 22.6345 152.923 22.627 152.77 22.627C152.485 22.627 152.229 22.678 152.001 22.78C151.773 22.879 151.578 23.02 151.416 23.203C151.257 23.386 151.134 23.6065 151.047 23.8645C150.96 24.1195 150.916 24.4045 150.916 24.7195C150.916 25.0675 150.964 25.3765 151.06 25.6465C151.156 25.9165 151.291 26.1445 151.465 26.3305C151.642 26.5165 151.852 26.659 152.095 26.758C152.341 26.854 152.613 26.902 152.91 26.902C153.093 26.902 153.258 26.884 153.405 26.848C153.555 26.812 153.7 26.764 153.841 26.704V25.7095H153.193C153.097 25.7095 153.022 25.684 152.968 25.633C152.914 25.582 152.887 25.5175 152.887 25.4395V24.6025ZM158.374 24.526C158.581 24.526 158.756 24.5005 158.9 24.4495C159.047 24.3955 159.167 24.322 159.26 24.229C159.353 24.136 159.421 24.028 159.463 23.905C159.505 23.779 159.526 23.644 159.526 23.5C159.526 23.212 159.431 22.987 159.242 22.825C159.056 22.663 158.767 22.582 158.374 22.582H157.762V24.526H158.374ZM161.605 28H160.228C159.973 28 159.79 27.904 159.679 27.712L158.59 25.8085C158.539 25.7275 158.482 25.669 158.419 25.633C158.356 25.594 158.266 25.5745 158.149 25.5745H157.762V28H156.241V21.4435H158.374C158.848 21.4435 159.251 21.493 159.584 21.592C159.92 21.688 160.193 21.823 160.403 21.997C160.616 22.171 160.771 22.3765 160.867 22.6135C160.963 22.8505 161.011 23.1085 161.011 23.3875C161.011 23.6005 160.982 23.8015 160.925 23.9905C160.868 24.1795 160.784 24.355 160.673 24.517C160.562 24.676 160.424 24.8185 160.259 24.9445C160.097 25.0705 159.91 25.174 159.697 25.255C159.796 25.306 159.889 25.3705 159.976 25.4485C160.063 25.5235 160.141 25.6135 160.21 25.7185L161.605 28ZM163.686 28H162.156V21.4435H163.686V28ZM170.9 24.7195C170.9 25.1935 170.817 25.6315 170.652 26.0335C170.49 26.4325 170.261 26.779 169.964 27.073C169.667 27.364 169.308 27.592 168.888 27.757C168.471 27.919 168.008 28 167.498 28H164.951V21.4435H167.498C168.008 21.4435 168.471 21.526 168.888 21.691C169.308 21.856 169.667 22.084 169.964 22.375C170.261 22.666 170.49 23.0125 170.652 23.4145C170.817 23.8135 170.9 24.2485 170.9 24.7195ZM169.343 24.7195C169.343 24.3955 169.301 24.103 169.217 23.842C169.133 23.581 169.011 23.3605 168.852 23.1805C168.696 22.9975 168.504 22.858 168.276 22.762C168.048 22.663 167.789 22.6135 167.498 22.6135H166.481V26.83H167.498C167.789 26.83 168.048 26.782 168.276 26.686C168.504 26.587 168.696 26.4475 168.852 26.2675C169.011 26.0845 169.133 25.8625 169.217 25.6015C169.301 25.3405 169.343 25.0465 169.343 24.7195ZM176.194 24.661C176.59 24.661 176.875 24.5665 177.049 24.3775C177.223 24.1885 177.31 23.9245 177.31 23.5855C177.31 23.4355 177.287 23.299 177.242 23.176C177.197 23.053 177.128 22.948 177.035 22.861C176.945 22.771 176.83 22.702 176.689 22.654C176.551 22.606 176.386 22.582 176.194 22.582H175.402V24.661H176.194ZM176.194 21.4435C176.656 21.4435 177.052 21.499 177.382 21.61C177.715 21.718 177.988 21.868 178.201 22.06C178.417 22.252 178.576 22.4785 178.678 22.7395C178.78 23.0005 178.831 23.2825 178.831 23.5855C178.831 23.9125 178.778 24.2125 178.673 24.4855C178.568 24.7585 178.408 24.9925 178.192 25.1875C177.976 25.3825 177.701 25.5355 177.368 25.6465C177.038 25.7545 176.647 25.8085 176.194 25.8085H175.402V28H173.881V21.4435H176.194ZM182.61 25.4935L182.003 23.698C181.958 23.584 181.91 23.4505 181.859 23.2975C181.808 23.1415 181.757 22.9735 181.706 22.7935C181.661 22.9765 181.613 23.146 181.562 23.302C181.511 23.458 181.463 23.593 181.418 23.707L180.815 25.4935H182.61ZM185.027 28H183.848C183.716 28 183.609 27.97 183.528 27.91C183.447 27.847 183.386 27.7675 183.344 27.6715L182.957 26.5285H180.464L180.077 27.6715C180.044 27.7555 179.984 27.832 179.897 27.901C179.813 27.967 179.708 28 179.582 28H178.394L180.932 21.4435H182.489L185.027 28ZM191.493 24.7195C191.493 25.1935 191.41 25.6315 191.245 26.0335C191.083 26.4325 190.854 26.779 190.557 27.073C190.26 27.364 189.901 27.592 189.481 27.757C189.064 27.919 188.601 28 188.091 28H185.544V21.4435H188.091C188.601 21.4435 189.064 21.526 189.481 21.691C189.901 21.856 190.26 22.084 190.557 22.375C190.854 22.666 191.083 23.0125 191.245 23.4145C191.41 23.8135 191.493 24.2485 191.493 24.7195ZM189.936 24.7195C189.936 24.3955 189.894 24.103 189.81 23.842C189.726 23.581 189.604 23.3605 189.445 23.1805C189.289 22.9975 189.097 22.858 188.869 22.762C188.641 22.663 188.382 22.6135 188.091 22.6135H187.074V26.83H188.091C188.382 26.83 188.641 26.782 188.869 26.686C189.097 26.587 189.289 26.4475 189.445 26.2675C189.604 26.0845 189.726 25.8625 189.81 25.6015C189.894 25.3405 189.936 25.0465 189.936 24.7195ZM198.339 24.7195C198.339 25.1935 198.257 25.6315 198.092 26.0335C197.93 26.4325 197.7 26.779 197.403 27.073C197.106 27.364 196.748 27.592 196.328 27.757C195.911 27.919 195.447 28 194.937 28H192.39V21.4435H194.937C195.447 21.4435 195.911 21.526 196.328 21.691C196.748 21.856 197.106 22.084 197.403 22.375C197.7 22.666 197.93 23.0125 198.092 23.4145C198.257 23.8135 198.339 24.2485 198.339 24.7195ZM196.782 24.7195C196.782 24.3955 196.74 24.103 196.656 23.842C196.572 23.581 196.451 23.3605 196.292 23.1805C196.136 22.9975 195.944 22.858 195.716 22.762C195.488 22.663 195.228 22.6135 194.937 22.6135H193.92V26.83H194.937C195.228 26.83 195.488 26.782 195.716 26.686C195.944 26.587 196.136 26.4475 196.292 26.2675C196.451 26.0845 196.572 25.8625 196.656 25.6015C196.74 25.3405 196.782 25.0465 196.782 24.7195ZM200.767 28H199.237V21.4435H200.767V28ZM207.756 21.4435V28H206.964C206.847 28 206.748 27.982 206.667 27.946C206.589 27.907 206.511 27.841 206.433 27.748L203.341 23.8375C203.353 23.9545 203.361 24.0685 203.364 24.1795C203.37 24.2875 203.373 24.3895 203.373 24.4855V28H202.032V21.4435H202.833C202.899 21.4435 202.954 21.4465 202.999 21.4525C203.044 21.4585 203.085 21.4705 203.121 21.4885C203.157 21.5035 203.191 21.526 203.224 21.556C203.257 21.586 203.295 21.6265 203.337 21.6775L206.455 25.615C206.44 25.489 206.43 25.3675 206.424 25.2505C206.418 25.1305 206.415 25.018 206.415 24.913V21.4435H207.756ZM212.178 24.6025H214.509V27.37C214.173 27.616 213.815 27.7945 213.434 27.9055C213.056 28.0165 212.66 28.072 212.246 28.072C211.706 28.072 211.214 27.988 210.77 27.82C210.329 27.649 209.951 27.415 209.636 27.118C209.321 26.818 209.078 26.464 208.907 26.056C208.736 25.645 208.65 25.1995 208.65 24.7195C208.65 24.2305 208.731 23.782 208.893 23.374C209.055 22.963 209.286 22.609 209.586 22.312C209.889 22.015 210.254 21.784 210.68 21.619C211.109 21.454 211.587 21.3715 212.115 21.3715C212.388 21.3715 212.645 21.394 212.885 21.439C213.125 21.484 213.345 21.5455 213.546 21.6235C213.75 21.7015 213.936 21.7945 214.104 21.9025C214.272 22.0105 214.422 22.1275 214.554 22.2535L214.113 22.924C214.044 23.029 213.954 23.0935 213.843 23.1175C213.735 23.1415 213.618 23.1145 213.492 23.0365C213.372 22.9645 213.258 22.903 213.15 22.852C213.045 22.798 212.937 22.7545 212.826 22.7215C212.715 22.6885 212.598 22.6645 212.475 22.6495C212.352 22.6345 212.214 22.627 212.061 22.627C211.776 22.627 211.52 22.678 211.292 22.78C211.064 22.879 210.869 23.02 210.707 23.203C210.548 23.386 210.425 23.6065 210.338 23.8645C210.251 24.1195 210.207 24.4045 210.207 24.7195C210.207 25.0675 210.255 25.3765 210.351 25.6465C210.447 25.9165 210.582 26.1445 210.756 26.3305C210.933 26.5165 211.143 26.659 211.386 26.758C211.632 26.854 211.904 26.902 212.201 26.902C212.384 26.902 212.549 26.884 212.696 26.848C212.846 26.812 212.991 26.764 213.132 26.704V25.7095H212.484C212.388 25.7095 212.313 25.684 212.259 25.633C212.205 25.582 212.178 25.5175 212.178 25.4395V24.6025Z" fill="#007BFF" fill-opacity="0.7"/>
<path d="M113.449 117.602H115.78V120.37C115.444 120.616 115.086 120.794 114.705 120.905C114.327 121.016 113.931 121.072 113.517 121.072C112.977 121.072 112.485 120.988 112.041 120.82C111.6 120.649 111.222 120.415 110.907 120.118C110.592 119.818 110.349 119.464 110.178 119.056C110.007 118.645 109.921 118.199 109.921 117.719C109.921 117.23 110.002 116.782 110.164 116.374C110.326 115.963 110.557 115.609 110.857 115.312C111.16 115.015 111.525 114.784 111.951 114.619C112.38 114.454 112.858 114.371 113.386 114.371C113.659 114.371 113.916 114.394 114.156 114.439C114.396 114.484 114.616 114.545 114.817 114.623C115.021 114.701 115.207 114.794 115.375 114.902C115.543 115.01 115.693 115.127 115.825 115.253L115.384 115.924C115.315 116.029 115.225 116.093 115.114 116.117C115.006 116.141 114.889 116.114 114.763 116.036C114.643 115.964 114.529 115.903 114.421 115.852C114.316 115.798 114.208 115.754 114.097 115.721C113.986 115.688 113.869 115.664 113.746 115.649C113.623 115.634 113.485 115.627 113.332 115.627C113.047 115.627 112.791 115.678 112.563 115.78C112.335 115.879 112.14 116.02 111.978 116.203C111.819 116.386 111.696 116.606 111.609 116.864C111.522 117.119 111.478 117.404 111.478 117.719C111.478 118.067 111.526 118.376 111.622 118.646C111.718 118.916 111.853 119.144 112.027 119.33C112.204 119.516 112.414 119.659 112.657 119.758C112.903 119.854 113.175 119.902 113.472 119.902C113.655 119.902 113.82 119.884 113.967 119.848C114.117 119.812 114.262 119.764 114.403 119.704V118.709H113.755C113.659 118.709 113.584 118.684 113.53 118.633C113.476 118.582 113.449 118.517 113.449 118.439V117.602ZM118.936 117.526C119.143 117.526 119.318 117.5 119.462 117.449C119.609 117.395 119.729 117.322 119.822 117.229C119.915 117.136 119.983 117.028 120.025 116.905C120.067 116.779 120.088 116.644 120.088 116.5C120.088 116.212 119.993 115.987 119.804 115.825C119.618 115.663 119.329 115.582 118.936 115.582H118.324V117.526H118.936ZM122.167 121H120.79C120.535 121 120.352 120.904 120.241 120.712L119.152 118.808C119.101 118.727 119.044 118.669 118.981 118.633C118.918 118.594 118.828 118.574 118.711 118.574H118.324V121H116.803V114.443H118.936C119.41 114.443 119.813 114.493 120.146 114.592C120.482 114.688 120.755 114.823 120.965 114.997C121.178 115.171 121.333 115.376 121.429 115.613C121.525 115.85 121.573 116.108 121.573 116.387C121.573 116.6 121.544 116.801 121.487 116.99C121.43 117.179 121.346 117.355 121.235 117.517C121.124 117.676 120.986 117.818 120.821 117.944C120.659 118.07 120.472 118.174 120.259 118.255C120.358 118.306 120.451 118.37 120.538 118.448C120.625 118.523 120.703 118.613 120.772 118.718L122.167 121ZM124.248 121H122.718V114.443H124.248V121ZM131.462 117.719C131.462 118.193 131.379 118.631 131.214 119.033C131.052 119.432 130.823 119.779 130.526 120.073C130.229 120.364 129.87 120.592 129.45 120.757C129.033 120.919 128.57 121 128.06 121H125.513V114.443H128.06C128.57 114.443 129.033 114.526 129.45 114.691C129.87 114.856 130.229 115.084 130.526 115.375C130.823 115.666 131.052 116.012 131.214 116.414C131.379 116.813 131.462 117.248 131.462 117.719ZM129.905 117.719C129.905 117.395 129.863 117.103 129.779 116.842C129.695 116.581 129.573 116.36 129.414 116.18C129.258 115.997 129.066 115.858 128.838 115.762C128.61 115.663 128.351 115.613 128.06 115.613H127.043V119.83H128.06C128.351 119.83 128.61 119.782 128.838 119.686C129.066 119.587 129.258 119.447 129.414 119.267C129.573 119.084 129.695 118.862 129.779 118.601C129.863 118.34 129.905 118.046 129.905 117.719ZM138.862 119.303C138.898 119.303 138.934 119.311 138.97 119.326C139.006 119.338 139.04 119.36 139.073 119.393L139.676 120.028C139.412 120.373 139.081 120.634 138.682 120.811C138.286 120.985 137.816 121.072 137.273 121.072C136.775 121.072 136.328 120.988 135.932 120.82C135.539 120.649 135.205 120.415 134.929 120.118C134.656 119.818 134.446 119.464 134.299 119.056C134.152 118.645 134.078 118.199 134.078 117.719C134.078 117.23 134.158 116.782 134.317 116.374C134.476 115.963 134.699 115.609 134.987 115.312C135.275 115.015 135.62 114.784 136.022 114.619C136.424 114.454 136.867 114.371 137.35 114.371C137.596 114.371 137.827 114.394 138.043 114.439C138.262 114.481 138.466 114.541 138.655 114.619C138.844 114.694 139.018 114.785 139.177 114.893C139.336 115.001 139.477 115.118 139.6 115.244L139.087 115.933C139.054 115.975 139.015 116.014 138.97 116.05C138.925 116.083 138.862 116.099 138.781 116.099C138.727 116.099 138.676 116.087 138.628 116.063C138.58 116.039 138.529 116.011 138.475 115.978C138.421 115.942 138.361 115.904 138.295 115.865C138.232 115.823 138.155 115.786 138.065 115.753C137.978 115.717 137.875 115.687 137.755 115.663C137.638 115.639 137.5 115.627 137.341 115.627C137.089 115.627 136.858 115.673 136.648 115.766C136.441 115.859 136.261 115.996 136.108 116.176C135.958 116.353 135.841 116.572 135.757 116.833C135.676 117.091 135.635 117.386 135.635 117.719C135.635 118.055 135.68 118.354 135.77 118.615C135.863 118.876 135.988 119.096 136.144 119.276C136.303 119.453 136.487 119.588 136.697 119.681C136.907 119.774 137.132 119.821 137.372 119.821C137.51 119.821 137.636 119.815 137.75 119.803C137.864 119.788 137.971 119.765 138.07 119.735C138.169 119.702 138.262 119.66 138.349 119.609C138.436 119.555 138.524 119.488 138.614 119.407C138.65 119.377 138.689 119.353 138.731 119.335C138.773 119.314 138.817 119.303 138.862 119.303ZM143.805 118.493L143.198 116.698C143.153 116.584 143.105 116.45 143.054 116.297C143.003 116.141 142.952 115.973 142.901 115.793C142.856 115.976 142.808 116.146 142.757 116.302C142.706 116.458 142.658 116.593 142.613 116.707L142.01 118.493H143.805ZM146.222 121H145.043C144.911 121 144.804 120.97 144.723 120.91C144.642 120.847 144.581 120.767 144.539 120.671L144.152 119.528H141.659L141.272 120.671C141.239 120.755 141.179 120.832 141.092 120.901C141.008 120.967 140.903 121 140.777 121H139.589L142.127 114.443H143.684L146.222 121ZM152.463 114.443V121H151.671C151.554 121 151.455 120.982 151.374 120.946C151.296 120.907 151.218 120.841 151.14 120.748L148.048 116.837C148.06 116.954 148.068 117.068 148.071 117.179C148.077 117.287 148.08 117.389 148.08 117.485V121H146.739V114.443H147.54C147.606 114.443 147.661 114.446 147.706 114.452C147.751 114.458 147.792 114.47 147.828 114.488C147.864 114.503 147.898 114.526 147.931 114.556C147.964 114.586 148.002 114.626 148.044 114.677L151.162 118.615C151.147 118.489 151.137 118.367 151.131 118.25C151.125 118.13 151.122 118.018 151.122 117.913V114.443H152.463ZM159.616 114.443L156.988 121H155.611L152.983 114.443H154.207C154.339 114.443 154.446 114.475 154.527 114.538C154.608 114.598 154.669 114.676 154.711 114.772L155.98 118.282C156.04 118.435 156.099 118.603 156.156 118.786C156.213 118.966 156.267 119.155 156.318 119.353C156.36 119.155 156.406 118.966 156.457 118.786C156.511 118.603 156.568 118.435 156.628 118.282L157.888 114.772C157.921 114.688 157.98 114.613 158.064 114.547C158.151 114.478 158.257 114.443 158.383 114.443H159.616ZM163.053 118.493L162.446 116.698C162.401 116.584 162.353 116.45 162.302 116.297C162.251 116.141 162.2 115.973 162.149 115.793C162.104 115.976 162.056 116.146 162.005 116.302C161.954 116.458 161.906 116.593 161.861 116.707L161.258 118.493H163.053ZM165.47 121H164.291C164.159 121 164.052 120.97 163.971 120.91C163.89 120.847 163.829 120.767 163.787 120.671L163.4 119.528H160.907L160.52 120.671C160.487 120.755 160.427 120.832 160.34 120.901C160.256 120.967 160.151 121 160.025 121H158.837L161.375 114.443H162.932L165.47 121ZM169.609 115.775C169.564 115.847 169.516 115.901 169.465 115.938C169.417 115.973 169.354 115.991 169.276 115.991C169.207 115.991 169.132 115.97 169.051 115.928C168.973 115.883 168.883 115.834 168.781 115.78C168.682 115.726 168.568 115.678 168.439 115.636C168.31 115.591 168.163 115.568 167.998 115.568C167.713 115.568 167.5 115.63 167.359 115.753C167.221 115.873 167.152 116.036 167.152 116.243C167.152 116.375 167.194 116.485 167.278 116.572C167.362 116.659 167.472 116.734 167.607 116.797C167.745 116.86 167.901 116.918 168.075 116.972C168.252 117.023 168.432 117.082 168.615 117.148C168.798 117.211 168.976 117.286 169.15 117.373C169.327 117.46 169.483 117.571 169.618 117.706C169.756 117.841 169.867 118.006 169.951 118.201C170.035 118.393 170.077 118.625 170.077 118.898C170.077 119.201 170.025 119.485 169.92 119.749C169.815 120.013 169.662 120.244 169.461 120.442C169.263 120.637 169.017 120.791 168.723 120.905C168.432 121.016 168.1 121.072 167.728 121.072C167.524 121.072 167.316 121.051 167.103 121.009C166.893 120.967 166.689 120.908 166.491 120.833C166.293 120.755 166.107 120.664 165.933 120.559C165.759 120.454 165.607 120.337 165.478 120.208L165.928 119.497C165.964 119.446 166.011 119.404 166.068 119.371C166.128 119.335 166.192 119.317 166.261 119.317C166.351 119.317 166.441 119.345 166.531 119.402C166.624 119.459 166.728 119.522 166.842 119.591C166.959 119.66 167.092 119.723 167.242 119.78C167.392 119.837 167.569 119.866 167.773 119.866C168.049 119.866 168.264 119.806 168.417 119.686C168.57 119.563 168.646 119.369 168.646 119.105C168.646 118.952 168.604 118.828 168.52 118.732C168.436 118.636 168.325 118.556 168.187 118.493C168.052 118.43 167.898 118.375 167.724 118.327C167.55 118.279 167.371 118.226 167.188 118.169C167.005 118.109 166.827 118.037 166.653 117.953C166.479 117.866 166.323 117.754 166.185 117.616C166.05 117.475 165.94 117.301 165.856 117.094C165.772 116.884 165.73 116.626 165.73 116.32C165.73 116.074 165.78 115.834 165.879 115.6C165.978 115.366 166.123 115.157 166.315 114.974C166.507 114.791 166.743 114.646 167.022 114.538C167.301 114.427 167.62 114.371 167.98 114.371C168.181 114.371 168.376 114.388 168.565 114.421C168.757 114.451 168.939 114.497 169.11 114.56C169.281 114.62 169.44 114.694 169.587 114.781C169.737 114.865 169.87 114.961 169.987 115.069L169.609 115.775Z" fill="#007BFF" fill-opacity="0.7"/>
<path d="M4.6025 111.113V108.782H7.37C7.616 109.118 7.7945 109.476 7.9055 109.857C8.0165 110.235 8.072 110.631 8.072 111.045C8.072 111.585 7.988 112.077 7.82 112.521C7.649 112.962 7.415 113.34 7.118 113.655C6.818 113.97 6.464 114.213 6.056 114.384C5.645 114.555 5.1995 114.641 4.7195 114.641C4.2305 114.641 3.782 114.56 3.374 114.398C2.963 114.236 2.609 114.005 2.312 113.705C2.015 113.402 1.784 113.037 1.619 112.611C1.454 112.182 1.3715 111.704 1.3715 111.176C1.3715 110.903 1.394 110.646 1.439 110.406C1.484 110.166 1.5455 109.946 1.6235 109.745C1.7015 109.541 1.7945 109.355 1.9025 109.187C2.0105 109.019 2.1275 108.869 2.2535 108.737L2.924 109.178C3.029 109.247 3.0935 109.337 3.1175 109.448C3.1415 109.556 3.1145 109.673 3.0365 109.799C2.9645 109.919 2.903 110.033 2.852 110.141C2.798 110.246 2.7545 110.354 2.7215 110.465C2.6885 110.576 2.6645 110.693 2.6495 110.816C2.6345 110.939 2.627 111.077 2.627 111.23C2.627 111.515 2.678 111.771 2.78 111.999C2.879 112.227 3.02 112.422 3.203 112.584C3.386 112.743 3.6065 112.866 3.8645 112.953C4.1195 113.04 4.4045 113.084 4.7195 113.084C5.0675 113.084 5.3765 113.036 5.6465 112.94C5.9165 112.844 6.1445 112.709 6.3305 112.535C6.5165 112.358 6.659 112.148 6.758 111.905C6.854 111.659 6.902 111.387 6.902 111.09C6.902 110.907 6.884 110.742 6.848 110.595C6.812 110.445 6.764 110.3 6.704 110.159H5.7095V110.807C5.7095 110.903 5.684 110.978 5.633 111.032C5.582 111.086 5.5175 111.113 5.4395 111.113H4.6025ZM4.526 105.626C4.526 105.419 4.5005 105.244 4.4495 105.1C4.3955 104.953 4.322 104.833 4.229 104.74C4.136 104.647 4.028 104.579 3.905 104.537C3.779 104.495 3.644 104.474 3.5 104.474C3.212 104.474 2.987 104.569 2.825 104.758C2.663 104.944 2.582 105.233 2.582 105.626V106.238H4.526V105.626ZM8 102.395V103.772C8 104.027 7.904 104.21 7.712 104.321L5.8085 105.41C5.7275 105.461 5.669 105.518 5.633 105.581C5.594 105.644 5.5745 105.734 5.5745 105.851V106.238H8V107.759H1.4435L1.4435 105.626C1.4435 105.152 1.493 104.749 1.592 104.416C1.688 104.08 1.823 103.807 1.997 103.597C2.171 103.384 2.3765 103.229 2.6135 103.133C2.8505 103.037 3.1085 102.989 3.3875 102.989C3.6005 102.989 3.8015 103.018 3.9905 103.075C4.1795 103.132 4.355 103.216 4.517 103.327C4.676 103.438 4.8185 103.576 4.9445 103.741C5.0705 103.903 5.174 104.09 5.255 104.303C5.306 104.204 5.3705 104.111 5.4485 104.024C5.5235 103.937 5.6135 103.859 5.7185 103.79L8 102.395ZM8 100.314L8 101.844H1.4435V100.314H8ZM4.7195 93.1001C5.1935 93.1001 5.6315 93.1826 6.0335 93.3476C6.4325 93.5096 6.779 93.7391 7.073 94.0361C7.364 94.3331 7.592 94.6916 7.757 95.1116C7.919 95.5286 8 95.9921 8 96.5021V99.0491H1.4435L1.4435 96.5021C1.4435 95.9921 1.526 95.5286 1.691 95.1116C1.856 94.6916 2.084 94.3331 2.375 94.0361C2.666 93.7391 3.0125 93.5096 3.4145 93.3476C3.8135 93.1826 4.2485 93.1001 4.7195 93.1001ZM4.7195 94.6571C4.3955 94.6571 4.103 94.6991 3.842 94.7831C3.581 94.8671 3.3605 94.9886 3.1805 95.1476C2.9975 95.3036 2.858 95.4956 2.762 95.7236C2.663 95.9516 2.6135 96.2111 2.6135 96.5021L2.6135 97.5191H6.83V96.5021C6.83 96.2111 6.782 95.9516 6.686 95.7236C6.587 95.4956 6.4475 95.3036 6.2675 95.1476C6.0845 94.9886 5.8625 94.8671 5.6015 94.7831C5.3405 94.6991 5.0465 94.6571 4.7195 94.6571ZM4.661 87.8064C4.661 87.4104 4.5665 87.1254 4.3775 86.9514C4.1885 86.7774 3.9245 86.6904 3.5855 86.6904C3.4355 86.6904 3.299 86.7129 3.176 86.7579C3.053 86.8029 2.948 86.8719 2.861 86.9649C2.771 87.0549 2.702 87.1704 2.654 87.3114C2.606 87.4494 2.582 87.6144 2.582 87.8064V88.5984H4.661V87.8064ZM1.4435 87.8064C1.4435 87.3444 1.499 86.9484 1.61 86.6184C1.718 86.2854 1.868 86.0124 2.06 85.7994C2.252 85.5834 2.4785 85.4244 2.7395 85.3224C3.0005 85.2204 3.2825 85.1694 3.5855 85.1694C3.9125 85.1694 4.2125 85.2219 4.4855 85.3269C4.7585 85.4319 4.9925 85.5924 5.1875 85.8084C5.3825 86.0244 5.5355 86.2989 5.6465 86.6319C5.7545 86.9619 5.8085 87.3534 5.8085 87.8064V88.5984H8V90.1194H1.4435V87.8064ZM5.4935 81.3898L3.698 81.9973C3.584 82.0423 3.4505 82.0903 3.2975 82.1413C3.1415 82.1923 2.9735 82.2433 2.7935 82.2943C2.9765 82.3393 3.146 82.3873 3.302 82.4383C3.458 82.4893 3.593 82.5373 3.707 82.5823L5.4935 83.1853V81.3898ZM8 78.9733V80.1523C8 80.2843 7.97 80.3908 7.91 80.4718C7.847 80.5528 7.7675 80.6143 7.6715 80.6563L6.5285 81.0433V83.5363L7.6715 83.9233C7.7555 83.9563 7.832 84.0163 7.901 84.1033C7.967 84.1873 8 84.2923 8 84.4183V85.6063L1.4435 83.0683V81.5113L8 78.9733ZM4.7195 72.5073C5.1935 72.5073 5.6315 72.5898 6.0335 72.7548C6.4325 72.9168 6.779 73.1463 7.073 73.4433C7.364 73.7403 7.592 74.0988 7.757 74.5188C7.919 74.9358 8 75.3993 8 75.9093V78.4563H1.4435L1.4435 75.9093C1.4435 75.3993 1.526 74.9358 1.691 74.5188C1.856 74.0988 2.084 73.7403 2.375 73.4433C2.666 73.1463 3.0125 72.9168 3.4145 72.7548C3.8135 72.5898 4.2485 72.5073 4.7195 72.5073ZM4.7195 74.0643C4.3955 74.0643 4.103 74.1063 3.842 74.1903C3.581 74.2743 3.3605 74.3958 3.1805 74.5548C2.9975 74.7108 2.858 74.9028 2.762 75.1308C2.663 75.3588 2.6135 75.6183 2.6135 75.9093V76.9263H6.83V75.9093C6.83 75.6183 6.782 75.3588 6.686 75.1308C6.587 74.9028 6.4475 74.7108 6.2675 74.5548C6.0845 74.3958 5.8625 74.2743 5.6015 74.1903C5.3405 74.1063 5.0465 74.0643 4.7195 74.0643ZM4.7195 65.6606C5.1935 65.6606 5.6315 65.7431 6.0335 65.9081C6.4325 66.0701 6.779 66.2996 7.073 66.5966C7.364 66.8936 7.592 67.2521 7.757 67.6721C7.919 68.0891 8 68.5526 8 69.0626L8 71.6096H1.4435L1.4435 69.0626C1.4435 68.5526 1.526 68.0891 1.691 67.6721C1.856 67.2521 2.084 66.8936 2.375 66.5966C2.666 66.2996 3.0125 66.0701 3.4145 65.9081C3.8135 65.7431 4.2485 65.6606 4.7195 65.6606ZM4.7195 67.2176C4.3955 67.2176 4.103 67.2596 3.842 67.3436C3.581 67.4276 3.3605 67.5491 3.1805 67.7081C2.9975 67.8641 2.858 68.0561 2.762 68.2841C2.663 68.5121 2.6135 68.7716 2.6135 69.0626V70.0796H6.83V69.0626C6.83 68.7716 6.782 68.5121 6.686 68.2841C6.587 68.0561 6.4475 67.8641 6.2675 67.7081C6.0845 67.5491 5.8625 67.4276 5.6015 67.3436C5.3405 67.2596 5.0465 67.2176 4.7195 67.2176ZM8 63.233V64.763H1.4435V63.233H8ZM1.4435 56.244H8V57.036C8 57.153 7.982 57.252 7.946 57.333C7.907 57.411 7.841 57.489 7.748 57.567L3.8375 60.6585C3.9545 60.6465 4.0685 60.639 4.1795 60.636C4.2875 60.63 4.3895 60.627 4.4855 60.627H8V61.968H1.4435V61.167C1.4435 61.101 1.4465 61.0455 1.4525 61.0005C1.4585 60.9555 1.4705 60.915 1.4885 60.879C1.5035 60.843 1.526 60.8085 1.556 60.7755C1.586 60.7425 1.6265 60.705 1.6775 60.663L5.615 57.5445C5.489 57.5595 5.3675 57.57 5.2505 57.576C5.1305 57.582 5.018 57.585 4.913 57.585H1.4435V56.244ZM4.6025 51.8219L4.6025 49.4909H7.37C7.616 49.8269 7.7945 50.1854 7.9055 50.5664C8.0165 50.9444 8.072 51.3404 8.072 51.7544C8.072 52.2944 7.988 52.7864 7.82 53.2304C7.649 53.6714 7.415 54.0494 7.118 54.3644C6.818 54.6794 6.464 54.9224 6.056 55.0934C5.645 55.2644 5.1995 55.3499 4.7195 55.3499C4.2305 55.3499 3.782 55.2689 3.374 55.1069C2.963 54.9449 2.609 54.7139 2.312 54.4139C2.015 54.1109 1.784 53.7464 1.619 53.3204C1.454 52.8914 1.3715 52.4129 1.3715 51.8849C1.3715 51.6119 1.394 51.3554 1.439 51.1154C1.484 50.8754 1.5455 50.6549 1.6235 50.4539C1.7015 50.2499 1.7945 50.0639 1.9025 49.8959C2.0105 49.7279 2.1275 49.5779 2.2535 49.4459L2.924 49.8869C3.029 49.9559 3.0935 50.0459 3.1175 50.1569C3.1415 50.2649 3.1145 50.3819 3.0365 50.5079C2.9645 50.6279 2.903 50.7419 2.852 50.8499C2.798 50.9549 2.7545 51.0629 2.7215 51.1739C2.6885 51.2849 2.6645 51.4019 2.6495 51.5249C2.6345 51.6479 2.627 51.7859 2.627 51.9389C2.627 52.2239 2.678 52.4804 2.78 52.7084C2.879 52.9364 3.02 53.1314 3.203 53.2934C3.386 53.4524 3.6065 53.5754 3.8645 53.6624C4.1195 53.7494 4.4045 53.7929 4.7195 53.7929C5.0675 53.7929 5.3765 53.7449 5.6465 53.6489C5.9165 53.5529 6.1445 53.4179 6.3305 53.2439C6.5165 53.0669 6.659 52.8569 6.758 52.6139C6.854 52.3679 6.902 52.0964 6.902 51.7994C6.902 51.6164 6.884 51.4514 6.848 51.3044C6.812 51.1544 6.764 51.0089 6.704 50.8679H5.7095V51.5159C5.7095 51.6119 5.684 51.6869 5.633 51.7409C5.582 51.7949 5.5175 51.8219 5.4395 51.8219H4.6025Z" fill="#007BFF" fill-opacity="0.7"/>
<path d="M280 20H340V224C340 226.209 338.209 228 336 228H280V20Z" fill="#007BFF" fill-opacity="0.3"/>
<rect x="338" y="114" width="2" height="10" fill="#007BFF" fill-opacity="0.5"/>
<rect x="282" y="118" width="56" height="2" fill="#007BFF" fill-opacity="0.5"/>
<rect x="280" y="114" width="2" height="10" fill="#007BFF" fill-opacity="0.5"/>
<path d="M295.751 126.775C295.706 126.847 295.658 126.901 295.607 126.938C295.559 126.973 295.496 126.991 295.418 126.991C295.349 126.991 295.274 126.97 295.193 126.928C295.115 126.883 295.025 126.834 294.923 126.78C294.824 126.726 294.71 126.678 294.581 126.636C294.452 126.591 294.305 126.568 294.14 126.568C293.855 126.568 293.642 126.63 293.501 126.753C293.363 126.873 293.294 127.036 293.294 127.243C293.294 127.375 293.336 127.485 293.42 127.572C293.504 127.659 293.613 127.734 293.748 127.797C293.886 127.86 294.042 127.918 294.216 127.972C294.393 128.023 294.573 128.082 294.756 128.148C294.939 128.211 295.118 128.286 295.292 128.373C295.469 128.46 295.625 128.571 295.76 128.706C295.898 128.841 296.009 129.006 296.093 129.201C296.177 129.393 296.219 129.625 296.219 129.898C296.219 130.201 296.166 130.485 296.061 130.749C295.956 131.013 295.803 131.244 295.602 131.442C295.404 131.637 295.158 131.791 294.864 131.905C294.573 132.016 294.242 132.072 293.87 132.072C293.666 132.072 293.457 132.051 293.244 132.009C293.034 131.967 292.83 131.908 292.632 131.833C292.434 131.755 292.248 131.664 292.074 131.559C291.9 131.454 291.749 131.337 291.62 131.208L292.07 130.497C292.106 130.446 292.152 130.404 292.209 130.371C292.269 130.335 292.334 130.317 292.403 130.317C292.493 130.317 292.583 130.345 292.673 130.402C292.766 130.459 292.869 130.522 292.983 130.591C293.1 130.66 293.234 130.723 293.384 130.78C293.534 130.837 293.711 130.866 293.915 130.866C294.191 130.866 294.405 130.806 294.558 130.686C294.711 130.563 294.788 130.369 294.788 130.105C294.788 129.952 294.746 129.828 294.662 129.732C294.578 129.636 294.467 129.556 294.329 129.493C294.194 129.43 294.039 129.375 293.865 129.327C293.691 129.279 293.513 129.226 293.33 129.169C293.147 129.109 292.968 129.037 292.794 128.953C292.62 128.866 292.464 128.754 292.326 128.616C292.191 128.475 292.082 128.301 291.998 128.094C291.914 127.884 291.872 127.626 291.872 127.32C291.872 127.074 291.921 126.834 292.02 126.6C292.119 126.366 292.265 126.157 292.457 125.974C292.649 125.791 292.884 125.646 293.163 125.538C293.442 125.427 293.762 125.371 294.122 125.371C294.323 125.371 294.518 125.388 294.707 125.421C294.899 125.451 295.08 125.497 295.251 125.56C295.422 125.62 295.581 125.694 295.728 125.781C295.878 125.865 296.012 125.961 296.129 126.069L295.751 126.775ZM298.642 132H297.112V125.443H298.642V132ZM305.855 128.719C305.855 129.193 305.773 129.631 305.608 130.033C305.446 130.432 305.216 130.779 304.919 131.073C304.622 131.364 304.264 131.592 303.844 131.757C303.427 131.919 302.963 132 302.453 132H299.906V125.443H302.453C302.963 125.443 303.427 125.526 303.844 125.691C304.264 125.856 304.622 126.084 304.919 126.375C305.216 126.666 305.446 127.012 305.608 127.414C305.773 127.813 305.855 128.248 305.855 128.719ZM304.298 128.719C304.298 128.395 304.256 128.103 304.172 127.842C304.088 127.581 303.967 127.36 303.808 127.18C303.652 126.997 303.46 126.858 303.232 126.762C303.004 126.663 302.744 126.613 302.453 126.613H301.436V130.83H302.453C302.744 130.83 303.004 130.782 303.232 130.686C303.46 130.587 303.652 130.447 303.808 130.267C303.967 130.084 304.088 129.862 304.172 129.601C304.256 129.34 304.298 129.046 304.298 128.719ZM308.283 126.613V128.143H310.344V129.268H308.283V130.83H310.974V132H306.753V125.443H310.974V126.613H308.283ZM314.504 130.852C314.705 130.852 314.869 130.827 314.995 130.776C315.124 130.725 315.224 130.659 315.296 130.578C315.368 130.497 315.418 130.405 315.445 130.303C315.472 130.201 315.485 130.098 315.485 129.993C315.485 129.873 315.469 129.765 315.436 129.669C315.406 129.573 315.352 129.492 315.274 129.426C315.199 129.36 315.098 129.309 314.972 129.273C314.846 129.237 314.687 129.219 314.495 129.219H313.433V130.852H314.504ZM313.433 126.582V128.202H314.225C314.393 128.202 314.545 128.19 314.68 128.166C314.815 128.142 314.929 128.1 315.022 128.04C315.118 127.98 315.19 127.897 315.238 127.792C315.289 127.687 315.314 127.555 315.314 127.396C315.314 127.24 315.295 127.111 315.256 127.009C315.217 126.904 315.157 126.82 315.076 126.757C314.995 126.694 314.891 126.649 314.765 126.622C314.642 126.595 314.495 126.582 314.324 126.582H313.433ZM314.324 125.443C314.777 125.443 315.163 125.485 315.481 125.569C315.799 125.653 316.058 125.772 316.259 125.925C316.46 126.078 316.606 126.264 316.696 126.483C316.789 126.702 316.835 126.946 316.835 127.216C316.835 127.363 316.814 127.506 316.772 127.644C316.73 127.779 316.664 127.906 316.574 128.026C316.484 128.143 316.369 128.251 316.228 128.35C316.087 128.449 315.917 128.535 315.719 128.607C316.151 128.712 316.471 128.881 316.678 129.115C316.885 129.349 316.988 129.652 316.988 130.024C316.988 130.303 316.934 130.563 316.826 130.803C316.718 131.043 316.559 131.253 316.349 131.433C316.142 131.61 315.886 131.749 315.58 131.852C315.274 131.951 314.924 132 314.531 132H311.912V125.443H314.324ZM321.292 129.493L320.685 127.698C320.64 127.584 320.592 127.45 320.541 127.297C320.49 127.141 320.439 126.973 320.388 126.793C320.343 126.976 320.295 127.146 320.244 127.302C320.193 127.458 320.145 127.593 320.1 127.707L319.497 129.493H321.292ZM323.709 132H322.53C322.398 132 322.291 131.97 322.21 131.91C322.129 131.847 322.068 131.767 322.026 131.671L321.639 130.528H319.146L318.759 131.671C318.726 131.755 318.666 131.832 318.579 131.901C318.495 131.967 318.39 132 318.264 132H317.076L319.614 125.443H321.171L323.709 132ZM326.359 128.526C326.566 128.526 326.741 128.5 326.885 128.449C327.032 128.395 327.152 128.322 327.245 128.229C327.338 128.136 327.406 128.028 327.448 127.905C327.49 127.779 327.511 127.644 327.511 127.5C327.511 127.212 327.416 126.987 327.227 126.825C327.041 126.663 326.752 126.582 326.359 126.582H325.747V128.526H326.359ZM329.59 132H328.213C327.958 132 327.775 131.904 327.664 131.712L326.575 129.808C326.524 129.727 326.467 129.669 326.404 129.633C326.341 129.594 326.251 129.574 326.134 129.574H325.747V132H324.226V125.443H326.359C326.833 125.443 327.236 125.493 327.569 125.592C327.905 125.688 328.178 125.823 328.388 125.997C328.601 126.171 328.756 126.376 328.852 126.613C328.948 126.85 328.996 127.108 328.996 127.387C328.996 127.6 328.967 127.801 328.91 127.99C328.853 128.179 328.769 128.355 328.658 128.517C328.547 128.676 328.409 128.818 328.244 128.944C328.082 129.07 327.895 129.174 327.682 129.255C327.781 129.306 327.874 129.37 327.961 129.448C328.048 129.523 328.126 129.613 328.195 129.718L329.59 132Z" fill="#007BFF" fill-opacity="0.7"/>
<rect x="8" y="119" width="2" height="10" fill="#007BFF" fill-opacity="0.5"/>
<rect x="2" y="123" width="6" height="2" fill="#007BFF" fill-opacity="0.5"/>
<rect y="119" width="2" height="10" fill="#007BFF" fill-opacity="0.5"/>
<rect x="135" y="20" width="10" height="2" fill="#007BFF" fill-opacity="0.5"/>
<rect x="135" y="28" width="10" height="2" fill="#007BFF" fill-opacity="0.5"/>
<rect x="139" y="22" width="2" height="6" fill="#007BFF" fill-opacity="0.5"/>
<rect x="338" y="232" width="2" height="10" fill="#007BFF" fill-opacity="0.5"/>
<rect x="2" y="236" width="336" height="2" fill="#007BFF" fill-opacity="0.5"/>
<rect y="232" width="2" height="10" fill="#007BFF" fill-opacity="0.5"/>
<rect x="126.5" y="232" width="87" height="10" fill="white"/>
<path d="M134.036 238.852C134.237 238.852 134.401 238.827 134.527 238.776C134.656 238.725 134.756 238.659 134.828 238.578C134.9 238.497 134.95 238.405 134.977 238.303C135.004 238.201 135.017 238.098 135.017 237.993C135.017 237.873 135.001 237.765 134.968 237.669C134.938 237.573 134.884 237.492 134.806 237.426C134.731 237.36 134.63 237.309 134.504 237.273C134.378 237.237 134.219 237.219 134.027 237.219H132.965V238.852H134.036ZM132.965 234.582V236.202H133.757C133.925 236.202 134.077 236.19 134.212 236.166C134.347 236.142 134.461 236.1 134.554 236.04C134.65 235.98 134.722 235.897 134.77 235.792C134.821 235.687 134.846 235.555 134.846 235.396C134.846 235.24 134.827 235.111 134.788 235.009C134.749 234.904 134.689 234.82 134.608 234.757C134.527 234.694 134.423 234.649 134.297 234.622C134.174 234.595 134.027 234.582 133.856 234.582H132.965ZM133.856 233.443C134.309 233.443 134.695 233.485 135.013 233.569C135.331 233.653 135.59 233.772 135.791 233.925C135.992 234.078 136.138 234.264 136.228 234.483C136.321 234.702 136.367 234.946 136.367 235.216C136.367 235.363 136.346 235.506 136.304 235.644C136.262 235.779 136.196 235.906 136.106 236.026C136.016 236.143 135.901 236.251 135.76 236.35C135.619 236.449 135.449 236.535 135.251 236.607C135.683 236.712 136.003 236.881 136.21 237.115C136.417 237.349 136.52 237.652 136.52 238.024C136.52 238.303 136.466 238.563 136.358 238.803C136.25 239.043 136.091 239.253 135.881 239.433C135.674 239.61 135.418 239.749 135.112 239.852C134.806 239.951 134.456 240 134.063 240H131.444V233.443H133.856ZM139.606 236.526C139.813 236.526 139.989 236.5 140.133 236.449C140.28 236.395 140.4 236.322 140.493 236.229C140.586 236.136 140.653 236.028 140.695 235.905C140.737 235.779 140.758 235.644 140.758 235.5C140.758 235.212 140.664 234.987 140.475 234.825C140.289 234.663 139.999 234.582 139.606 234.582H138.994V236.526H139.606ZM142.837 240H141.46C141.205 240 141.022 239.904 140.911 239.712L139.822 237.808C139.771 237.727 139.714 237.669 139.651 237.633C139.588 237.594 139.498 237.574 139.381 237.574H138.994V240H137.473V233.443H139.606C140.08 233.443 140.484 233.493 140.817 233.592C141.153 233.688 141.426 233.823 141.636 233.997C141.849 234.171 142.003 234.376 142.099 234.613C142.195 234.85 142.243 235.108 142.243 235.387C142.243 235.6 142.215 235.801 142.158 235.99C142.101 236.179 142.017 236.355 141.906 236.517C141.795 236.676 141.657 236.818 141.492 236.944C141.33 237.07 141.142 237.174 140.929 237.255C141.028 237.306 141.121 237.37 141.208 237.448C141.295 237.523 141.373 237.613 141.442 237.718L142.837 240ZM149.709 236.719C149.709 237.193 149.627 237.634 149.462 238.042C149.3 238.45 149.07 238.806 148.773 239.109C148.476 239.409 148.118 239.644 147.698 239.815C147.281 239.987 146.817 240.072 146.307 240.072C145.797 240.072 145.332 239.987 144.912 239.815C144.492 239.644 144.132 239.409 143.832 239.109C143.535 238.806 143.304 238.45 143.139 238.042C142.977 237.634 142.896 237.193 142.896 236.719C142.896 236.245 142.977 235.804 143.139 235.396C143.304 234.988 143.535 234.634 143.832 234.334C144.132 234.034 144.492 233.799 144.912 233.628C145.332 233.457 145.797 233.371 146.307 233.371C146.817 233.371 147.281 233.458 147.698 233.632C148.118 233.803 148.476 234.039 148.773 234.339C149.07 234.639 149.3 234.993 149.462 235.401C149.627 235.809 149.709 236.248 149.709 236.719ZM148.152 236.719C148.152 236.395 148.11 236.104 148.026 235.846C147.942 235.585 147.821 235.365 147.662 235.185C147.506 235.005 147.314 234.867 147.086 234.771C146.858 234.675 146.598 234.627 146.307 234.627C146.013 234.627 145.751 234.675 145.52 234.771C145.292 234.867 145.098 235.005 144.939 235.185C144.783 235.365 144.663 235.585 144.579 235.846C144.495 236.104 144.453 236.395 144.453 236.719C144.453 237.046 144.495 237.34 144.579 237.601C144.663 237.859 144.783 238.078 144.939 238.258C145.098 238.438 145.292 238.576 145.52 238.672C145.751 238.765 146.013 238.812 146.307 238.812C146.598 238.812 146.858 238.765 147.086 238.672C147.314 238.576 147.506 238.438 147.662 238.258C147.821 238.078 147.942 237.859 148.026 237.601C148.11 237.34 148.152 237.046 148.152 236.719ZM154.227 234.775C154.182 234.847 154.134 234.901 154.083 234.938C154.035 234.973 153.972 234.991 153.894 234.991C153.825 234.991 153.75 234.97 153.669 234.928C153.591 234.883 153.501 234.834 153.399 234.78C153.3 234.726 153.186 234.678 153.057 234.636C152.928 234.591 152.781 234.568 152.616 234.568C152.331 234.568 152.118 234.63 151.977 234.753C151.839 234.873 151.77 235.036 151.77 235.243C151.77 235.375 151.812 235.485 151.896 235.572C151.98 235.659 152.089 235.734 152.224 235.797C152.362 235.86 152.518 235.918 152.692 235.972C152.869 236.023 153.049 236.082 153.232 236.148C153.415 236.211 153.594 236.286 153.768 236.373C153.945 236.46 154.101 236.571 154.236 236.706C154.374 236.841 154.485 237.006 154.569 237.201C154.653 237.393 154.695 237.625 154.695 237.898C154.695 238.201 154.642 238.485 154.537 238.749C154.432 239.013 154.279 239.244 154.078 239.442C153.88 239.637 153.634 239.791 153.34 239.905C153.049 240.016 152.718 240.072 152.346 240.072C152.142 240.072 151.933 240.051 151.72 240.009C151.51 239.967 151.306 239.908 151.108 239.833C150.91 239.755 150.724 239.664 150.55 239.559C150.376 239.454 150.225 239.337 150.096 239.208L150.546 238.497C150.582 238.446 150.628 238.404 150.685 238.371C150.745 238.335 150.81 238.317 150.879 238.317C150.969 238.317 151.059 238.345 151.149 238.402C151.242 238.459 151.345 238.522 151.459 238.591C151.576 238.66 151.71 238.723 151.86 238.78C152.01 238.837 152.187 238.866 152.391 238.866C152.667 238.866 152.881 238.806 153.034 238.686C153.187 238.563 153.264 238.369 153.264 238.105C153.264 237.952 153.222 237.828 153.138 237.732C153.054 237.636 152.943 237.556 152.805 237.493C152.67 237.43 152.515 237.375 152.341 237.327C152.167 237.279 151.989 237.226 151.806 237.169C151.623 237.109 151.444 237.037 151.27 236.953C151.096 236.866 150.94 236.754 150.802 236.616C150.667 236.475 150.558 236.301 150.474 236.094C150.39 235.884 150.348 235.626 150.348 235.32C150.348 235.074 150.397 234.834 150.496 234.6C150.595 234.366 150.741 234.157 150.933 233.974C151.125 233.791 151.36 233.646 151.639 233.538C151.918 233.427 152.238 233.371 152.598 233.371C152.799 233.371 152.994 233.388 153.183 233.421C153.375 233.451 153.556 233.497 153.727 233.56C153.898 233.62 154.057 233.694 154.204 233.781C154.354 233.865 154.488 233.961 154.605 234.069L154.227 234.775ZM164.467 233.443L162.442 240H161.065L159.832 235.936C159.808 235.873 159.786 235.804 159.765 235.729C159.744 235.651 159.723 235.57 159.702 235.486C159.681 235.57 159.66 235.651 159.639 235.729C159.618 235.804 159.595 235.873 159.571 235.936L158.32 240H156.943L154.918 233.443H156.196C156.328 233.443 156.438 233.473 156.525 233.533C156.615 233.593 156.673 233.673 156.7 233.772L157.6 237.192C157.627 237.3 157.654 237.418 157.681 237.547C157.708 237.673 157.735 237.805 157.762 237.943C157.816 237.661 157.882 237.411 157.96 237.192L159.022 233.772C159.049 233.688 159.106 233.613 159.193 233.547C159.283 233.478 159.391 233.443 159.517 233.443H159.967C160.099 233.443 160.206 233.475 160.287 233.538C160.368 233.598 160.429 233.676 160.471 233.772L161.524 237.192C161.602 237.402 161.668 237.64 161.722 237.907C161.746 237.772 161.77 237.646 161.794 237.529C161.821 237.409 161.848 237.297 161.875 237.192L162.775 233.772C162.799 233.685 162.856 233.608 162.946 233.542C163.036 233.476 163.144 233.443 163.27 233.443H164.467ZM166.654 234.613V236.143H168.715V237.268H166.654V238.83H169.345V240H165.124V233.443H169.345V234.613H166.654ZM172.416 236.526C172.623 236.526 172.798 236.5 172.942 236.449C173.089 236.395 173.209 236.322 173.302 236.229C173.395 236.136 173.463 236.028 173.505 235.905C173.547 235.779 173.568 235.644 173.568 235.5C173.568 235.212 173.473 234.987 173.284 234.825C173.098 234.663 172.809 234.582 172.416 234.582H171.804V236.526H172.416ZM175.647 240H174.27C174.015 240 173.832 239.904 173.721 239.712L172.632 237.808C172.581 237.727 172.524 237.669 172.461 237.633C172.398 237.594 172.308 237.574 172.191 237.574H171.804V240H170.283V233.443H172.416C172.89 233.443 173.293 233.493 173.626 233.592C173.962 233.688 174.235 233.823 174.445 233.997C174.658 234.171 174.813 234.376 174.909 234.613C175.005 234.85 175.053 235.108 175.053 235.387C175.053 235.6 175.024 235.801 174.967 235.99C174.91 236.179 174.826 236.355 174.715 236.517C174.604 236.676 174.466 236.818 174.301 236.944C174.139 237.07 173.952 237.174 173.739 237.255C173.838 237.306 173.931 237.37 174.018 237.448C174.105 237.523 174.183 237.613 174.252 237.718L175.647 240ZM187.213 233.443L185.188 240H183.811L182.578 235.936C182.554 235.873 182.532 235.804 182.511 235.729C182.49 235.651 182.469 235.57 182.448 235.486C182.427 235.57 182.406 235.651 182.385 235.729C182.364 235.804 182.341 235.873 182.317 235.936L181.066 240H179.689L177.664 233.443H178.942C179.074 233.443 179.184 233.473 179.271 233.533C179.361 233.593 179.419 233.673 179.446 233.772L180.346 237.192C180.373 237.3 180.4 237.418 180.427 237.547C180.454 237.673 180.481 237.805 180.508 237.943C180.562 237.661 180.628 237.411 180.706 237.192L181.768 233.772C181.795 233.688 181.852 233.613 181.939 233.547C182.029 233.478 182.137 233.443 182.263 233.443H182.713C182.845 233.443 182.952 233.475 183.033 233.538C183.114 233.598 183.175 233.676 183.217 233.772L184.27 237.192C184.348 237.402 184.414 237.64 184.468 237.907C184.492 237.772 184.516 237.646 184.54 237.529C184.567 237.409 184.594 237.297 184.621 237.192L185.521 233.772C185.545 233.685 185.602 233.608 185.692 233.542C185.782 233.476 185.89 233.443 186.016 233.443H187.213ZM189.4 240H187.87V233.443H189.4V240ZM196.614 236.719C196.614 237.193 196.531 237.631 196.366 238.033C196.204 238.432 195.975 238.779 195.678 239.073C195.381 239.364 195.022 239.592 194.602 239.757C194.185 239.919 193.722 240 193.212 240H190.665V233.443H193.212C193.722 233.443 194.185 233.526 194.602 233.691C195.022 233.856 195.381 234.084 195.678 234.375C195.975 234.666 196.204 235.012 196.366 235.414C196.531 235.813 196.614 236.248 196.614 236.719ZM195.057 236.719C195.057 236.395 195.015 236.103 194.931 235.842C194.847 235.581 194.725 235.36 194.566 235.18C194.41 234.997 194.218 234.858 193.99 234.762C193.762 234.663 193.503 234.613 193.212 234.613H192.195V238.83H193.212C193.503 238.83 193.762 238.782 193.99 238.686C194.218 238.587 194.41 238.447 194.566 238.267C194.725 238.084 194.847 237.862 194.931 237.601C195.015 237.34 195.057 237.046 195.057 236.719ZM202.056 234.649H200.211V240H198.69V234.649H196.845V233.443H202.056V234.649ZM208.553 233.443V240H207.023V237.228H204.359V240H202.829V233.443H204.359V236.184H207.023V233.443H208.553Z" fill="#007BFF" fill-opacity="0.7"/>
<rect x="346" y="20" width="10" height="2" fill="#007BFF" fill-opacity="0.5"/>
<rect x="346" y="226" width="10" height="2" fill="#007BFF" fill-opacity="0.5"/>
<rect x="350" y="22" width="2" height="204" fill="#007BFF" fill-opacity="0.5"/>
<rect x="346" y="168.5" width="89" height="10" transform="rotate(-90 346 168.5)" fill="white"/>
<path d="M352.852 161.054C352.852 160.853 352.827 160.689 352.776 160.563C352.725 160.434 352.659 160.334 352.578 160.262C352.497 160.19 352.405 160.14 352.303 160.113C352.201 160.086 352.098 160.073 351.993 160.073C351.873 160.073 351.765 160.089 351.669 160.122C351.573 160.152 351.492 160.206 351.426 160.284C351.36 160.359 351.309 160.46 351.273 160.586C351.237 160.712 351.219 160.871 351.219 161.063V162.125H352.852V161.054ZM348.582 162.125H350.202V161.333C350.202 161.165 350.19 161.013 350.166 160.878C350.142 160.743 350.1 160.629 350.04 160.536C349.98 160.44 349.897 160.368 349.792 160.32C349.687 160.269 349.555 160.244 349.396 160.244C349.24 160.244 349.111 160.263 349.009 160.302C348.904 160.341 348.82 160.401 348.757 160.482C348.694 160.563 348.649 160.667 348.622 160.793C348.595 160.916 348.582 161.063 348.582 161.234V162.125ZM347.443 161.234C347.443 160.781 347.485 160.395 347.569 160.077C347.653 159.759 347.772 159.5 347.925 159.299C348.078 159.098 348.264 158.952 348.483 158.862C348.702 158.769 348.946 158.723 349.216 158.723C349.363 158.723 349.506 158.744 349.644 158.786C349.779 158.828 349.906 158.894 350.026 158.984C350.143 159.074 350.251 159.189 350.35 159.33C350.449 159.471 350.535 159.641 350.607 159.839C350.712 159.407 350.881 159.087 351.115 158.88C351.349 158.673 351.652 158.57 352.024 158.57C352.303 158.57 352.563 158.624 352.803 158.732C353.043 158.84 353.253 158.999 353.433 159.209C353.61 159.416 353.749 159.672 353.852 159.978C353.951 160.284 354 160.634 354 161.027V163.646H347.443V161.234ZM350.526 155.483C350.526 155.276 350.5 155.101 350.449 154.957C350.395 154.81 350.322 154.69 350.229 154.597C350.136 154.504 350.028 154.436 349.905 154.394C349.779 154.352 349.644 154.331 349.5 154.331C349.212 154.331 348.987 154.426 348.825 154.615C348.663 154.801 348.582 155.09 348.582 155.483V156.095H350.526V155.483ZM354 152.252V153.629C354 153.884 353.904 154.067 353.712 154.178L351.808 155.267C351.727 155.318 351.669 155.375 351.633 155.438C351.594 155.501 351.574 155.591 351.574 155.708V156.095H354V157.616H347.443V155.483C347.443 155.009 347.493 154.606 347.592 154.273C347.688 153.937 347.823 153.664 347.997 153.454C348.171 153.241 348.376 153.086 348.613 152.99C348.85 152.894 349.108 152.846 349.387 152.846C349.6 152.846 349.801 152.875 349.99 152.932C350.179 152.989 350.355 153.073 350.517 153.184C350.676 153.295 350.818 153.433 350.944 153.598C351.07 153.76 351.174 153.947 351.255 154.16C351.306 154.061 351.37 153.968 351.448 153.881C351.523 153.794 351.613 153.716 351.718 153.647L354 152.252ZM350.719 145.381C351.193 145.381 351.634 145.463 352.042 145.628C352.45 145.79 352.806 146.02 353.109 146.317C353.409 146.614 353.644 146.972 353.815 147.392C353.987 147.809 354.072 148.273 354.072 148.783C354.072 149.293 353.987 149.758 353.815 150.178C353.644 150.598 353.409 150.958 353.109 151.258C352.806 151.555 352.45 151.786 352.042 151.951C351.634 152.113 351.193 152.194 350.719 152.194C350.245 152.194 349.804 152.113 349.396 151.951C348.988 151.786 348.634 151.555 348.334 151.258C348.034 150.958 347.799 150.598 347.628 150.178C347.457 149.758 347.371 149.293 347.371 148.783C347.371 148.273 347.458 147.809 347.632 147.392C347.803 146.972 348.039 146.614 348.339 146.317C348.639 146.02 348.993 145.79 349.401 145.628C349.809 145.463 350.248 145.381 350.719 145.381ZM350.719 146.938C350.395 146.938 350.104 146.98 349.846 147.064C349.585 147.148 349.365 147.269 349.185 147.428C349.005 147.584 348.867 147.776 348.771 148.004C348.675 148.232 348.627 148.492 348.627 148.783C348.627 149.077 348.675 149.339 348.771 149.57C348.867 149.798 349.005 149.992 349.185 150.151C349.365 150.307 349.585 150.427 349.846 150.511C350.104 150.595 350.395 150.637 350.719 150.637C351.046 150.637 351.34 150.595 351.601 150.511C351.859 150.427 352.078 150.307 352.258 150.151C352.438 149.992 352.576 149.798 352.672 149.57C352.765 149.339 352.812 149.077 352.812 148.783C352.812 148.492 352.765 148.232 352.672 148.004C352.576 147.776 352.438 147.584 352.258 147.428C352.078 147.269 351.859 147.148 351.601 147.064C351.34 146.98 351.046 146.938 350.719 146.938ZM347.443 135.72L354 137.745V139.122L349.936 140.355C349.873 140.379 349.804 140.402 349.729 140.423C349.651 140.444 349.57 140.465 349.486 140.486C349.57 140.507 349.651 140.528 349.729 140.549C349.804 140.57 349.873 140.592 349.936 140.616L354 141.867V143.244L347.443 145.269V143.991C347.443 143.859 347.473 143.75 347.533 143.663C347.593 143.573 347.673 143.514 347.772 143.487L351.192 142.587C351.3 142.56 351.418 142.533 351.547 142.506C351.673 142.479 351.805 142.452 351.943 142.425C351.661 142.371 351.411 142.305 351.192 142.227L347.772 141.165C347.688 141.138 347.613 141.081 347.547 140.994C347.478 140.904 347.443 140.796 347.443 140.67V140.22C347.443 140.088 347.475 139.982 347.538 139.901C347.598 139.82 347.676 139.758 347.772 139.716L351.192 138.663C351.402 138.585 351.64 138.519 351.907 138.465C351.772 138.441 351.646 138.417 351.529 138.393C351.409 138.366 351.297 138.339 351.192 138.312L347.772 137.412C347.685 137.388 347.608 137.331 347.542 137.241C347.476 137.151 347.443 137.043 347.443 136.917V135.72ZM348.775 131.538C348.847 131.583 348.901 131.631 348.938 131.682C348.973 131.73 348.991 131.793 348.991 131.871C348.991 131.94 348.97 132.015 348.928 132.096C348.883 132.174 348.834 132.264 348.78 132.366C348.726 132.465 348.678 132.579 348.636 132.708C348.591 132.837 348.568 132.984 348.568 133.149C348.568 133.434 348.63 133.647 348.753 133.788C348.873 133.926 349.036 133.995 349.243 133.995C349.375 133.995 349.485 133.953 349.572 133.869C349.659 133.785 349.734 133.675 349.797 133.54C349.86 133.402 349.918 133.246 349.972 133.072C350.023 132.895 350.082 132.715 350.148 132.532C350.211 132.349 350.286 132.171 350.373 131.997C350.46 131.82 350.571 131.664 350.706 131.529C350.841 131.391 351.006 131.28 351.201 131.196C351.393 131.112 351.625 131.07 351.898 131.07C352.201 131.07 352.485 131.122 352.749 131.227C353.013 131.332 353.244 131.485 353.442 131.686C353.637 131.884 353.791 132.13 353.905 132.424C354.016 132.715 354.072 133.047 354.072 133.419C354.072 133.623 354.051 133.831 354.009 134.044C353.967 134.254 353.908 134.458 353.833 134.656C353.755 134.854 353.664 135.04 353.559 135.214C353.454 135.388 353.337 135.54 353.208 135.669L352.497 135.219C352.446 135.183 352.404 135.136 352.371 135.079C352.335 135.019 352.317 134.955 352.317 134.886C352.317 134.796 352.345 134.706 352.402 134.616C352.459 134.523 352.522 134.419 352.591 134.305C352.66 134.188 352.723 134.055 352.78 133.905C352.837 133.755 352.866 133.578 352.866 133.374C352.866 133.098 352.806 132.883 352.686 132.73C352.563 132.577 352.369 132.501 352.105 132.501C351.952 132.501 351.828 132.543 351.732 132.627C351.636 132.711 351.556 132.822 351.493 132.96C351.43 133.095 351.375 133.249 351.327 133.423C351.279 133.597 351.226 133.776 351.169 133.959C351.109 134.142 351.037 134.32 350.953 134.494C350.866 134.668 350.754 134.824 350.616 134.962C350.475 135.097 350.301 135.207 350.094 135.291C349.884 135.375 349.626 135.417 349.32 135.417C349.074 135.417 348.834 135.367 348.6 135.268C348.366 135.169 348.157 135.024 347.974 134.832C347.791 134.64 347.646 134.404 347.538 134.125C347.427 133.846 347.371 133.527 347.371 133.167C347.371 132.966 347.388 132.771 347.421 132.582C347.451 132.39 347.497 132.208 347.56 132.037C347.62 131.866 347.694 131.707 347.781 131.56C347.865 131.41 347.961 131.277 348.069 131.16L348.775 131.538ZM348.613 128.647H350.143V126.586H351.268V128.647H352.83V125.956H354V130.177H347.443V125.956H348.613V128.647ZM350.526 122.885C350.526 122.678 350.5 122.502 350.449 122.358C350.395 122.211 350.322 122.091 350.229 121.998C350.136 121.905 350.028 121.838 349.905 121.796C349.779 121.754 349.644 121.733 349.5 121.733C349.212 121.733 348.987 121.827 348.825 122.016C348.663 122.202 348.582 122.492 348.582 122.885V123.497H350.526V122.885ZM354 119.654V121.031C354 121.286 353.904 121.469 353.712 121.58L351.808 122.669C351.727 122.72 351.669 122.777 351.633 122.84C351.594 122.903 351.574 122.993 351.574 123.11V123.497H354V125.018H347.443V122.885C347.443 122.411 347.493 122.007 347.592 121.674C347.688 121.338 347.823 121.065 347.997 120.855C348.171 120.642 348.376 120.488 348.613 120.392C348.85 120.296 349.108 120.248 349.387 120.248C349.6 120.248 349.801 120.276 349.99 120.333C350.179 120.39 350.355 120.474 350.517 120.585C350.676 120.696 350.818 120.834 350.944 120.999C351.07 121.161 351.174 121.349 351.255 121.562C351.306 121.463 351.37 121.37 351.448 121.283C351.523 121.196 351.613 121.118 351.718 121.049L354 119.654ZM347.443 111.296H354V112.826H351.228V115.49H354V117.02H347.443V115.49H350.184V112.826H347.443V111.296ZM348.613 108.494H350.143V106.433H351.268V108.494H352.83V105.803H354V110.024H347.443V105.803H348.613V108.494ZM354 103.335V104.865H347.443V103.335H354ZM350.602 98.9196V96.5886H353.37C353.616 96.9246 353.794 97.2831 353.905 97.6641C354.016 98.0421 354.072 98.4381 354.072 98.8521C354.072 99.3921 353.988 99.8841 353.82 100.328C353.649 100.769 353.415 101.147 353.118 101.462C352.818 101.777 352.464 102.02 352.056 102.191C351.645 102.362 351.199 102.448 350.719 102.448C350.23 102.448 349.782 102.367 349.374 102.205C348.963 102.043 348.609 101.812 348.312 101.512C348.015 101.209 347.784 100.844 347.619 100.418C347.454 99.9891 347.371 99.5106 347.371 98.9826C347.371 98.7096 347.394 98.4531 347.439 98.2131C347.484 97.9731 347.545 97.7526 347.623 97.5516C347.701 97.3476 347.794 97.1616 347.902 96.9936C348.01 96.8256 348.127 96.6756 348.253 96.5436L348.924 96.9846C349.029 97.0536 349.093 97.1436 349.117 97.2546C349.141 97.3626 349.114 97.4796 349.036 97.6056C348.964 97.7256 348.903 97.8396 348.852 97.9476C348.798 98.0526 348.754 98.1606 348.721 98.2716C348.688 98.3826 348.664 98.4996 348.649 98.6226C348.634 98.7456 348.627 98.8836 348.627 99.0366C348.627 99.3216 348.678 99.5781 348.78 99.8061C348.879 100.034 349.02 100.229 349.203 100.391C349.386 100.55 349.606 100.673 349.864 100.76C350.119 100.847 350.404 100.891 350.719 100.891C351.067 100.891 351.376 100.843 351.646 100.747C351.916 100.651 352.144 100.516 352.33 100.342C352.516 100.165 352.659 99.9546 352.758 99.7116C352.854 99.4656 352.902 99.1941 352.902 98.8971C352.902 98.7141 352.884 98.5491 352.848 98.4021C352.812 98.2521 352.764 98.1066 352.704 97.9656H351.709V98.6136C351.709 98.7096 351.684 98.7846 351.633 98.8386C351.582 98.8926 351.517 98.9196 351.439 98.9196H350.602ZM347.443 89.8417H354V91.3717H351.228V94.0357H354V95.5657H347.443V94.0357H350.184V91.3717H347.443V89.8417ZM348.649 83.8581V85.7031H354V87.2241H348.649V89.0691H347.443V83.8581H348.649Z" fill="#007BFF" fill-opacity="0.7"/>
<path d="M0 4C0 1.79086 1.79086 0 4 0H336C338.209 0 340 1.79086 340 4V20H0V4Z" fill="#007BFF" fill-opacity="0.2"/>
<circle cx="10" cy="10" r="4" fill="#007BFF" fill-opacity="0.4"/>
<circle cx="22" cy="10" r="4" fill="#007BFF" fill-opacity="0.4"/>
<circle cx="34" cy="10" r="4" fill="#007BFF" fill-opacity="0.4"/>
<rect x="97" y="4" width="146" height="12" rx="2" fill="white" fill-opacity="0.6"/>
<path d="M326 7C326 6.44772 326.448 6 327 6H340V20H326V7Z" fill="#007BFF" fill-opacity="0.2"/>
<path fill-rule="evenodd" clip-rule="evenodd" d="M334 9H332V12H329V14H332V17H334V14H337V12H334V9Z" fill="#007BFF" fill-opacity="0.4"/>
</svg>
