<svg width="340" height="228" viewBox="0 0 340 228" fill="none" xmlns="http://www.w3.org/2000/svg">
<path d="M0 4C0 1.79086 1.79086 0 4 0H280V228H3.99999C1.79085 228 0 226.209 0 224V4Z" fill="#007BFF" fill-opacity="0.1"/>
<path d="M152.887 4.6025H155.218V7.37C154.882 7.616 154.524 7.7945 154.143 7.9055C153.765 8.0165 153.369 8.072 152.955 8.072C152.415 8.072 151.923 7.988 151.479 7.82C151.038 7.649 150.66 7.415 150.345 7.118C150.03 6.818 149.787 6.464 149.616 6.056C149.445 5.645 149.359 5.1995 149.359 4.7195C149.359 4.2305 149.44 3.782 149.602 3.374C149.764 2.963 149.995 2.609 150.295 2.312C150.598 2.015 150.963 1.784 151.389 1.619C151.818 1.454 152.296 1.3715 152.824 1.3715C153.097 1.3715 153.354 1.394 153.594 1.439C153.834 1.484 154.054 1.5455 154.255 1.6235C154.459 1.7015 154.645 1.7945 154.813 1.9025C154.981 2.0105 155.131 2.1275 155.263 2.2535L154.822 2.924C154.753 3.029 154.663 3.0935 154.552 3.1175C154.444 3.1415 154.327 3.1145 154.201 3.0365C154.081 2.9645 153.967 2.903 153.859 2.852C153.754 2.798 153.646 2.7545 153.535 2.7215C153.424 2.6885 153.307 2.6645 153.184 2.6495C153.061 2.6345 152.923 2.627 152.77 2.627C152.485 2.627 152.229 2.678 152.001 2.78C151.773 2.879 151.578 3.02 151.416 3.203C151.257 3.386 151.134 3.6065 151.047 3.8645C150.96 4.1195 150.916 4.4045 150.916 4.7195C150.916 5.0675 150.964 5.3765 151.06 5.6465C151.156 5.9165 151.291 6.1445 151.465 6.3305C151.642 6.5165 151.852 6.659 152.095 6.758C152.341 6.854 152.613 6.902 152.91 6.902C153.093 6.902 153.258 6.884 153.405 6.848C153.555 6.812 153.7 6.764 153.841 6.704V5.7095H153.193C153.097 5.7095 153.022 5.684 152.968 5.633C152.914 5.582 152.887 5.5175 152.887 5.4395V4.6025ZM158.374 4.526C158.581 4.526 158.756 4.5005 158.9 4.4495C159.047 4.3955 159.167 4.322 159.26 4.229C159.353 4.136 159.421 4.028 159.463 3.905C159.505 3.779 159.526 3.644 159.526 3.5C159.526 3.212 159.431 2.987 159.242 2.825C159.056 2.663 158.767 2.582 158.374 2.582H157.762V4.526H158.374ZM161.605 8H160.228C159.973 8 159.79 7.904 159.679 7.712L158.59 5.8085C158.539 5.7275 158.482 5.669 158.419 5.633C158.356 5.594 158.266 5.5745 158.149 5.5745H157.762V8H156.241V1.4435H158.374C158.848 1.4435 159.251 1.493 159.584 1.592C159.92 1.688 160.193 1.823 160.403 1.997C160.616 2.171 160.771 2.3765 160.867 2.6135C160.963 2.8505 161.011 3.1085 161.011 3.3875C161.011 3.6005 160.982 3.8015 160.925 3.9905C160.868 4.1795 160.784 4.355 160.673 4.517C160.562 4.676 160.424 4.8185 160.259 4.9445C160.097 5.0705 159.91 5.174 159.697 5.255C159.796 5.306 159.889 5.3705 159.976 5.4485C160.063 5.5235 160.141 5.6135 160.21 5.7185L161.605 8ZM163.686 8H162.156V1.4435H163.686V8ZM170.9 4.7195C170.9 5.1935 170.817 5.6315 170.652 6.0335C170.49 6.4325 170.261 6.779 169.964 7.073C169.667 7.364 169.308 7.592 168.888 7.757C168.471 7.919 168.008 8 167.498 8H164.951V1.4435H167.498C168.008 1.4435 168.471 1.526 168.888 1.691C169.308 1.856 169.667 2.084 169.964 2.375C170.261 2.666 170.49 3.0125 170.652 3.4145C170.817 3.8135 170.9 4.2485 170.9 4.7195ZM169.343 4.7195C169.343 4.3955 169.301 4.103 169.217 3.842C169.133 3.581 169.011 3.3605 168.852 3.1805C168.696 2.9975 168.504 2.858 168.276 2.762C168.048 2.663 167.789 2.6135 167.498 2.6135H166.481V6.83H167.498C167.789 6.83 168.048 6.782 168.276 6.686C168.504 6.587 168.696 6.4475 168.852 6.2675C169.011 6.0845 169.133 5.8625 169.217 5.6015C169.301 5.3405 169.343 5.0465 169.343 4.7195ZM176.194 4.661C176.59 4.661 176.875 4.5665 177.049 4.3775C177.223 4.1885 177.31 3.9245 177.31 3.5855C177.31 3.4355 177.287 3.299 177.242 3.176C177.197 3.053 177.128 2.948 177.035 2.861C176.945 2.771 176.83 2.702 176.689 2.654C176.551 2.606 176.386 2.582 176.194 2.582H175.402V4.661H176.194ZM176.194 1.4435C176.656 1.4435 177.052 1.499 177.382 1.61C177.715 1.718 177.988 1.868 178.201 2.06C178.417 2.252 178.576 2.4785 178.678 2.7395C178.78 3.0005 178.831 3.2825 178.831 3.5855C178.831 3.9125 178.778 4.2125 178.673 4.4855C178.568 4.7585 178.408 4.9925 178.192 5.1875C177.976 5.3825 177.701 5.5355 177.368 5.6465C177.038 5.7545 176.647 5.8085 176.194 5.8085H175.402V8H173.881V1.4435H176.194ZM182.61 5.4935L182.003 3.698C181.958 3.584 181.91 3.4505 181.859 3.2975C181.808 3.1415 181.757 2.9735 181.706 2.7935C181.661 2.9765 181.613 3.146 181.562 3.302C181.511 3.458 181.463 3.593 181.418 3.707L180.815 5.4935H182.61ZM185.027 8H183.848C183.716 8 183.609 7.97 183.528 7.91C183.447 7.847 183.386 7.7675 183.344 7.6715L182.957 6.5285H180.464L180.077 7.6715C180.044 7.7555 179.984 7.832 179.897 7.901C179.813 7.967 179.708 8 179.582 8H178.394L180.932 1.4435H182.489L185.027 8ZM191.493 4.7195C191.493 5.1935 191.41 5.6315 191.245 6.0335C191.083 6.4325 190.854 6.779 190.557 7.073C190.26 7.364 189.901 7.592 189.481 7.757C189.064 7.919 188.601 8 188.091 8H185.544V1.4435H188.091C188.601 1.4435 189.064 1.526 189.481 1.691C189.901 1.856 190.26 2.084 190.557 2.375C190.854 2.666 191.083 3.0125 191.245 3.4145C191.41 3.8135 191.493 4.2485 191.493 4.7195ZM189.936 4.7195C189.936 4.3955 189.894 4.103 189.81 3.842C189.726 3.581 189.604 3.3605 189.445 3.1805C189.289 2.9975 189.097 2.858 188.869 2.762C188.641 2.663 188.382 2.6135 188.091 2.6135H187.074V6.83H188.091C188.382 6.83 188.641 6.782 188.869 6.686C189.097 6.587 189.289 6.4475 189.445 6.2675C189.604 6.0845 189.726 5.8625 189.81 5.6015C189.894 5.3405 189.936 5.0465 189.936 4.7195ZM198.339 4.7195C198.339 5.1935 198.257 5.6315 198.092 6.0335C197.93 6.4325 197.7 6.779 197.403 7.073C197.106 7.364 196.748 7.592 196.328 7.757C195.911 7.919 195.447 8 194.937 8H192.39V1.4435H194.937C195.447 1.4435 195.911 1.526 196.328 1.691C196.748 1.856 197.106 2.084 197.403 2.375C197.7 2.666 197.93 3.0125 198.092 3.4145C198.257 3.8135 198.339 4.2485 198.339 4.7195ZM196.782 4.7195C196.782 4.3955 196.74 4.103 196.656 3.842C196.572 3.581 196.451 3.3605 196.292 3.1805C196.136 2.9975 195.944 2.858 195.716 2.762C195.488 2.663 195.228 2.6135 194.937 2.6135H193.92V6.83H194.937C195.228 6.83 195.488 6.782 195.716 6.686C195.944 6.587 196.136 6.4475 196.292 6.2675C196.451 6.0845 196.572 5.8625 196.656 5.6015C196.74 5.3405 196.782 5.0465 196.782 4.7195ZM200.767 8H199.237V1.4435H200.767V8ZM207.756 1.4435V8H206.964C206.847 8 206.748 7.982 206.667 7.946C206.589 7.907 206.511 7.841 206.433 7.748L203.341 3.8375C203.353 3.9545 203.361 4.0685 203.364 4.1795C203.37 4.2875 203.373 4.3895 203.373 4.4855V8H202.032V1.4435H202.833C202.899 1.4435 202.954 1.4465 202.999 1.4525C203.044 1.4585 203.085 1.4705 203.121 1.4885C203.157 1.5035 203.191 1.526 203.224 1.556C203.257 1.586 203.295 1.6265 203.337 1.6775L206.455 5.615C206.44 5.489 206.43 5.3675 206.424 5.2505C206.418 5.1305 206.415 5.018 206.415 4.913V1.4435H207.756ZM212.178 4.6025H214.509V7.37C214.173 7.616 213.815 7.7945 213.434 7.9055C213.056 8.0165 212.66 8.072 212.246 8.072C211.706 8.072 211.214 7.988 210.77 7.82C210.329 7.649 209.951 7.415 209.636 7.118C209.321 6.818 209.078 6.464 208.907 6.056C208.736 5.645 208.65 5.1995 208.65 4.7195C208.65 4.2305 208.731 3.782 208.893 3.374C209.055 2.963 209.286 2.609 209.586 2.312C209.889 2.015 210.254 1.784 210.68 1.619C211.109 1.454 211.587 1.3715 212.115 1.3715C212.388 1.3715 212.645 1.394 212.885 1.439C213.125 1.484 213.345 1.5455 213.546 1.6235C213.75 1.7015 213.936 1.7945 214.104 1.9025C214.272 2.0105 214.422 2.1275 214.554 2.2535L214.113 2.924C214.044 3.029 213.954 3.0935 213.843 3.1175C213.735 3.1415 213.618 3.1145 213.492 3.0365C213.372 2.9645 213.258 2.903 213.15 2.852C213.045 2.798 212.937 2.7545 212.826 2.7215C212.715 2.6885 212.598 2.6645 212.475 2.6495C212.352 2.6345 212.214 2.627 212.061 2.627C211.776 2.627 211.52 2.678 211.292 2.78C211.064 2.879 210.869 3.02 210.707 3.203C210.548 3.386 210.425 3.6065 210.338 3.8645C210.251 4.1195 210.207 4.4045 210.207 4.7195C210.207 5.0675 210.255 5.3765 210.351 5.6465C210.447 5.9165 210.582 6.1445 210.756 6.3305C210.933 6.5165 211.143 6.659 211.386 6.758C211.632 6.854 211.904 6.902 212.201 6.902C212.384 6.902 212.549 6.884 212.696 6.848C212.846 6.812 212.991 6.764 213.132 6.704V5.7095H212.484C212.388 5.7095 212.313 5.684 212.259 5.633C212.205 5.582 212.178 5.5175 212.178 5.4395V4.6025Z" fill="#007BFF" fill-opacity="0.7"/>
<path d="M4.6025 101.113V98.782H7.37C7.616 99.118 7.7945 99.4765 7.9055 99.8575C8.0165 100.235 8.072 100.631 8.072 101.045C8.072 101.585 7.988 102.077 7.82 102.521C7.649 102.962 7.415 103.34 7.118 103.655C6.818 103.97 6.464 104.213 6.056 104.384C5.645 104.555 5.1995 104.641 4.7195 104.641C4.2305 104.641 3.782 104.56 3.374 104.398C2.963 104.236 2.609 104.005 2.312 103.705C2.015 103.402 1.784 103.037 1.619 102.611C1.454 102.182 1.3715 101.704 1.3715 101.176C1.3715 100.903 1.394 100.646 1.439 100.406C1.484 100.166 1.5455 99.946 1.6235 99.745C1.7015 99.541 1.7945 99.355 1.9025 99.187C2.0105 99.019 2.1275 98.869 2.2535 98.737L2.924 99.178C3.029 99.247 3.0935 99.337 3.1175 99.448C3.1415 99.556 3.1145 99.673 3.0365 99.799C2.9645 99.919 2.903 100.033 2.852 100.141C2.798 100.246 2.7545 100.354 2.7215 100.465C2.6885 100.576 2.6645 100.693 2.6495 100.816C2.6345 100.939 2.627 101.077 2.627 101.23C2.627 101.515 2.678 101.771 2.78 101.999C2.879 102.227 3.02 102.422 3.203 102.584C3.386 102.743 3.6065 102.866 3.8645 102.953C4.1195 103.04 4.4045 103.084 4.7195 103.084C5.0675 103.084 5.3765 103.036 5.6465 102.94C5.9165 102.844 6.1445 102.709 6.3305 102.535C6.5165 102.358 6.659 102.148 6.758 101.905C6.854 101.659 6.902 101.387 6.902 101.09C6.902 100.907 6.884 100.742 6.848 100.595C6.812 100.445 6.764 100.3 6.704 100.159H5.7095V100.807C5.7095 100.903 5.684 100.978 5.633 101.032C5.582 101.086 5.5175 101.113 5.4395 101.113H4.6025ZM4.526 95.6261C4.526 95.4191 4.5005 95.2436 4.4495 95.0996C4.3955 94.9526 4.322 94.8326 4.229 94.7396C4.136 94.6466 4.028 94.5791 3.905 94.5371C3.779 94.4951 3.644 94.4741 3.5 94.4741C3.212 94.4741 2.987 94.5686 2.825 94.7576C2.663 94.9436 2.582 95.2331 2.582 95.6261V96.2381H4.526V95.6261ZM8 92.3951V93.7721C8 94.0271 7.904 94.2101 7.712 94.3211L5.8085 95.4101C5.7275 95.4611 5.669 95.5181 5.633 95.5811C5.594 95.6441 5.5745 95.7341 5.5745 95.8511V96.2381H8V97.7591H1.4435L1.4435 95.6261C1.4435 95.1521 1.493 94.7486 1.592 94.4156C1.688 94.0796 1.823 93.8066 1.997 93.5966C2.171 93.3836 2.3765 93.2291 2.6135 93.1331C2.8505 93.0371 3.1085 92.9891 3.3875 92.9891C3.6005 92.9891 3.8015 93.0176 3.9905 93.0746C4.1795 93.1316 4.355 93.2156 4.517 93.3266C4.676 93.4376 4.8185 93.5756 4.9445 93.7406C5.0705 93.9026 5.174 94.0901 5.255 94.3031C5.306 94.2041 5.3705 94.1111 5.4485 94.0241C5.5235 93.9371 5.6135 93.8591 5.7185 93.7901L8 92.3951ZM8 90.314L8 91.844H1.4435V90.314H8ZM4.7195 83.1001C5.1935 83.1001 5.6315 83.1826 6.0335 83.3476C6.4325 83.5096 6.779 83.7391 7.073 84.0361C7.364 84.3331 7.592 84.6916 7.757 85.1116C7.919 85.5286 8 85.9921 8 86.5021V89.0491H1.4435L1.4435 86.5021C1.4435 85.9921 1.526 85.5286 1.691 85.1116C1.856 84.6916 2.084 84.3331 2.375 84.0361C2.666 83.7391 3.0125 83.5096 3.4145 83.3476C3.8135 83.1826 4.2485 83.1001 4.7195 83.1001ZM4.7195 84.6571C4.3955 84.6571 4.103 84.6991 3.842 84.7831C3.581 84.8671 3.3605 84.9886 3.1805 85.1476C2.9975 85.3036 2.858 85.4956 2.762 85.7236C2.663 85.9516 2.6135 86.2111 2.6135 86.5021L2.6135 87.5191H6.83V86.5021C6.83 86.2111 6.782 85.9516 6.686 85.7236C6.587 85.4956 6.4475 85.3036 6.2675 85.1476C6.0845 84.9886 5.8625 84.8671 5.6015 84.7831C5.3405 84.6991 5.0465 84.6571 4.7195 84.6571ZM4.661 77.8064C4.661 77.4104 4.5665 77.1254 4.3775 76.9514C4.1885 76.7774 3.9245 76.6904 3.5855 76.6904C3.4355 76.6904 3.299 76.7129 3.176 76.7579C3.053 76.8029 2.948 76.8719 2.861 76.9649C2.771 77.0549 2.702 77.1704 2.654 77.3114C2.606 77.4494 2.582 77.6144 2.582 77.8064V78.5984H4.661V77.8064ZM1.4435 77.8064C1.4435 77.3444 1.499 76.9484 1.61 76.6184C1.718 76.2854 1.868 76.0124 2.06 75.7994C2.252 75.5834 2.4785 75.4244 2.7395 75.3224C3.0005 75.2204 3.2825 75.1694 3.5855 75.1694C3.9125 75.1694 4.2125 75.2219 4.4855 75.3269C4.7585 75.4319 4.9925 75.5924 5.1875 75.8084C5.3825 76.0244 5.5355 76.2989 5.6465 76.6319C5.7545 76.9619 5.8085 77.3534 5.8085 77.8064V78.5984H8V80.1194H1.4435V77.8064ZM5.4935 71.3898L3.698 71.9973C3.584 72.0423 3.4505 72.0903 3.2975 72.1413C3.1415 72.1923 2.9735 72.2433 2.7935 72.2943C2.9765 72.3393 3.146 72.3873 3.302 72.4383C3.458 72.4893 3.593 72.5373 3.707 72.5823L5.4935 73.1853V71.3898ZM8 68.9733V70.1523C8 70.2843 7.97 70.3908 7.91 70.4718C7.847 70.5528 7.7675 70.6143 7.6715 70.6563L6.5285 71.0433V73.5363L7.6715 73.9233C7.7555 73.9563 7.832 74.0163 7.901 74.1033C7.967 74.1873 8 74.2923 8 74.4183V75.6063L1.4435 73.0683V71.5113L8 68.9733ZM4.7195 62.5073C5.1935 62.5073 5.6315 62.5898 6.0335 62.7548C6.4325 62.9168 6.779 63.1463 7.073 63.4433C7.364 63.7403 7.592 64.0988 7.757 64.5188C7.919 64.9358 8 65.3993 8 65.9093V68.4563H1.4435L1.4435 65.9093C1.4435 65.3993 1.526 64.9358 1.691 64.5188C1.856 64.0988 2.084 63.7403 2.375 63.4433C2.666 63.1463 3.0125 62.9168 3.4145 62.7548C3.8135 62.5898 4.2485 62.5073 4.7195 62.5073ZM4.7195 64.0643C4.3955 64.0643 4.103 64.1063 3.842 64.1903C3.581 64.2743 3.3605 64.3958 3.1805 64.5548C2.9975 64.7108 2.858 64.9028 2.762 65.1308C2.663 65.3588 2.6135 65.6183 2.6135 65.9093V66.9263H6.83V65.9093C6.83 65.6183 6.782 65.3588 6.686 65.1308C6.587 64.9028 6.4475 64.7108 6.2675 64.5548C6.0845 64.3958 5.8625 64.2743 5.6015 64.1903C5.3405 64.1063 5.0465 64.0643 4.7195 64.0643ZM4.7195 55.6606C5.1935 55.6606 5.6315 55.7431 6.0335 55.9081C6.4325 56.0701 6.779 56.2996 7.073 56.5966C7.364 56.8936 7.592 57.2521 7.757 57.6721C7.919 58.0891 8 58.5526 8 59.0626L8 61.6096H1.4435L1.4435 59.0626C1.4435 58.5526 1.526 58.0891 1.691 57.6721C1.856 57.2521 2.084 56.8936 2.375 56.5966C2.666 56.2996 3.0125 56.0701 3.4145 55.9081C3.8135 55.7431 4.2485 55.6606 4.7195 55.6606ZM4.7195 57.2176C4.3955 57.2176 4.103 57.2596 3.842 57.3436C3.581 57.4276 3.3605 57.5491 3.1805 57.7081C2.9975 57.8641 2.858 58.0561 2.762 58.2841C2.663 58.5121 2.6135 58.7716 2.6135 59.0626V60.0796H6.83V59.0626C6.83 58.7716 6.782 58.5121 6.686 58.2841C6.587 58.0561 6.4475 57.8641 6.2675 57.7081C6.0845 57.5491 5.8625 57.4276 5.6015 57.3436C5.3405 57.2596 5.0465 57.2176 4.7195 57.2176ZM8 53.233V54.763H1.4435V53.233H8ZM1.4435 46.244H8V47.036C8 47.153 7.982 47.252 7.946 47.333C7.907 47.411 7.841 47.489 7.748 47.567L3.8375 50.6585C3.9545 50.6465 4.0685 50.639 4.1795 50.636C4.2875 50.63 4.3895 50.627 4.4855 50.627H8V51.968H1.4435V51.167C1.4435 51.101 1.4465 51.0455 1.4525 51.0005C1.4585 50.9555 1.4705 50.915 1.4885 50.879C1.5035 50.843 1.526 50.8085 1.556 50.7755C1.586 50.7425 1.6265 50.705 1.6775 50.663L5.615 47.5445C5.489 47.5595 5.3675 47.57 5.2505 47.576C5.1305 47.582 5.018 47.585 4.913 47.585H1.4435V46.244ZM4.6025 41.8219L4.6025 39.4909H7.37C7.616 39.8269 7.7945 40.1854 7.9055 40.5664C8.0165 40.9444 8.072 41.3404 8.072 41.7544C8.072 42.2944 7.988 42.7864 7.82 43.2304C7.649 43.6714 7.415 44.0494 7.118 44.3644C6.818 44.6794 6.464 44.9224 6.056 45.0934C5.645 45.2644 5.1995 45.3499 4.7195 45.3499C4.2305 45.3499 3.782 45.2689 3.374 45.1069C2.963 44.9449 2.609 44.7139 2.312 44.4139C2.015 44.1109 1.784 43.7464 1.619 43.3204C1.454 42.8914 1.3715 42.4129 1.3715 41.8849C1.3715 41.6119 1.394 41.3554 1.439 41.1154C1.484 40.8754 1.5455 40.6549 1.6235 40.4539C1.7015 40.2499 1.7945 40.0639 1.9025 39.8959C2.0105 39.7279 2.1275 39.5779 2.2535 39.4459L2.924 39.8869C3.029 39.9559 3.0935 40.0459 3.1175 40.1569C3.1415 40.2649 3.1145 40.3819 3.0365 40.5079C2.9645 40.6279 2.903 40.7419 2.852 40.8499C2.798 40.9549 2.7545 41.0629 2.7215 41.1739C2.6885 41.2849 2.6645 41.4019 2.6495 41.5249C2.6345 41.6479 2.627 41.7859 2.627 41.9389C2.627 42.2239 2.678 42.4804 2.78 42.7084C2.879 42.9364 3.02 43.1314 3.203 43.2934C3.386 43.4524 3.6065 43.5754 3.8645 43.6624C4.1195 43.7494 4.4045 43.7929 4.7195 43.7929C5.0675 43.7929 5.3765 43.7449 5.6465 43.6489C5.9165 43.5529 6.1445 43.4179 6.3305 43.2439C6.5165 43.0669 6.659 42.8569 6.758 42.6139C6.854 42.3679 6.902 42.0964 6.902 41.7994C6.902 41.6164 6.884 41.4514 6.848 41.3044C6.812 41.1544 6.764 41.0089 6.704 40.8679H5.7095V41.5159C5.7095 41.6119 5.684 41.6869 5.633 41.7409C5.582 41.7949 5.5175 41.8219 5.4395 41.8219H4.6025Z" fill="#007BFF" fill-opacity="0.7"/>
<path d="M280 0H336C338.209 0 340 1.79086 340 4V224C340 226.209 338.209 228 336 228H280V0Z" fill="#007BFF" fill-opacity="0.2"/>
<rect x="338" y="103" width="2" height="10" fill="#007BFF" fill-opacity="0.5"/>
<rect x="282" y="107" width="56" height="2" fill="#007BFF" fill-opacity="0.5"/>
<rect x="280" y="103" width="2" height="10" fill="#007BFF" fill-opacity="0.5"/>
<path d="M295.751 115.775C295.706 115.847 295.658 115.901 295.607 115.938C295.559 115.973 295.496 115.991 295.418 115.991C295.349 115.991 295.274 115.97 295.193 115.928C295.115 115.883 295.025 115.834 294.923 115.78C294.824 115.726 294.71 115.678 294.581 115.636C294.452 115.591 294.305 115.568 294.14 115.568C293.855 115.568 293.642 115.63 293.501 115.753C293.363 115.873 293.294 116.036 293.294 116.243C293.294 116.375 293.336 116.485 293.42 116.572C293.504 116.659 293.613 116.734 293.748 116.797C293.886 116.86 294.042 116.918 294.216 116.972C294.393 117.023 294.573 117.082 294.756 117.148C294.939 117.211 295.118 117.286 295.292 117.373C295.469 117.46 295.625 117.571 295.76 117.706C295.898 117.841 296.009 118.006 296.093 118.201C296.177 118.393 296.219 118.625 296.219 118.898C296.219 119.201 296.166 119.485 296.061 119.749C295.956 120.013 295.803 120.244 295.602 120.442C295.404 120.637 295.158 120.791 294.864 120.905C294.573 121.016 294.242 121.072 293.87 121.072C293.666 121.072 293.457 121.051 293.244 121.009C293.034 120.967 292.83 120.908 292.632 120.833C292.434 120.755 292.248 120.664 292.074 120.559C291.9 120.454 291.749 120.337 291.62 120.208L292.07 119.497C292.106 119.446 292.152 119.404 292.209 119.371C292.269 119.335 292.334 119.317 292.403 119.317C292.493 119.317 292.583 119.345 292.673 119.402C292.766 119.459 292.869 119.522 292.983 119.591C293.1 119.66 293.234 119.723 293.384 119.78C293.534 119.837 293.711 119.866 293.915 119.866C294.191 119.866 294.405 119.806 294.558 119.686C294.711 119.563 294.788 119.369 294.788 119.105C294.788 118.952 294.746 118.828 294.662 118.732C294.578 118.636 294.467 118.556 294.329 118.493C294.194 118.43 294.039 118.375 293.865 118.327C293.691 118.279 293.513 118.226 293.33 118.169C293.147 118.109 292.968 118.037 292.794 117.953C292.62 117.866 292.464 117.754 292.326 117.616C292.191 117.475 292.082 117.301 291.998 117.094C291.914 116.884 291.872 116.626 291.872 116.32C291.872 116.074 291.921 115.834 292.02 115.6C292.119 115.366 292.265 115.157 292.457 114.974C292.649 114.791 292.884 114.646 293.163 114.538C293.442 114.427 293.762 114.371 294.122 114.371C294.323 114.371 294.518 114.388 294.707 114.421C294.899 114.451 295.08 114.497 295.251 114.56C295.422 114.62 295.581 114.694 295.728 114.781C295.878 114.865 296.012 114.961 296.129 115.069L295.751 115.775ZM298.642 121H297.112V114.443H298.642V121ZM305.855 117.719C305.855 118.193 305.773 118.631 305.608 119.033C305.446 119.432 305.216 119.779 304.919 120.073C304.622 120.364 304.264 120.592 303.844 120.757C303.427 120.919 302.963 121 302.453 121H299.906V114.443H302.453C302.963 114.443 303.427 114.526 303.844 114.691C304.264 114.856 304.622 115.084 304.919 115.375C305.216 115.666 305.446 116.012 305.608 116.414C305.773 116.813 305.855 117.248 305.855 117.719ZM304.298 117.719C304.298 117.395 304.256 117.103 304.172 116.842C304.088 116.581 303.967 116.36 303.808 116.18C303.652 115.997 303.46 115.858 303.232 115.762C303.004 115.663 302.744 115.613 302.453 115.613H301.436V119.83H302.453C302.744 119.83 303.004 119.782 303.232 119.686C303.46 119.587 303.652 119.447 303.808 119.267C303.967 119.084 304.088 118.862 304.172 118.601C304.256 118.34 304.298 118.046 304.298 117.719ZM308.283 115.613V117.143H310.344V118.268H308.283V119.83H310.974V121H306.753V114.443H310.974V115.613H308.283ZM314.504 119.852C314.705 119.852 314.869 119.827 314.995 119.776C315.124 119.725 315.224 119.659 315.296 119.578C315.368 119.497 315.418 119.405 315.445 119.303C315.472 119.201 315.485 119.098 315.485 118.993C315.485 118.873 315.469 118.765 315.436 118.669C315.406 118.573 315.352 118.492 315.274 118.426C315.199 118.36 315.098 118.309 314.972 118.273C314.846 118.237 314.687 118.219 314.495 118.219H313.433V119.852H314.504ZM313.433 115.582V117.202H314.225C314.393 117.202 314.545 117.19 314.68 117.166C314.815 117.142 314.929 117.1 315.022 117.04C315.118 116.98 315.19 116.897 315.238 116.792C315.289 116.687 315.314 116.555 315.314 116.396C315.314 116.24 315.295 116.111 315.256 116.009C315.217 115.904 315.157 115.82 315.076 115.757C314.995 115.694 314.891 115.649 314.765 115.622C314.642 115.595 314.495 115.582 314.324 115.582H313.433ZM314.324 114.443C314.777 114.443 315.163 114.485 315.481 114.569C315.799 114.653 316.058 114.772 316.259 114.925C316.46 115.078 316.606 115.264 316.696 115.483C316.789 115.702 316.835 115.946 316.835 116.216C316.835 116.363 316.814 116.506 316.772 116.644C316.73 116.779 316.664 116.906 316.574 117.026C316.484 117.143 316.369 117.251 316.228 117.35C316.087 117.449 315.917 117.535 315.719 117.607C316.151 117.712 316.471 117.881 316.678 118.115C316.885 118.349 316.988 118.652 316.988 119.024C316.988 119.303 316.934 119.563 316.826 119.803C316.718 120.043 316.559 120.253 316.349 120.433C316.142 120.61 315.886 120.749 315.58 120.852C315.274 120.951 314.924 121 314.531 121H311.912V114.443H314.324ZM321.292 118.493L320.685 116.698C320.64 116.584 320.592 116.45 320.541 116.297C320.49 116.141 320.439 115.973 320.388 115.793C320.343 115.976 320.295 116.146 320.244 116.302C320.193 116.458 320.145 116.593 320.1 116.707L319.497 118.493H321.292ZM323.709 121H322.53C322.398 121 322.291 120.97 322.21 120.91C322.129 120.847 322.068 120.767 322.026 120.671L321.639 119.528H319.146L318.759 120.671C318.726 120.755 318.666 120.832 318.579 120.901C318.495 120.967 318.39 121 318.264 121H317.076L319.614 114.443H321.171L323.709 121ZM326.359 117.526C326.566 117.526 326.741 117.5 326.885 117.449C327.032 117.395 327.152 117.322 327.245 117.229C327.338 117.136 327.406 117.028 327.448 116.905C327.49 116.779 327.511 116.644 327.511 116.5C327.511 116.212 327.416 115.987 327.227 115.825C327.041 115.663 326.752 115.582 326.359 115.582H325.747V117.526H326.359ZM329.59 121H328.213C327.958 121 327.775 120.904 327.664 120.712L326.575 118.808C326.524 118.727 326.467 118.669 326.404 118.633C326.341 118.594 326.251 118.574 326.134 118.574H325.747V121H324.226V114.443H326.359C326.833 114.443 327.236 114.493 327.569 114.592C327.905 114.688 328.178 114.823 328.388 114.997C328.601 115.171 328.756 115.376 328.852 115.613C328.948 115.85 328.996 116.108 328.996 116.387C328.996 116.6 328.967 116.801 328.91 116.99C328.853 117.179 328.769 117.355 328.658 117.517C328.547 117.676 328.409 117.818 328.244 117.944C328.082 118.07 327.895 118.174 327.682 118.255C327.781 118.306 327.874 118.37 327.961 118.448C328.048 118.523 328.126 118.613 328.195 118.718L329.59 121Z" fill="#007BFF" fill-opacity="0.7"/>
<rect x="8" y="109" width="2" height="10" fill="#007BFF" fill-opacity="0.5"/>
<rect x="2" y="113" width="6" height="2" fill="#007BFF" fill-opacity="0.5"/>
<rect y="109" width="2" height="10" fill="#007BFF" fill-opacity="0.5"/>
<rect x="135" width="10" height="2" fill="#007BFF" fill-opacity="0.5"/>
<rect x="135" y="8" width="10" height="2" fill="#007BFF" fill-opacity="0.5"/>
<rect x="139" y="2" width="2" height="6" fill="#007BFF" fill-opacity="0.5"/>
<path d="M188.449 77.1025H190.78V79.87C190.444 80.116 190.086 80.2945 189.705 80.4055C189.327 80.5165 188.931 80.572 188.517 80.572C187.977 80.572 187.485 80.488 187.041 80.32C186.6 80.149 186.222 79.915 185.907 79.618C185.592 79.318 185.349 78.964 185.178 78.556C185.007 78.145 184.921 77.6995 184.921 77.2195C184.921 76.7305 185.002 76.282 185.164 75.874C185.326 75.463 185.557 75.109 185.857 74.812C186.16 74.515 186.525 74.284 186.951 74.119C187.38 73.954 187.858 73.8715 188.386 73.8715C188.659 73.8715 188.916 73.894 189.156 73.939C189.396 73.984 189.616 74.0455 189.817 74.1235C190.021 74.2015 190.207 74.2945 190.375 74.4025C190.543 74.5105 190.693 74.6275 190.825 74.7535L190.384 75.424C190.315 75.529 190.225 75.5935 190.114 75.6175C190.006 75.6415 189.889 75.6145 189.763 75.5365C189.643 75.4645 189.529 75.403 189.421 75.352C189.316 75.298 189.208 75.2545 189.097 75.2215C188.986 75.1885 188.869 75.1645 188.746 75.1495C188.623 75.1345 188.485 75.127 188.332 75.127C188.047 75.127 187.791 75.178 187.563 75.28C187.335 75.379 187.14 75.52 186.978 75.703C186.819 75.886 186.696 76.1065 186.609 76.3645C186.522 76.6195 186.478 76.9045 186.478 77.2195C186.478 77.5675 186.526 77.8765 186.622 78.1465C186.718 78.4165 186.853 78.6445 187.027 78.8305C187.204 79.0165 187.414 79.159 187.657 79.258C187.903 79.354 188.175 79.402 188.472 79.402C188.655 79.402 188.82 79.384 188.967 79.348C189.117 79.312 189.262 79.264 189.403 79.204V78.2095H188.755C188.659 78.2095 188.584 78.184 188.53 78.133C188.476 78.082 188.449 78.0175 188.449 77.9395V77.1025ZM193.936 77.026C194.143 77.026 194.318 77.0005 194.462 76.9495C194.609 76.8955 194.729 76.822 194.822 76.729C194.915 76.636 194.983 76.528 195.025 76.405C195.067 76.279 195.088 76.144 195.088 76C195.088 75.712 194.993 75.487 194.804 75.325C194.618 75.163 194.329 75.082 193.936 75.082H193.324V77.026H193.936ZM197.167 80.5H195.79C195.535 80.5 195.352 80.404 195.241 80.212L194.152 78.3085C194.101 78.2275 194.044 78.169 193.981 78.133C193.918 78.094 193.828 78.0745 193.711 78.0745H193.324V80.5H191.803V73.9435H193.936C194.41 73.9435 194.813 73.993 195.146 74.092C195.482 74.188 195.755 74.323 195.965 74.497C196.178 74.671 196.333 74.8765 196.429 75.1135C196.525 75.3505 196.573 75.6085 196.573 75.8875C196.573 76.1005 196.544 76.3015 196.487 76.4905C196.43 76.6795 196.346 76.855 196.235 77.017C196.124 77.176 195.986 77.3185 195.821 77.4445C195.659 77.5705 195.472 77.674 195.259 77.755C195.358 77.806 195.451 77.8705 195.538 77.9485C195.625 78.0235 195.703 78.1135 195.772 78.2185L197.167 80.5ZM199.248 80.5H197.718V73.9435H199.248V80.5ZM206.462 77.2195C206.462 77.6935 206.379 78.1315 206.214 78.5335C206.052 78.9325 205.823 79.279 205.526 79.573C205.229 79.864 204.87 80.092 204.45 80.257C204.033 80.419 203.57 80.5 203.06 80.5H200.513V73.9435H203.06C203.57 73.9435 204.033 74.026 204.45 74.191C204.87 74.356 205.229 74.584 205.526 74.875C205.823 75.166 206.052 75.5125 206.214 75.9145C206.379 76.3135 206.462 76.7485 206.462 77.2195ZM204.905 77.2195C204.905 76.8955 204.863 76.603 204.779 76.342C204.695 76.081 204.573 75.8605 204.414 75.6805C204.258 75.4975 204.066 75.358 203.838 75.262C203.61 75.163 203.351 75.1135 203.06 75.1135H202.043V79.33H203.06C203.351 79.33 203.61 79.282 203.838 79.186C204.066 79.087 204.258 78.9475 204.414 78.7675C204.573 78.5845 204.695 78.3625 204.779 78.1015C204.863 77.8405 204.905 77.5465 204.905 77.2195ZM212.593 77.1025H214.924V79.87C214.588 80.116 214.229 80.2945 213.848 80.4055C213.47 80.5165 213.074 80.572 212.66 80.572C212.12 80.572 211.628 80.488 211.184 80.32C210.743 80.149 210.365 79.915 210.05 79.618C209.735 79.318 209.492 78.964 209.321 78.556C209.15 78.145 209.065 77.6995 209.065 77.2195C209.065 76.7305 209.146 76.282 209.308 75.874C209.47 75.463 209.701 75.109 210.001 74.812C210.304 74.515 210.668 74.284 211.094 74.119C211.523 73.954 212.002 73.8715 212.53 73.8715C212.803 73.8715 213.059 73.894 213.299 73.939C213.539 73.984 213.76 74.0455 213.961 74.1235C214.165 74.2015 214.351 74.2945 214.519 74.4025C214.687 74.5105 214.837 74.6275 214.969 74.7535L214.528 75.424C214.459 75.529 214.369 75.5935 214.258 75.6175C214.15 75.6415 214.033 75.6145 213.907 75.5365C213.787 75.4645 213.673 75.403 213.565 75.352C213.46 75.298 213.352 75.2545 213.241 75.2215C213.13 75.1885 213.013 75.1645 212.89 75.1495C212.767 75.1345 212.629 75.127 212.476 75.127C212.191 75.127 211.934 75.178 211.706 75.28C211.478 75.379 211.283 75.52 211.121 75.703C210.962 75.886 210.839 76.1065 210.752 76.3645C210.665 76.6195 210.622 76.9045 210.622 77.2195C210.622 77.5675 210.67 77.8765 210.766 78.1465C210.862 78.4165 210.997 78.6445 211.171 78.8305C211.348 79.0165 211.558 79.159 211.801 79.258C212.047 79.354 212.318 79.402 212.615 79.402C212.798 79.402 212.963 79.384 213.11 79.348C213.26 79.312 213.406 79.264 213.547 79.204V78.2095H212.899C212.803 78.2095 212.728 78.184 212.674 78.133C212.62 78.082 212.593 78.0175 212.593 77.9395V77.1025ZM219.315 77.9935L218.707 76.198C218.662 76.084 218.614 75.9505 218.563 75.7975C218.512 75.6415 218.461 75.4735 218.41 75.2935C218.365 75.4765 218.317 75.646 218.266 75.802C218.215 75.958 218.167 76.093 218.122 76.207L217.519 77.9935H219.315ZM221.731 80.5H220.552C220.42 80.5 220.314 80.47 220.233 80.41C220.152 80.347 220.09 80.2675 220.048 80.1715L219.661 79.0285H217.168L216.781 80.1715C216.748 80.2555 216.688 80.332 216.601 80.401C216.517 80.467 216.412 80.5 216.286 80.5H215.098L217.636 73.9435H219.193L221.731 80.5ZM224.561 77.161C224.957 77.161 225.242 77.0665 225.416 76.8775C225.59 76.6885 225.677 76.4245 225.677 76.0855C225.677 75.9355 225.655 75.799 225.61 75.676C225.565 75.553 225.496 75.448 225.403 75.361C225.313 75.271 225.197 75.202 225.056 75.154C224.918 75.106 224.753 75.082 224.561 75.082H223.769V77.161H224.561ZM224.561 73.9435C225.023 73.9435 225.419 73.999 225.749 74.11C226.082 74.218 226.355 74.368 226.568 74.56C226.784 74.752 226.943 74.9785 227.045 75.2395C227.147 75.5005 227.198 75.7825 227.198 76.0855C227.198 76.4125 227.146 76.7125 227.041 76.9855C226.936 77.2585 226.775 77.4925 226.559 77.6875C226.343 77.8825 226.069 78.0355 225.736 78.1465C225.406 78.2545 225.014 78.3085 224.561 78.3085H223.769V80.5H222.248V73.9435H224.561Z" fill="#007BFF" fill-opacity="0.7"/>
<rect x="171" y="72.5" width="10" height="2" fill="#007BFF" fill-opacity="0.5"/>
<rect x="171" y="80.5" width="10" height="2" fill="#007BFF" fill-opacity="0.5"/>
<rect x="175" y="74.5" width="2" height="6" fill="#007BFF" fill-opacity="0.5"/>
<rect x="24.5" y="10.5" width="110" height="61.4375" rx="3.5" stroke="#007BFF" stroke-opacity="0.4" stroke-dasharray="2 2"/>
<rect x="24.5" y="82.9375" width="110" height="61.4375" rx="3.5" stroke="#007BFF" stroke-opacity="0.4" stroke-dasharray="2 2"/>
<rect x="24.5" y="155.375" width="110" height="61.4375" rx="3.5" stroke="#007BFF" stroke-opacity="0.4" stroke-dasharray="2 2"/>
<rect x="145.5" y="10.5" width="110" height="61.4375" rx="3.5" stroke="#007BFF" stroke-opacity="0.4" stroke-dasharray="2 2"/>
<rect x="145.5" y="82.9375" width="110" height="61.4375" rx="3.5" stroke="#007BFF" stroke-opacity="0.4" stroke-dasharray="2 2"/>
<rect x="145.5" y="155.375" width="110" height="61.4375" rx="3.5" stroke="#007BFF" stroke-opacity="0.4" stroke-dasharray="2 2"/>
</svg>
