<svg width="360" height="208" viewBox="0 0 360 208" fill="none" xmlns="http://www.w3.org/2000/svg">
<path d="M0 0H280V208H3.99999C1.79085 208 0 206.209 0 204V0Z" fill="#007BFF" fill-opacity="0.1"/>
<rect x="10" y="10" width="260" height="187" rx="4" fill="white"/>
<path d="M280 0H340V204C340 206.209 338.209 208 336 208H280V0Z" fill="#007BFF" fill-opacity="0.2"/>
<rect x="10.5" y="10.5" width="98" height="54.6875" rx="1.5" stroke="#007BFF" stroke-dasharray="2 2"/>
<rect x="10.5" y="76.1875" width="98" height="54.6875" rx="1.5" stroke="#007BFF" stroke-dasharray="2 2"/>
<rect x="10.5" y="141.875" width="98" height="54.6875" rx="1.5" stroke="#007BFF" stroke-dasharray="2 2"/>
<rect x="228.5" y="10.5" width="98" height="54.6875" rx="1.5" stroke="#007BFF" stroke-dasharray="2 2"/>
<rect x="119.5" y="10.5" width="98" height="54.6875" rx="1.5" stroke="#007BFF" stroke-dasharray="2 2"/>
<rect x="119.5" y="76.1875" width="98" height="54.6875" rx="1.5" stroke="#007BFF" stroke-dasharray="2 2"/>
<rect x="119.5" y="141.875" width="98" height="54.6875" rx="1.5" stroke="#007BFF" stroke-dasharray="2 2"/>
<rect x="228.5" y="76.1875" width="98" height="54.6875" rx="1.5" stroke="#007BFF" stroke-dasharray="2 2"/>
<rect x="350" y="10" width="10" height="2" fill="#007BFF" fill-opacity="0.5"/>
<rect x="350" y="195" width="10" height="2" fill="#007BFF" fill-opacity="0.5"/>
<rect x="354" y="12" width="2" height="183" fill="#007BFF" fill-opacity="0.5"/>
<rect x="350" y="137" width="66" height="10" transform="rotate(-90 350 137)" fill="white"/>
<path d="M351.443 126.4L358 129.028V130.405L351.443 133.033V131.809C351.443 131.677 351.475 131.571 351.538 131.49C351.598 131.409 351.676 131.347 351.772 131.305L355.282 130.036C355.435 129.976 355.603 129.918 355.786 129.861C355.966 129.804 356.155 129.75 356.353 129.699C356.155 129.657 355.966 129.61 355.786 129.559C355.603 129.505 355.435 129.448 355.282 129.388L351.772 128.128C351.688 128.095 351.613 128.037 351.547 127.953C351.478 127.866 351.443 127.759 351.443 127.633V126.4ZM352.613 124.353H354.143V122.292H355.268V124.353H356.83V121.662H358V125.883H351.443V121.662H352.613V124.353ZM354.526 118.591C354.526 118.384 354.5 118.208 354.449 118.064C354.395 117.917 354.322 117.797 354.229 117.704C354.136 117.611 354.028 117.544 353.905 117.502C353.779 117.46 353.644 117.439 353.5 117.439C353.212 117.439 352.987 117.533 352.825 117.722C352.663 117.908 352.582 118.198 352.582 118.591V119.203H354.526V118.591ZM358 115.36V116.737C358 116.992 357.904 117.175 357.712 117.286L355.808 118.375C355.727 118.426 355.669 118.483 355.633 118.546C355.594 118.609 355.574 118.699 355.574 118.816V119.203H358V120.724H351.443V118.591C351.443 118.117 351.493 117.713 351.592 117.38C351.688 117.044 351.823 116.771 351.997 116.561C352.171 116.348 352.376 116.194 352.613 116.098C352.85 116.002 353.108 115.954 353.387 115.954C353.6 115.954 353.801 115.982 353.99 116.039C354.179 116.096 354.355 116.18 354.517 116.291C354.676 116.402 354.818 116.54 354.944 116.705C355.07 116.867 355.174 117.055 355.255 117.268C355.306 117.169 355.37 117.076 355.448 116.989C355.523 116.902 355.613 116.824 355.718 116.755L358 115.36ZM352.649 110.229V112.074H358V113.595H352.649V115.44H351.443V110.229H352.649ZM358 107.926V109.456H351.443V107.926H358ZM356.303 102.242C356.303 102.206 356.311 102.17 356.326 102.134C356.338 102.098 356.36 102.064 356.393 102.031L357.028 101.428C357.373 101.692 357.634 102.023 357.811 102.422C357.985 102.818 358.072 103.288 358.072 103.831C358.072 104.329 357.988 104.776 357.82 105.172C357.649 105.565 357.415 105.899 357.118 106.175C356.818 106.448 356.464 106.658 356.056 106.805C355.645 106.952 355.199 107.026 354.719 107.026C354.23 107.026 353.782 106.946 353.374 106.787C352.963 106.628 352.609 106.405 352.312 106.117C352.015 105.829 351.784 105.484 351.619 105.082C351.454 104.68 351.371 104.237 351.371 103.754C351.371 103.508 351.394 103.277 351.439 103.061C351.481 102.842 351.541 102.638 351.619 102.449C351.694 102.26 351.785 102.086 351.893 101.927C352.001 101.768 352.118 101.627 352.244 101.504L352.933 102.017C352.975 102.05 353.014 102.089 353.05 102.134C353.083 102.179 353.099 102.242 353.099 102.323C353.099 102.377 353.087 102.428 353.063 102.476C353.039 102.524 353.011 102.575 352.978 102.629C352.942 102.683 352.904 102.743 352.865 102.809C352.823 102.872 352.786 102.949 352.753 103.039C352.717 103.126 352.687 103.229 352.663 103.349C352.639 103.466 352.627 103.604 352.627 103.763C352.627 104.015 352.673 104.246 352.766 104.456C352.859 104.663 352.996 104.843 353.176 104.996C353.353 105.146 353.572 105.263 353.833 105.347C354.091 105.428 354.386 105.469 354.719 105.469C355.055 105.469 355.354 105.424 355.615 105.334C355.876 105.241 356.096 105.116 356.276 104.96C356.453 104.801 356.588 104.617 356.681 104.407C356.774 104.197 356.821 103.972 356.821 103.732C356.821 103.594 356.815 103.468 356.803 103.354C356.788 103.24 356.765 103.133 356.735 103.034C356.702 102.935 356.66 102.842 356.609 102.755C356.555 102.668 356.488 102.58 356.407 102.49C356.377 102.454 356.353 102.415 356.335 102.373C356.314 102.331 356.303 102.287 356.303 102.242ZM355.493 97.2989L353.698 97.9064C353.584 97.9514 353.45 97.9994 353.297 98.0504C353.141 98.1014 352.973 98.1524 352.793 98.2034C352.976 98.2484 353.146 98.2964 353.302 98.3474C353.458 98.3984 353.593 98.4464 353.707 98.4914L355.493 99.0944V97.2989ZM358 94.8824V96.0614C358 96.1934 357.97 96.2999 357.91 96.3809C357.847 96.4619 357.767 96.5234 357.671 96.5654L356.528 96.9524V99.4454L357.671 99.8324C357.755 99.8654 357.832 99.9254 357.901 100.012C357.967 100.096 358 100.201 358 100.327V101.515L351.443 98.9774V97.4204L358 94.8824ZM356.785 90.4145H358V94.3655H351.443V92.8445H356.785V90.4145ZM352.613 86.2964H354.274V84.0554H355.448V86.2964H358V87.8264H351.443V83.6054H352.613V86.2964ZM358 81.1988V82.7288H351.443V81.1988H358ZM352.649 75.2224V77.0674H358V78.5884H352.649V80.4334H351.443V75.2224H352.649Z" fill="#007BFF" fill-opacity="0.7"/>
</svg>
