<svg width="340" height="208" viewBox="0 0 340 208" fill="none" xmlns="http://www.w3.org/2000/svg">
<path d="M0 0H280V208H3.99999C1.79085 208 0 206.209 0 204V0Z" fill="#007BFF" fill-opacity="0.1"/>
<rect x="10" y="10" width="260" height="187" rx="4" fill="white"/>
<path d="M280 0H340V204C340 206.209 338.209 208 336 208H280V0Z" fill="#007BFF" fill-opacity="0.2"/>
<rect x="10.5" y="10.5" width="79" height="44" rx="1.5" stroke="#007BFF" stroke-dasharray="2 2"/>
<rect x="10.5" y="65.5" width="79" height="44" rx="1.5" stroke="#007BFF" stroke-dasharray="2 2"/>
<rect x="10.5" y="120.5" width="79" height="44" rx="1.5" stroke="#007BFF" stroke-dasharray="2 2"/>
<rect x="190.5" y="10.5" width="79" height="44" rx="1.5" stroke="#007BFF" stroke-dasharray="2 2"/>
<rect x="100.5" y="10.5" width="79" height="44" rx="1.5" stroke="#007BFF" stroke-dasharray="2 2"/>
<rect x="100.5" y="65.5" width="79" height="44" rx="1.5" stroke="#007BFF" stroke-dasharray="2 2"/>
<rect x="100.5" y="120.5" width="79" height="44" rx="1.5" stroke="#007BFF" stroke-dasharray="2 2"/>
<rect x="190.5" y="65.5" width="79" height="44" rx="1.5" stroke="#007BFF" stroke-dasharray="2 2"/>
<rect x="268" y="175" width="2" height="10" fill="#007BFF" fill-opacity="0.5"/>
<rect x="12" y="179" width="256" height="2" fill="#007BFF" fill-opacity="0.5"/>
<rect x="10" y="175" width="2" height="10" fill="#007BFF" fill-opacity="0.5"/>
<rect x="99" y="175" width="82" height="10" fill="white"/>
<path d="M109.422 176.443V183H107.892V180.228H105.228V183H103.698V176.443H105.228V179.184H107.892V176.443H109.422ZM117.13 179.719C117.13 180.193 117.047 180.634 116.882 181.042C116.72 181.45 116.491 181.806 116.194 182.109C115.897 182.409 115.538 182.644 115.118 182.815C114.701 182.987 114.238 183.072 113.728 183.072C113.218 183.072 112.753 182.987 112.333 182.815C111.913 182.644 111.553 182.409 111.253 182.109C110.956 181.806 110.725 181.45 110.56 181.042C110.398 180.634 110.317 180.193 110.317 179.719C110.317 179.245 110.398 178.804 110.56 178.396C110.725 177.988 110.956 177.634 111.253 177.334C111.553 177.034 111.913 176.799 112.333 176.628C112.753 176.457 113.218 176.371 113.728 176.371C114.238 176.371 114.701 176.458 115.118 176.632C115.538 176.803 115.897 177.039 116.194 177.339C116.491 177.639 116.72 177.993 116.882 178.401C117.047 178.809 117.13 179.248 117.13 179.719ZM115.573 179.719C115.573 179.395 115.531 179.104 115.447 178.846C115.363 178.585 115.241 178.365 115.082 178.185C114.926 178.005 114.734 177.867 114.506 177.771C114.278 177.675 114.019 177.627 113.728 177.627C113.434 177.627 113.171 177.675 112.94 177.771C112.712 177.867 112.519 178.005 112.36 178.185C112.204 178.365 112.084 178.585 112 178.846C111.916 179.104 111.874 179.395 111.874 179.719C111.874 180.046 111.916 180.34 112 180.601C112.084 180.859 112.204 181.078 112.36 181.258C112.519 181.438 112.712 181.576 112.94 181.672C113.171 181.765 113.434 181.812 113.728 181.812C114.019 181.812 114.278 181.765 114.506 181.672C114.734 181.576 114.926 181.438 115.082 181.258C115.241 181.078 115.363 180.859 115.447 180.601C115.531 180.34 115.573 180.046 115.573 179.719ZM120.158 179.526C120.365 179.526 120.54 179.5 120.684 179.449C120.831 179.395 120.951 179.322 121.044 179.229C121.137 179.136 121.205 179.028 121.247 178.905C121.289 178.779 121.31 178.644 121.31 178.5C121.31 178.212 121.215 177.987 121.026 177.825C120.84 177.663 120.551 177.582 120.158 177.582H119.546V179.526H120.158ZM123.389 183H122.012C121.757 183 121.574 182.904 121.463 182.712L120.374 180.808C120.323 180.727 120.266 180.669 120.203 180.633C120.14 180.594 120.05 180.574 119.933 180.574H119.546V183H118.025V176.443H120.158C120.632 176.443 121.035 176.493 121.368 176.592C121.704 176.688 121.977 176.823 122.187 176.997C122.4 177.171 122.555 177.376 122.651 177.613C122.747 177.85 122.795 178.108 122.795 178.387C122.795 178.6 122.766 178.801 122.709 178.99C122.652 179.179 122.568 179.355 122.457 179.517C122.346 179.676 122.208 179.818 122.043 179.944C121.881 180.07 121.694 180.174 121.481 180.255C121.58 180.306 121.673 180.37 121.76 180.448C121.847 180.523 121.925 180.613 121.994 180.718L123.389 183ZM125.47 183H123.94V176.443H125.47V183ZM131.383 176.992C131.383 177.07 131.37 177.147 131.343 177.222C131.319 177.297 131.284 177.367 131.239 177.433L128.161 181.83H131.284V183H126.226V182.415C126.226 182.346 126.238 182.278 126.262 182.212C126.286 182.143 126.319 182.08 126.361 182.023L129.448 177.613H126.478V176.443H131.383V176.992ZM138.522 179.719C138.522 180.193 138.44 180.634 138.275 181.042C138.113 181.45 137.883 181.806 137.586 182.109C137.289 182.409 136.931 182.644 136.511 182.815C136.094 182.987 135.63 183.072 135.12 183.072C134.61 183.072 134.145 182.987 133.725 182.815C133.305 182.644 132.945 182.409 132.645 182.109C132.348 181.806 132.117 181.45 131.952 181.042C131.79 180.634 131.709 180.193 131.709 179.719C131.709 179.245 131.79 178.804 131.952 178.396C132.117 177.988 132.348 177.634 132.645 177.334C132.945 177.034 133.305 176.799 133.725 176.628C134.145 176.457 134.61 176.371 135.12 176.371C135.63 176.371 136.094 176.458 136.511 176.632C136.931 176.803 137.289 177.039 137.586 177.339C137.883 177.639 138.113 177.993 138.275 178.401C138.44 178.809 138.522 179.248 138.522 179.719ZM136.965 179.719C136.965 179.395 136.923 179.104 136.839 178.846C136.755 178.585 136.634 178.365 136.475 178.185C136.319 178.005 136.127 177.867 135.899 177.771C135.671 177.675 135.411 177.627 135.12 177.627C134.826 177.627 134.564 177.675 134.333 177.771C134.105 177.867 133.911 178.005 133.752 178.185C133.596 178.365 133.476 178.585 133.392 178.846C133.308 179.104 133.266 179.395 133.266 179.719C133.266 180.046 133.308 180.34 133.392 180.601C133.476 180.859 133.596 181.078 133.752 181.258C133.911 181.438 134.105 181.576 134.333 181.672C134.564 181.765 134.826 181.812 135.12 181.812C135.411 181.812 135.671 181.765 135.899 181.672C136.127 181.576 136.319 181.438 136.475 181.258C136.634 181.078 136.755 180.859 136.839 180.601C136.923 180.34 136.965 180.046 136.965 179.719ZM145.141 176.443V183H144.349C144.232 183 144.133 182.982 144.052 182.946C143.974 182.907 143.896 182.841 143.818 182.748L140.727 178.837C140.739 178.954 140.746 179.068 140.749 179.179C140.755 179.287 140.758 179.389 140.758 179.485V183H139.417V176.443H140.218C140.284 176.443 140.34 176.446 140.385 176.452C140.43 176.458 140.47 176.47 140.506 176.488C140.542 176.503 140.577 176.526 140.61 176.556C140.643 176.586 140.68 176.626 140.722 176.677L143.841 180.615C143.826 180.489 143.815 180.367 143.809 180.25C143.803 180.13 143.8 180.018 143.8 179.913V176.443H145.141ZM151.125 177.649H149.28V183H147.759V177.649H145.914V176.443H151.125V177.649ZM154.721 180.493L154.114 178.698C154.069 178.584 154.021 178.45 153.97 178.297C153.919 178.141 153.868 177.973 153.817 177.793C153.772 177.976 153.724 178.146 153.673 178.302C153.622 178.458 153.574 178.593 153.529 178.707L152.926 180.493H154.721ZM157.138 183H155.959C155.827 183 155.72 182.97 155.639 182.91C155.558 182.847 155.497 182.767 155.455 182.671L155.068 181.528H152.575L152.188 182.671C152.155 182.755 152.095 182.832 152.008 182.901C151.924 182.967 151.819 183 151.693 183H150.505L153.043 176.443H154.6L157.138 183ZM161.606 181.785V183H157.655V176.443H159.176V181.785H161.606ZM165.724 177.613V179.274H167.965V180.448H165.724V183H164.194V176.443H168.415V177.613H165.724ZM170.821 183H169.291V176.443H170.821V183ZM176.798 177.649H174.953V183H173.432V177.649H171.587V176.443H176.798V177.649Z" fill="#007BFF" fill-opacity="0.7"/>
</svg>
