<svg width="356" height="243" viewBox="0 0 356 243" fill="none" xmlns="http://www.w3.org/2000/svg">
<rect width="356" height="243" rx="4" fill="white"/>
<rect width="340" height="228" rx="4" fill="#007BFF" fill-opacity="0.1"/>
<path d="M0 4C0 1.79086 1.79086 0 4 0H336C338.209 0 340 1.79086 340 4V20H0V4Z" fill="#007BFF" fill-opacity="0.2"/>
<circle cx="10" cy="10" r="4" fill="#007BFF" fill-opacity="0.4"/>
<circle cx="22" cy="10" r="4" fill="#007BFF" fill-opacity="0.4"/>
<circle cx="34" cy="10" r="4" fill="#007BFF" fill-opacity="0.4"/>
<rect x="97" y="4" width="146" height="12" rx="2" fill="white" fill-opacity="0.6"/>
<path d="M326 7C326 6.44772 326.448 6 327 6H340V20H326V7Z" fill="#007BFF" fill-opacity="0.2"/>
<path fill-rule="evenodd" clip-rule="evenodd" d="M334 9H332V12H329V14H332V17H334V14H337V12H334V9Z" fill="#007BFF" fill-opacity="0.4"/>
<rect y="232" width="2" height="10" fill="#007BFF" fill-opacity="0.5"/>
<rect x="338" y="232" width="2" height="10" fill="#007BFF" fill-opacity="0.5"/>
<rect x="2" y="236" width="336" height="2" fill="#007BFF" fill-opacity="0.5"/>
<rect x="127" y="232" width="87" height="11" fill="white"/>
<path d="M134.642 239.852C134.843 239.852 135.006 239.827 135.132 239.776C135.261 239.725 135.362 239.659 135.434 239.578C135.506 239.497 135.555 239.405 135.582 239.303C135.609 239.201 135.623 239.098 135.623 238.993C135.623 238.873 135.606 238.765 135.573 238.669C135.543 238.573 135.489 238.492 135.411 238.426C135.336 238.36 135.236 238.309 135.11 238.273C134.984 238.237 134.825 238.219 134.633 238.219H133.571V239.852H134.642ZM133.571 235.582V237.202H134.363C134.531 237.202 134.682 237.19 134.817 237.166C134.952 237.142 135.066 237.1 135.159 237.04C135.255 236.98 135.327 236.897 135.375 236.792C135.426 236.687 135.452 236.555 135.452 236.396C135.452 236.24 135.432 236.111 135.393 236.009C135.354 235.904 135.294 235.82 135.213 235.757C135.132 235.694 135.029 235.649 134.903 235.622C134.78 235.595 134.633 235.582 134.462 235.582H133.571ZM134.462 234.443C134.915 234.443 135.3 234.485 135.618 234.569C135.936 234.653 136.196 234.772 136.397 234.925C136.598 235.078 136.743 235.264 136.833 235.483C136.926 235.702 136.973 235.946 136.973 236.216C136.973 236.363 136.952 236.506 136.91 236.644C136.868 236.779 136.802 236.906 136.712 237.026C136.622 237.143 136.506 237.251 136.365 237.35C136.224 237.449 136.055 237.535 135.857 237.607C136.289 237.712 136.608 237.881 136.815 238.115C137.022 238.349 137.126 238.652 137.126 239.024C137.126 239.303 137.072 239.563 136.964 239.803C136.856 240.043 136.697 240.253 136.487 240.433C136.28 240.61 136.023 240.749 135.717 240.852C135.411 240.951 135.062 241 134.669 241H132.05V234.443H134.462ZM140.212 237.526C140.419 237.526 140.594 237.5 140.738 237.449C140.885 237.395 141.005 237.322 141.098 237.229C141.191 237.136 141.259 237.028 141.301 236.905C141.343 236.779 141.364 236.644 141.364 236.5C141.364 236.212 141.269 235.987 141.08 235.825C140.894 235.663 140.605 235.582 140.212 235.582H139.6V237.526H140.212ZM143.443 241H142.066C141.811 241 141.628 240.904 141.517 240.712L140.428 238.808C140.377 238.727 140.32 238.669 140.257 238.633C140.194 238.594 140.104 238.574 139.987 238.574H139.6V241H138.079V234.443H140.212C140.686 234.443 141.089 234.493 141.422 234.592C141.758 234.688 142.031 234.823 142.241 234.997C142.454 235.171 142.609 235.376 142.705 235.613C142.801 235.85 142.849 236.108 142.849 236.387C142.849 236.6 142.82 236.801 142.763 236.99C142.706 237.179 142.622 237.355 142.511 237.517C142.4 237.676 142.262 237.818 142.097 237.944C141.935 238.07 141.748 238.174 141.535 238.255C141.634 238.306 141.727 238.37 141.814 238.448C141.901 238.523 141.979 238.613 142.048 238.718L143.443 241ZM150.315 237.719C150.315 238.193 150.232 238.634 150.067 239.042C149.905 239.45 149.676 239.806 149.379 240.109C149.082 240.409 148.723 240.644 148.303 240.815C147.886 240.987 147.423 241.072 146.913 241.072C146.403 241.072 145.938 240.987 145.518 240.815C145.098 240.644 144.738 240.409 144.438 240.109C144.141 239.806 143.91 239.45 143.745 239.042C143.583 238.634 143.502 238.193 143.502 237.719C143.502 237.245 143.583 236.804 143.745 236.396C143.91 235.988 144.141 235.634 144.438 235.334C144.738 235.034 145.098 234.799 145.518 234.628C145.938 234.457 146.403 234.371 146.913 234.371C147.423 234.371 147.886 234.458 148.303 234.632C148.723 234.803 149.082 235.039 149.379 235.339C149.676 235.639 149.905 235.993 150.067 236.401C150.232 236.809 150.315 237.248 150.315 237.719ZM148.758 237.719C148.758 237.395 148.716 237.104 148.632 236.846C148.548 236.585 148.426 236.365 148.267 236.185C148.111 236.005 147.919 235.867 147.691 235.771C147.463 235.675 147.204 235.627 146.913 235.627C146.619 235.627 146.356 235.675 146.125 235.771C145.897 235.867 145.704 236.005 145.545 236.185C145.389 236.365 145.269 236.585 145.185 236.846C145.101 237.104 145.059 237.395 145.059 237.719C145.059 238.046 145.101 238.34 145.185 238.601C145.269 238.859 145.389 239.078 145.545 239.258C145.704 239.438 145.897 239.576 146.125 239.672C146.356 239.765 146.619 239.812 146.913 239.812C147.204 239.812 147.463 239.765 147.691 239.672C147.919 239.576 148.111 239.438 148.267 239.258C148.426 239.078 148.548 238.859 148.632 238.601C148.716 238.34 148.758 238.046 148.758 237.719ZM159.975 234.443L157.95 241H156.573L155.34 236.936C155.316 236.873 155.294 236.804 155.273 236.729C155.252 236.651 155.231 236.57 155.21 236.486C155.189 236.57 155.168 236.651 155.147 236.729C155.126 236.804 155.103 236.873 155.079 236.936L153.828 241H152.451L150.426 234.443H151.704C151.836 234.443 151.946 234.473 152.033 234.533C152.123 234.593 152.181 234.673 152.208 234.772L153.108 238.192C153.135 238.3 153.162 238.418 153.189 238.547C153.216 238.673 153.243 238.805 153.27 238.943C153.324 238.661 153.39 238.411 153.468 238.192L154.53 234.772C154.557 234.688 154.614 234.613 154.701 234.547C154.791 234.478 154.899 234.443 155.025 234.443H155.475C155.607 234.443 155.714 234.475 155.795 234.538C155.876 234.598 155.937 234.676 155.979 234.772L157.032 238.192C157.11 238.402 157.176 238.64 157.23 238.907C157.254 238.772 157.278 238.646 157.302 238.529C157.329 238.409 157.356 238.297 157.383 238.192L158.283 234.772C158.307 234.685 158.364 234.608 158.454 234.542C158.544 234.476 158.652 234.443 158.778 234.443H159.975ZM164.157 235.775C164.112 235.847 164.064 235.901 164.013 235.938C163.965 235.973 163.902 235.991 163.824 235.991C163.755 235.991 163.68 235.97 163.599 235.928C163.521 235.883 163.431 235.834 163.329 235.78C163.23 235.726 163.116 235.678 162.987 235.636C162.858 235.591 162.711 235.568 162.546 235.568C162.261 235.568 162.048 235.63 161.907 235.753C161.769 235.873 161.7 236.036 161.7 236.243C161.7 236.375 161.742 236.485 161.826 236.572C161.91 236.659 162.02 236.734 162.155 236.797C162.293 236.86 162.449 236.918 162.623 236.972C162.8 237.023 162.98 237.082 163.163 237.148C163.346 237.211 163.524 237.286 163.698 237.373C163.875 237.46 164.031 237.571 164.166 237.706C164.304 237.841 164.415 238.006 164.499 238.201C164.583 238.393 164.625 238.625 164.625 238.898C164.625 239.201 164.573 239.485 164.468 239.749C164.363 240.013 164.21 240.244 164.009 240.442C163.811 240.637 163.565 240.791 163.271 240.905C162.98 241.016 162.648 241.072 162.276 241.072C162.072 241.072 161.864 241.051 161.651 241.009C161.441 240.967 161.237 240.908 161.039 240.833C160.841 240.755 160.655 240.664 160.481 240.559C160.307 240.454 160.155 240.337 160.026 240.208L160.476 239.497C160.512 239.446 160.559 239.404 160.616 239.371C160.676 239.335 160.74 239.317 160.809 239.317C160.899 239.317 160.989 239.345 161.079 239.402C161.172 239.459 161.276 239.522 161.39 239.591C161.507 239.66 161.64 239.723 161.79 239.78C161.94 239.837 162.117 239.866 162.321 239.866C162.597 239.866 162.812 239.806 162.965 239.686C163.118 239.563 163.194 239.369 163.194 239.105C163.194 238.952 163.152 238.828 163.068 238.732C162.984 238.636 162.873 238.556 162.735 238.493C162.6 238.43 162.446 238.375 162.272 238.327C162.098 238.279 161.919 238.226 161.736 238.169C161.553 238.109 161.375 238.037 161.201 237.953C161.027 237.866 160.871 237.754 160.733 237.616C160.598 237.475 160.488 237.301 160.404 237.094C160.32 236.884 160.278 236.626 160.278 236.32C160.278 236.074 160.328 235.834 160.427 235.6C160.526 235.366 160.671 235.157 160.863 234.974C161.055 234.791 161.291 234.646 161.57 234.538C161.849 234.427 162.168 234.371 162.528 234.371C162.729 234.371 162.924 234.388 163.113 234.421C163.305 234.451 163.487 234.497 163.658 234.56C163.829 234.62 163.988 234.694 164.135 234.781C164.285 234.865 164.418 234.961 164.535 235.069L164.157 235.775ZM167.048 235.613V237.143H169.109V238.268H167.048V239.83H169.739V241H165.518V234.443H169.739V235.613H167.048ZM172.81 237.526C173.017 237.526 173.193 237.5 173.337 237.449C173.484 237.395 173.604 237.322 173.697 237.229C173.79 237.136 173.857 237.028 173.899 236.905C173.941 236.779 173.962 236.644 173.962 236.5C173.962 236.212 173.868 235.987 173.679 235.825C173.493 235.663 173.203 235.582 172.81 235.582H172.198V237.526H172.81ZM176.041 241H174.664C174.409 241 174.226 240.904 174.115 240.712L173.026 238.808C172.975 238.727 172.918 238.669 172.855 238.633C172.792 238.594 172.702 238.574 172.585 238.574H172.198V241H170.677V234.443H172.81C173.284 234.443 173.688 234.493 174.021 234.592C174.357 234.688 174.63 234.823 174.84 234.997C175.053 235.171 175.207 235.376 175.303 235.613C175.399 235.85 175.447 236.108 175.447 236.387C175.447 236.6 175.419 236.801 175.362 236.99C175.305 237.179 175.221 237.355 175.11 237.517C174.999 237.676 174.861 237.818 174.696 237.944C174.534 238.07 174.346 238.174 174.133 238.255C174.232 238.306 174.325 238.37 174.412 238.448C174.499 238.523 174.577 238.613 174.646 238.718L176.041 241ZM187.608 234.443L185.583 241H184.206L182.973 236.936C182.949 236.873 182.927 236.804 182.906 236.729C182.885 236.651 182.864 236.57 182.843 236.486C182.822 236.57 182.801 236.651 182.78 236.729C182.759 236.804 182.736 236.873 182.712 236.936L181.461 241H180.084L178.059 234.443H179.337C179.469 234.443 179.579 234.473 179.666 234.533C179.756 234.593 179.814 234.673 179.841 234.772L180.741 238.192C180.768 238.3 180.795 238.418 180.822 238.547C180.849 238.673 180.876 238.805 180.903 238.943C180.957 238.661 181.023 238.411 181.101 238.192L182.163 234.772C182.19 234.688 182.247 234.613 182.334 234.547C182.424 234.478 182.532 234.443 182.658 234.443H183.108C183.24 234.443 183.347 234.475 183.428 234.538C183.509 234.598 183.57 234.676 183.612 234.772L184.665 238.192C184.743 238.402 184.809 238.64 184.863 238.907C184.887 238.772 184.911 238.646 184.935 238.529C184.962 238.409 184.989 238.297 185.016 238.192L185.916 234.772C185.94 234.685 185.997 234.608 186.087 234.542C186.177 234.476 186.285 234.443 186.411 234.443H187.608ZM189.794 241H188.264V234.443H189.794V241ZM197.008 237.719C197.008 238.193 196.926 238.631 196.761 239.033C196.599 239.432 196.369 239.779 196.072 240.073C195.775 240.364 195.417 240.592 194.997 240.757C194.58 240.919 194.116 241 193.606 241H191.059V234.443H193.606C194.116 234.443 194.58 234.526 194.997 234.691C195.417 234.856 195.775 235.084 196.072 235.375C196.369 235.666 196.599 236.012 196.761 236.414C196.926 236.813 197.008 237.248 197.008 237.719ZM195.451 237.719C195.451 237.395 195.409 237.103 195.325 236.842C195.241 236.581 195.12 236.36 194.961 236.18C194.805 235.997 194.613 235.858 194.385 235.762C194.157 235.663 193.897 235.613 193.606 235.613H192.589V239.83H193.606C193.897 239.83 194.157 239.782 194.385 239.686C194.613 239.587 194.805 239.447 194.961 239.267C195.12 239.084 195.241 238.862 195.325 238.601C195.409 238.34 195.451 238.046 195.451 237.719ZM202.45 235.649H200.605V241H199.084V235.649H197.239V234.443H202.45V235.649ZM208.947 234.443V241H207.417V238.228H204.753V241H203.223V234.443H204.753V237.184H207.417V234.443H208.947Z" fill="#007BFF" fill-opacity="0.7"/>
<rect x="346" y="20" width="10" height="2" fill="#007BFF" fill-opacity="0.5"/>
<rect x="346" y="225" width="10" height="2" fill="#007BFF" fill-opacity="0.5"/>
<rect x="350" y="22" width="2" height="203" fill="#007BFF" fill-opacity="0.5"/>
<g clip-path="url(#clip0)">
<rect x="345" y="165" width="89" height="11" transform="rotate(-90 345 165)" fill="white"/>
<path d="M352.852 157.554C352.852 157.353 352.827 157.189 352.776 157.063C352.725 156.934 352.659 156.834 352.578 156.762C352.497 156.69 352.405 156.64 352.303 156.613C352.201 156.586 352.098 156.573 351.993 156.573C351.873 156.573 351.765 156.589 351.669 156.622C351.573 156.652 351.492 156.706 351.426 156.784C351.36 156.859 351.309 156.96 351.273 157.086C351.237 157.212 351.219 157.371 351.219 157.563V158.625H352.852V157.554ZM348.582 158.625H350.202V157.833C350.202 157.665 350.19 157.513 350.166 157.378C350.142 157.243 350.1 157.129 350.04 157.036C349.98 156.94 349.897 156.868 349.792 156.82C349.687 156.769 349.555 156.744 349.396 156.744C349.24 156.744 349.111 156.763 349.009 156.802C348.904 156.841 348.82 156.901 348.757 156.982C348.694 157.063 348.649 157.167 348.622 157.293C348.595 157.416 348.582 157.563 348.582 157.734V158.625ZM347.443 157.734C347.443 157.281 347.485 156.895 347.569 156.577C347.653 156.259 347.772 156 347.925 155.799C348.078 155.598 348.264 155.452 348.483 155.362C348.702 155.269 348.946 155.223 349.216 155.223C349.363 155.223 349.506 155.244 349.644 155.286C349.779 155.328 349.906 155.394 350.026 155.484C350.143 155.574 350.251 155.689 350.35 155.83C350.449 155.971 350.535 156.141 350.607 156.339C350.712 155.907 350.881 155.587 351.115 155.38C351.349 155.173 351.652 155.07 352.024 155.07C352.303 155.07 352.563 155.124 352.803 155.232C353.043 155.34 353.253 155.499 353.433 155.709C353.61 155.916 353.749 156.172 353.852 156.478C353.951 156.784 354 157.134 354 157.527V160.146H347.443V157.734ZM350.526 151.983C350.526 151.776 350.5 151.601 350.449 151.457C350.395 151.31 350.322 151.19 350.229 151.097C350.136 151.004 350.028 150.936 349.905 150.894C349.779 150.852 349.644 150.831 349.5 150.831C349.212 150.831 348.987 150.926 348.825 151.115C348.663 151.301 348.582 151.59 348.582 151.983V152.595H350.526V151.983ZM354 148.752V150.129C354 150.384 353.904 150.567 353.712 150.678L351.808 151.767C351.727 151.818 351.669 151.875 351.633 151.938C351.594 152.001 351.574 152.091 351.574 152.208V152.595H354V154.116H347.443V151.983C347.443 151.509 347.493 151.106 347.592 150.773C347.688 150.437 347.823 150.164 347.997 149.954C348.171 149.741 348.376 149.586 348.613 149.49C348.85 149.394 349.108 149.346 349.387 149.346C349.6 149.346 349.801 149.375 349.99 149.432C350.179 149.489 350.355 149.573 350.517 149.684C350.676 149.795 350.818 149.933 350.944 150.098C351.07 150.26 351.174 150.447 351.255 150.66C351.306 150.561 351.37 150.468 351.448 150.381C351.523 150.294 351.613 150.216 351.718 150.147L354 148.752ZM350.719 141.881C351.193 141.881 351.634 141.963 352.042 142.128C352.45 142.29 352.806 142.52 353.109 142.817C353.409 143.114 353.644 143.472 353.815 143.892C353.987 144.309 354.072 144.773 354.072 145.283C354.072 145.793 353.987 146.258 353.815 146.678C353.644 147.098 353.409 147.458 353.109 147.758C352.806 148.055 352.45 148.286 352.042 148.451C351.634 148.613 351.193 148.694 350.719 148.694C350.245 148.694 349.804 148.613 349.396 148.451C348.988 148.286 348.634 148.055 348.334 147.758C348.034 147.458 347.799 147.098 347.628 146.678C347.457 146.258 347.371 145.793 347.371 145.283C347.371 144.773 347.458 144.309 347.632 143.892C347.803 143.472 348.039 143.114 348.339 142.817C348.639 142.52 348.993 142.29 349.401 142.128C349.809 141.963 350.248 141.881 350.719 141.881ZM350.719 143.438C350.395 143.438 350.104 143.48 349.846 143.564C349.585 143.648 349.365 143.769 349.185 143.928C349.005 144.084 348.867 144.276 348.771 144.504C348.675 144.732 348.627 144.992 348.627 145.283C348.627 145.577 348.675 145.839 348.771 146.07C348.867 146.298 349.005 146.492 349.185 146.651C349.365 146.807 349.585 146.927 349.846 147.011C350.104 147.095 350.395 147.137 350.719 147.137C351.046 147.137 351.34 147.095 351.601 147.011C351.859 146.927 352.078 146.807 352.258 146.651C352.438 146.492 352.576 146.298 352.672 146.07C352.765 145.839 352.812 145.577 352.812 145.283C352.812 144.992 352.765 144.732 352.672 144.504C352.576 144.276 352.438 144.084 352.258 143.928C352.078 143.769 351.859 143.648 351.601 143.564C351.34 143.48 351.046 143.438 350.719 143.438ZM347.443 132.22L354 134.245V135.622L349.936 136.855C349.873 136.879 349.804 136.902 349.729 136.923C349.651 136.944 349.57 136.965 349.486 136.986C349.57 137.007 349.651 137.028 349.729 137.049C349.804 137.07 349.873 137.092 349.936 137.116L354 138.367V139.744L347.443 141.769V140.491C347.443 140.359 347.473 140.25 347.533 140.163C347.593 140.073 347.673 140.014 347.772 139.987L351.192 139.087C351.3 139.06 351.418 139.033 351.547 139.006C351.673 138.979 351.805 138.952 351.943 138.925C351.661 138.871 351.411 138.805 351.192 138.727L347.772 137.665C347.688 137.638 347.613 137.581 347.547 137.494C347.478 137.404 347.443 137.296 347.443 137.17V136.72C347.443 136.588 347.475 136.482 347.538 136.401C347.598 136.32 347.676 136.258 347.772 136.216L351.192 135.163C351.402 135.085 351.64 135.019 351.907 134.965C351.772 134.941 351.646 134.917 351.529 134.893C351.409 134.866 351.297 134.839 351.192 134.812L347.772 133.912C347.685 133.888 347.608 133.831 347.542 133.741C347.476 133.651 347.443 133.543 347.443 133.417V132.22ZM348.775 128.038C348.847 128.083 348.901 128.131 348.938 128.182C348.973 128.23 348.991 128.293 348.991 128.371C348.991 128.44 348.97 128.515 348.928 128.596C348.883 128.674 348.834 128.764 348.78 128.866C348.726 128.965 348.678 129.079 348.636 129.208C348.591 129.337 348.568 129.484 348.568 129.649C348.568 129.934 348.63 130.147 348.753 130.288C348.873 130.426 349.036 130.495 349.243 130.495C349.375 130.495 349.485 130.453 349.572 130.369C349.659 130.285 349.734 130.175 349.797 130.04C349.86 129.902 349.918 129.746 349.972 129.572C350.023 129.395 350.082 129.215 350.148 129.032C350.211 128.849 350.286 128.671 350.373 128.497C350.46 128.32 350.571 128.164 350.706 128.029C350.841 127.891 351.006 127.78 351.201 127.696C351.393 127.612 351.625 127.57 351.898 127.57C352.201 127.57 352.485 127.622 352.749 127.727C353.013 127.832 353.244 127.985 353.442 128.186C353.637 128.384 353.791 128.63 353.905 128.924C354.016 129.215 354.072 129.547 354.072 129.919C354.072 130.123 354.051 130.331 354.009 130.544C353.967 130.754 353.908 130.958 353.833 131.156C353.755 131.354 353.664 131.54 353.559 131.714C353.454 131.888 353.337 132.04 353.208 132.169L352.497 131.719C352.446 131.683 352.404 131.636 352.371 131.579C352.335 131.519 352.317 131.455 352.317 131.386C352.317 131.296 352.345 131.206 352.402 131.116C352.459 131.023 352.522 130.919 352.591 130.805C352.66 130.688 352.723 130.555 352.78 130.405C352.837 130.255 352.866 130.078 352.866 129.874C352.866 129.598 352.806 129.383 352.686 129.23C352.563 129.077 352.369 129.001 352.105 129.001C351.952 129.001 351.828 129.043 351.732 129.127C351.636 129.211 351.556 129.322 351.493 129.46C351.43 129.595 351.375 129.749 351.327 129.923C351.279 130.097 351.226 130.276 351.169 130.459C351.109 130.642 351.037 130.82 350.953 130.994C350.866 131.168 350.754 131.324 350.616 131.462C350.475 131.597 350.301 131.707 350.094 131.791C349.884 131.875 349.626 131.917 349.32 131.917C349.074 131.917 348.834 131.867 348.6 131.768C348.366 131.669 348.157 131.524 347.974 131.332C347.791 131.14 347.646 130.904 347.538 130.625C347.427 130.346 347.371 130.027 347.371 129.667C347.371 129.466 347.388 129.271 347.421 129.082C347.451 128.89 347.497 128.708 347.56 128.537C347.62 128.366 347.694 128.207 347.781 128.06C347.865 127.91 347.961 127.777 348.069 127.66L348.775 128.038ZM348.613 125.147H350.143V123.086H351.268V125.147H352.83V122.456H354V126.677H347.443V122.456H348.613V125.147ZM350.526 119.385C350.526 119.178 350.5 119.002 350.449 118.858C350.395 118.711 350.322 118.591 350.229 118.498C350.136 118.405 350.028 118.338 349.905 118.296C349.779 118.254 349.644 118.233 349.5 118.233C349.212 118.233 348.987 118.327 348.825 118.516C348.663 118.702 348.582 118.992 348.582 119.385V119.997H350.526V119.385ZM354 116.154V117.531C354 117.786 353.904 117.969 353.712 118.08L351.808 119.169C351.727 119.22 351.669 119.277 351.633 119.34C351.594 119.403 351.574 119.493 351.574 119.61V119.997H354V121.518H347.443V119.385C347.443 118.911 347.493 118.507 347.592 118.174C347.688 117.838 347.823 117.565 347.997 117.355C348.171 117.142 348.376 116.988 348.613 116.892C348.85 116.796 349.108 116.748 349.387 116.748C349.6 116.748 349.801 116.776 349.99 116.833C350.179 116.89 350.355 116.974 350.517 117.085C350.676 117.196 350.818 117.334 350.944 117.499C351.07 117.661 351.174 117.849 351.255 118.062C351.306 117.963 351.37 117.87 351.448 117.783C351.523 117.696 351.613 117.618 351.718 117.549L354 116.154ZM347.443 107.796H354V109.326H351.228V111.99H354V113.52H347.443V111.99H350.184V109.326H347.443V107.796ZM348.613 104.994H350.143V102.933H351.268V104.994H352.83V102.303H354V106.524H347.443V102.303H348.613V104.994ZM354 99.8345V101.365H347.443V99.8345H354ZM350.602 95.4196V93.0886H353.37C353.616 93.4246 353.794 93.7831 353.905 94.1641C354.016 94.5421 354.072 94.9381 354.072 95.3521C354.072 95.8921 353.988 96.3841 353.82 96.8281C353.649 97.2691 353.415 97.6471 353.118 97.9621C352.818 98.2771 352.464 98.5201 352.056 98.6911C351.645 98.8621 351.199 98.9476 350.719 98.9476C350.23 98.9476 349.782 98.8666 349.374 98.7046C348.963 98.5426 348.609 98.3116 348.312 98.0116C348.015 97.7086 347.784 97.3441 347.619 96.9181C347.454 96.4891 347.371 96.0106 347.371 95.4826C347.371 95.2096 347.394 94.9531 347.439 94.7131C347.484 94.4731 347.545 94.2526 347.623 94.0516C347.701 93.8476 347.794 93.6616 347.902 93.4936C348.01 93.3256 348.127 93.1756 348.253 93.0436L348.924 93.4846C349.029 93.5536 349.093 93.6436 349.117 93.7546C349.141 93.8626 349.114 93.9796 349.036 94.1056C348.964 94.2256 348.903 94.3396 348.852 94.4476C348.798 94.5526 348.754 94.6606 348.721 94.7716C348.688 94.8826 348.664 94.9996 348.649 95.1226C348.634 95.2456 348.627 95.3836 348.627 95.5366C348.627 95.8216 348.678 96.0781 348.78 96.3061C348.879 96.5341 349.02 96.7291 349.203 96.8911C349.386 97.0501 349.606 97.1731 349.864 97.2601C350.119 97.3471 350.404 97.3906 350.719 97.3906C351.067 97.3906 351.376 97.3426 351.646 97.2466C351.916 97.1506 352.144 97.0156 352.33 96.8416C352.516 96.6646 352.659 96.4546 352.758 96.2116C352.854 95.9656 352.902 95.6941 352.902 95.3971C352.902 95.2141 352.884 95.0491 352.848 94.9021C352.812 94.7521 352.764 94.6066 352.704 94.4656H351.709V95.1136C351.709 95.2096 351.684 95.2846 351.633 95.3386C351.582 95.3926 351.517 95.4196 351.439 95.4196H350.602ZM347.443 86.3417H354V87.8717H351.228V90.5357H354V92.0657H347.443V90.5357H350.184V87.8717H347.443V86.3417ZM348.649 80.3581V82.2031H354V83.7241H348.649V85.5691H347.443V80.3581H348.649Z" fill="#007BFF" fill-opacity="0.7"/>
</g>
<defs>
<clipPath id="clip0">
<rect x="345" y="165" width="89" height="11" transform="rotate(-90 345 165)" fill="white"/>
</clipPath>
</defs>
</svg>
