<svg width="280" height="208" viewBox="0 0 280 208" fill="none" xmlns="http://www.w3.org/2000/svg">
<rect width="280" height="208" rx="4" fill="#007BFF" fill-opacity="0.1"/>
<rect x="10" y="10" width="260" height="187" rx="4" fill="white"/>
<rect x="10.5" y="10.5" width="79" height="44" rx="1.5" stroke="#007BFF" stroke-dasharray="2 2"/>
<rect x="10.5" y="65.5" width="79" height="44" rx="1.5" stroke="#007BFF" stroke-dasharray="2 2"/>
<rect x="10.5" y="120.5" width="79" height="44" rx="1.5" stroke="#007BFF" stroke-dasharray="2 2"/>
<rect x="190.5" y="10.5" width="79" height="44" rx="1.5" stroke="#007BFF" stroke-dasharray="2 2"/>
<rect x="100.5" y="10.5" width="79" height="44" rx="1.5" stroke="#007BFF" stroke-dasharray="2 2"/>
<rect x="100.5" y="65.5" width="79" height="44" rx="1.5" stroke="#007BFF" stroke-dasharray="2 2"/>
<rect x="100.5" y="120.5" width="79" height="44" rx="1.5" stroke="#007BFF" stroke-dasharray="2 2"/>
<rect x="190.5" y="65.5" width="79" height="44" rx="1.5" stroke="#007BFF" stroke-dasharray="2 2"/>
<path d="M61.9495 180.661C62.3455 180.661 62.6305 180.566 62.8045 180.377C62.9785 180.188 63.0655 179.924 63.0655 179.585C63.0655 179.435 63.043 179.299 62.998 179.176C62.953 179.053 62.884 178.948 62.791 178.861C62.701 178.771 62.5855 178.702 62.4445 178.654C62.3065 178.606 62.1415 178.582 61.9495 178.582H61.1575V180.661H61.9495ZM61.9495 177.443C62.4115 177.443 62.8075 177.499 63.1375 177.61C63.4705 177.718 63.7435 177.868 63.9565 178.06C64.1725 178.252 64.3315 178.478 64.4335 178.739C64.5355 179 64.5865 179.282 64.5865 179.585C64.5865 179.912 64.534 180.212 64.429 180.485C64.324 180.758 64.1635 180.992 63.9475 181.188C63.7315 181.382 63.457 181.535 63.124 181.646C62.794 181.754 62.4025 181.808 61.9495 181.808H61.1575V184H59.6365V177.443H61.9495ZM71.7931 180.719C71.7931 181.193 71.7106 181.634 71.5456 182.042C71.3836 182.45 71.1541 182.806 70.8571 183.109C70.5601 183.409 70.2016 183.644 69.7816 183.815C69.3646 183.987 68.9011 184.072 68.3911 184.072C67.8811 184.072 67.4161 183.987 66.9961 183.815C66.5761 183.644 66.2161 183.409 65.9161 183.109C65.6191 182.806 65.3881 182.45 65.2231 182.042C65.0611 181.634 64.9801 181.193 64.9801 180.719C64.9801 180.245 65.0611 179.804 65.2231 179.396C65.3881 178.988 65.6191 178.634 65.9161 178.334C66.2161 178.034 66.5761 177.799 66.9961 177.628C67.4161 177.457 67.8811 177.371 68.3911 177.371C68.9011 177.371 69.3646 177.458 69.7816 177.632C70.2016 177.803 70.5601 178.039 70.8571 178.339C71.1541 178.639 71.3836 178.993 71.5456 179.401C71.7106 179.809 71.7931 180.248 71.7931 180.719ZM70.2361 180.719C70.2361 180.395 70.1941 180.104 70.1101 179.846C70.0261 179.585 69.9046 179.365 69.7456 179.185C69.5896 179.005 69.3976 178.867 69.1696 178.771C68.9416 178.675 68.6821 178.627 68.3911 178.627C68.0971 178.627 67.8346 178.675 67.6036 178.771C67.3756 178.867 67.1821 179.005 67.0231 179.185C66.8671 179.365 66.7471 179.585 66.6631 179.846C66.5791 180.104 66.5371 180.395 66.5371 180.719C66.5371 181.046 66.5791 181.34 66.6631 181.601C66.7471 181.859 66.8671 182.078 67.0231 182.258C67.1821 182.438 67.3756 182.576 67.6036 182.672C67.8346 182.765 68.0971 182.812 68.3911 182.812C68.6821 182.812 68.9416 182.765 69.1696 182.672C69.3976 182.576 69.5896 182.438 69.7456 182.258C69.9046 182.078 70.0261 181.859 70.1101 181.601C70.1941 181.34 70.2361 181.046 70.2361 180.719ZM76.3107 178.775C76.2657 178.847 76.2177 178.901 76.1667 178.938C76.1187 178.973 76.0557 178.991 75.9777 178.991C75.9087 178.991 75.8337 178.97 75.7527 178.928C75.6747 178.883 75.5847 178.834 75.4827 178.78C75.3837 178.726 75.2697 178.678 75.1407 178.636C75.0117 178.591 74.8647 178.568 74.6997 178.568C74.4147 178.568 74.2017 178.63 74.0607 178.753C73.9227 178.873 73.8537 179.036 73.8537 179.243C73.8537 179.375 73.8957 179.485 73.9797 179.572C74.0637 179.659 74.1732 179.734 74.3082 179.797C74.4462 179.86 74.6022 179.918 74.7762 179.972C74.9532 180.023 75.1332 180.082 75.3162 180.148C75.4992 180.211 75.6777 180.286 75.8517 180.373C76.0287 180.46 76.1847 180.571 76.3197 180.706C76.4577 180.841 76.5687 181.006 76.6527 181.201C76.7367 181.393 76.7787 181.625 76.7787 181.898C76.7787 182.201 76.7262 182.485 76.6212 182.749C76.5162 183.013 76.3632 183.244 76.1622 183.442C75.9642 183.637 75.7182 183.791 75.4242 183.905C75.1332 184.016 74.8017 184.072 74.4297 184.072C74.2257 184.072 74.0172 184.051 73.8042 184.009C73.5942 183.967 73.3902 183.908 73.1922 183.833C72.9942 183.755 72.8082 183.664 72.6342 183.559C72.4602 183.454 72.3087 183.337 72.1797 183.208L72.6297 182.497C72.6657 182.446 72.7122 182.404 72.7692 182.371C72.8292 182.335 72.8937 182.317 72.9627 182.317C73.0527 182.317 73.1427 182.345 73.2327 182.402C73.3257 182.459 73.4292 182.522 73.5432 182.591C73.6602 182.66 73.7937 182.723 73.9437 182.78C74.0937 182.837 74.2707 182.866 74.4747 182.866C74.7507 182.866 74.9652 182.806 75.1182 182.686C75.2712 182.563 75.3477 182.369 75.3477 182.105C75.3477 181.952 75.3057 181.828 75.2217 181.732C75.1377 181.636 75.0267 181.556 74.8887 181.493C74.7537 181.43 74.5992 181.375 74.4252 181.327C74.2512 181.279 74.0727 181.226 73.8897 181.169C73.7067 181.109 73.5282 181.037 73.3542 180.953C73.1802 180.866 73.0242 180.754 72.8862 180.616C72.7512 180.475 72.6417 180.301 72.5577 180.094C72.4737 179.884 72.4317 179.626 72.4317 179.32C72.4317 179.074 72.4812 178.834 72.5802 178.6C72.6792 178.366 72.8247 178.157 73.0167 177.974C73.2087 177.791 73.4442 177.646 73.7232 177.538C74.0022 177.427 74.3217 177.371 74.6817 177.371C74.8827 177.371 75.0777 177.388 75.2667 177.421C75.4587 177.451 75.6402 177.497 75.8112 177.56C75.9822 177.62 76.1412 177.694 76.2882 177.781C76.4382 177.865 76.5717 177.961 76.6887 178.069L76.3107 178.775ZM79.2016 184H77.6716V177.443H79.2016V184ZM85.178 178.649H83.333V184H81.812V178.649H79.967V177.443H85.178V178.649ZM87.4809 184H85.9509V177.443H87.4809V184ZM94.6273 177.443L91.9993 184H90.6223L87.9943 177.443H89.2183C89.3503 177.443 89.4568 177.475 89.5378 177.538C89.6188 177.598 89.6803 177.676 89.7223 177.772L90.9913 181.282C91.0513 181.435 91.1098 181.603 91.1668 181.786C91.2238 181.966 91.2778 182.155 91.3288 182.353C91.3708 182.155 91.4173 181.966 91.4683 181.786C91.5223 181.603 91.5793 181.435 91.6393 181.282L92.8993 177.772C92.9323 177.688 92.9908 177.613 93.0748 177.547C93.1618 177.478 93.2683 177.443 93.3943 177.443H94.6273ZM96.6743 178.613V180.143H98.7353V181.268H96.6743V182.83H99.3653V184H95.1443V177.443H99.3653V178.613H96.6743ZM107.925 177.443L105.297 184H103.92L101.292 177.443H102.516C102.648 177.443 102.755 177.475 102.836 177.538C102.917 177.598 102.978 177.676 103.02 177.772L104.289 181.282C104.349 181.435 104.408 181.603 104.465 181.786C104.522 181.966 104.576 182.155 104.627 182.353C104.669 182.155 104.715 181.966 104.766 181.786C104.82 181.603 104.877 181.435 104.937 181.282L106.197 177.772C106.23 177.688 106.289 177.613 106.373 177.547C106.46 177.478 106.566 177.443 106.692 177.443H107.925ZM109.972 178.613V180.143H112.033V181.268H109.972V182.83H112.663V184H108.442V177.443H112.663V178.613H109.972ZM115.734 180.526C115.941 180.526 116.117 180.5 116.261 180.449C116.408 180.395 116.528 180.322 116.621 180.229C116.714 180.136 116.781 180.028 116.823 179.905C116.865 179.779 116.886 179.644 116.886 179.5C116.886 179.212 116.792 178.987 116.603 178.825C116.417 178.663 116.127 178.582 115.734 178.582H115.122V180.526H115.734ZM118.965 184H117.588C117.333 184 117.15 183.904 117.039 183.712L115.95 181.808C115.899 181.727 115.842 181.669 115.779 181.633C115.716 181.594 115.626 181.574 115.509 181.574H115.122V184H113.601V177.443H115.734C116.208 177.443 116.612 177.493 116.945 177.592C117.281 177.688 117.554 177.823 117.764 177.997C117.977 178.171 118.131 178.376 118.227 178.613C118.323 178.85 118.371 179.108 118.371 179.387C118.371 179.6 118.343 179.801 118.286 179.99C118.229 180.179 118.145 180.355 118.034 180.517C117.923 180.676 117.785 180.818 117.62 180.944C117.458 181.07 117.27 181.174 117.057 181.255C117.156 181.306 117.249 181.37 117.336 181.448C117.423 181.523 117.501 181.613 117.57 181.718L118.965 184ZM124.096 178.649H122.251V184H120.73V178.649H118.885V177.443H124.096V178.649ZM126.399 184H124.869V177.443H126.399V184ZM132.083 182.303C132.119 182.303 132.155 182.311 132.191 182.326C132.227 182.338 132.261 182.36 132.294 182.393L132.897 183.028C132.633 183.373 132.302 183.634 131.903 183.811C131.507 183.985 131.037 184.072 130.494 184.072C129.996 184.072 129.549 183.988 129.153 183.82C128.76 183.649 128.426 183.415 128.15 183.118C127.877 182.818 127.667 182.464 127.52 182.056C127.373 181.645 127.299 181.199 127.299 180.719C127.299 180.23 127.379 179.782 127.538 179.374C127.697 178.963 127.92 178.609 128.208 178.312C128.496 178.015 128.841 177.784 129.243 177.619C129.645 177.454 130.088 177.371 130.571 177.371C130.817 177.371 131.048 177.394 131.264 177.439C131.483 177.481 131.687 177.541 131.876 177.619C132.065 177.694 132.239 177.785 132.398 177.893C132.557 178.001 132.698 178.118 132.821 178.244L132.308 178.933C132.275 178.975 132.236 179.014 132.191 179.05C132.146 179.083 132.083 179.099 132.002 179.099C131.948 179.099 131.897 179.087 131.849 179.063C131.801 179.039 131.75 179.011 131.696 178.978C131.642 178.942 131.582 178.904 131.516 178.865C131.453 178.823 131.376 178.786 131.286 178.753C131.199 178.717 131.096 178.687 130.976 178.663C130.859 178.639 130.721 178.627 130.562 178.627C130.31 178.627 130.079 178.673 129.869 178.766C129.662 178.859 129.482 178.996 129.329 179.176C129.179 179.353 129.062 179.572 128.978 179.833C128.897 180.091 128.856 180.386 128.856 180.719C128.856 181.055 128.901 181.354 128.991 181.615C129.084 181.876 129.209 182.096 129.365 182.276C129.524 182.453 129.708 182.588 129.918 182.681C130.128 182.774 130.353 182.821 130.593 182.821C130.731 182.821 130.857 182.815 130.971 182.803C131.085 182.788 131.192 182.765 131.291 182.735C131.39 182.702 131.483 182.66 131.57 182.609C131.657 182.555 131.745 182.488 131.835 182.407C131.871 182.377 131.91 182.353 131.952 182.335C131.994 182.314 132.038 182.303 132.083 182.303ZM137.026 181.493L136.419 179.698C136.374 179.584 136.326 179.45 136.275 179.297C136.224 179.141 136.173 178.973 136.122 178.793C136.077 178.976 136.029 179.146 135.978 179.302C135.927 179.458 135.879 179.593 135.834 179.707L135.231 181.493H137.026ZM139.443 184H138.264C138.132 184 138.025 183.97 137.944 183.91C137.863 183.847 137.802 183.767 137.76 183.671L137.373 182.528H134.88L134.493 183.671C134.46 183.755 134.4 183.832 134.313 183.901C134.229 183.967 134.124 184 133.998 184H132.81L135.348 177.443H136.905L139.443 184ZM143.911 182.785V184H139.96V177.443H141.481V182.785H143.911ZM153.87 177.443V184H152.529V180.229C152.529 180.142 152.53 180.047 152.533 179.945C152.539 179.843 152.548 179.74 152.56 179.635L150.819 183.005C150.765 183.11 150.691 183.19 150.598 183.244C150.508 183.298 150.405 183.325 150.288 183.325H150.081C149.964 183.325 149.859 183.298 149.766 183.244C149.676 183.19 149.604 183.11 149.55 183.005L147.808 179.626C147.817 179.734 147.825 179.84 147.831 179.945C147.837 180.047 147.84 180.142 147.84 180.229V184H146.499V177.443H147.66C147.726 177.443 147.783 177.445 147.831 177.448C147.882 177.451 147.927 177.46 147.966 177.475C148.005 177.49 148.039 177.514 148.069 177.547C148.102 177.577 148.134 177.62 148.164 177.677L149.851 181.003C149.911 181.117 149.968 181.235 150.022 181.358C150.079 181.481 150.133 181.607 150.184 181.736C150.235 181.604 150.288 181.475 150.342 181.349C150.399 181.223 150.459 181.103 150.522 180.989L152.205 177.677C152.235 177.62 152.265 177.577 152.295 177.547C152.328 177.514 152.364 177.49 152.403 177.475C152.442 177.46 152.485 177.451 152.533 177.448C152.584 177.445 152.643 177.443 152.709 177.443H153.87ZM158.603 181.493L157.996 179.698C157.951 179.584 157.903 179.45 157.852 179.297C157.801 179.141 157.75 178.973 157.699 178.793C157.654 178.976 157.606 179.146 157.555 179.302C157.504 179.458 157.456 179.593 157.411 179.707L156.808 181.493H158.603ZM161.02 184H159.841C159.709 184 159.602 183.97 159.521 183.91C159.44 183.847 159.379 183.767 159.337 183.671L158.95 182.528H156.457L156.07 183.671C156.037 183.755 155.977 183.832 155.89 183.901C155.806 183.967 155.701 184 155.575 184H154.387L156.925 177.443H158.482L161.02 184ZM163.67 180.526C163.877 180.526 164.052 180.5 164.196 180.449C164.343 180.395 164.463 180.322 164.556 180.229C164.649 180.136 164.717 180.028 164.759 179.905C164.801 179.779 164.822 179.644 164.822 179.5C164.822 179.212 164.727 178.987 164.538 178.825C164.352 178.663 164.063 178.582 163.67 178.582H163.058V180.526H163.67ZM166.901 184H165.524C165.269 184 165.086 183.904 164.975 183.712L163.886 181.808C163.835 181.727 163.778 181.669 163.715 181.633C163.652 181.594 163.562 181.574 163.445 181.574H163.058V184H161.537V177.443H163.67C164.144 177.443 164.547 177.493 164.88 177.592C165.216 177.688 165.489 177.823 165.699 177.997C165.912 178.171 166.067 178.376 166.163 178.613C166.259 178.85 166.307 179.108 166.307 179.387C166.307 179.6 166.278 179.801 166.221 179.99C166.164 180.179 166.08 180.355 165.969 180.517C165.858 180.676 165.72 180.818 165.555 180.944C165.393 181.07 165.206 181.174 164.993 181.255C165.092 181.306 165.185 181.37 165.272 181.448C165.359 181.523 165.437 181.613 165.506 181.718L166.901 184ZM170.488 180.602H172.819V183.37C172.483 183.616 172.124 183.794 171.743 183.905C171.365 184.016 170.969 184.072 170.555 184.072C170.015 184.072 169.523 183.988 169.079 183.82C168.638 183.649 168.26 183.415 167.945 183.118C167.63 182.818 167.387 182.464 167.216 182.056C167.045 181.645 166.96 181.199 166.96 180.719C166.96 180.23 167.041 179.782 167.203 179.374C167.365 178.963 167.596 178.609 167.896 178.312C168.199 178.015 168.563 177.784 168.989 177.619C169.418 177.454 169.897 177.371 170.425 177.371C170.698 177.371 170.954 177.394 171.194 177.439C171.434 177.484 171.655 177.545 171.856 177.623C172.06 177.701 172.246 177.794 172.414 177.902C172.582 178.01 172.732 178.127 172.864 178.253L172.423 178.924C172.354 179.029 172.264 179.093 172.153 179.117C172.045 179.141 171.928 179.114 171.802 179.036C171.682 178.964 171.568 178.903 171.46 178.852C171.355 178.798 171.247 178.754 171.136 178.721C171.025 178.688 170.908 178.664 170.785 178.649C170.662 178.634 170.524 178.627 170.371 178.627C170.086 178.627 169.829 178.678 169.601 178.78C169.373 178.879 169.178 179.02 169.016 179.203C168.857 179.386 168.734 179.606 168.647 179.864C168.56 180.119 168.517 180.404 168.517 180.719C168.517 181.067 168.565 181.376 168.661 181.646C168.757 181.916 168.892 182.144 169.066 182.33C169.243 182.516 169.453 182.659 169.696 182.758C169.942 182.854 170.213 182.902 170.51 182.902C170.693 182.902 170.858 182.884 171.005 182.848C171.155 182.812 171.301 182.764 171.442 182.704V181.709H170.794C170.698 181.709 170.623 181.684 170.569 181.633C170.515 181.582 170.488 181.517 170.488 181.439V180.602ZM175.372 184H173.842V177.443H175.372V184ZM182.36 177.443V184H181.568C181.451 184 181.352 183.982 181.271 183.946C181.193 183.907 181.115 183.841 181.037 183.748L177.946 179.837C177.958 179.954 177.965 180.068 177.968 180.179C177.974 180.287 177.977 180.389 177.977 180.485V184H176.636V177.443H177.437C177.503 177.443 177.559 177.446 177.604 177.452C177.649 177.458 177.689 177.47 177.725 177.488C177.761 177.503 177.796 177.526 177.829 177.556C177.862 177.586 177.899 177.626 177.941 177.677L181.06 181.615C181.045 181.489 181.034 181.367 181.028 181.25C181.022 181.13 181.019 181.018 181.019 180.913V177.443H182.36Z" fill="#28A745" fill-opacity="0.7"/>
<rect x="45" y="165" width="10" height="2" fill="#28A745" fill-opacity="0.8"/>
<rect x="45" y="195" width="10" height="2" fill="#28A745" fill-opacity="0.8"/>
<rect x="49" y="167" width="2" height="28" fill="#28A745" fill-opacity="0.8"/>
</svg>
