<svg width="327" height="208" viewBox="0 0 327 208" fill="none" xmlns="http://www.w3.org/2000/svg">
<rect width="280" height="208" rx="4" fill="#007BFF" fill-opacity="0.1"/>
<rect x="10" y="10" width="260" height="187" rx="4" fill="white"/>
<rect x="10.5" y="10.5" width="98" height="54.6875" rx="1.5" stroke="#007BFF" stroke-dasharray="2 2"/>
<rect x="10.5" y="76.1875" width="98" height="54.6875" rx="1.5" stroke="#007BFF" stroke-dasharray="2 2"/>
<rect x="10.5" y="141.875" width="98" height="54.6875" rx="1.5" stroke="#007BFF" stroke-dasharray="2 2"/>
<rect x="228.5" y="10.5" width="98" height="54.6875" rx="1.5" stroke="#007BFF" stroke-dasharray="2 2"/>
<rect x="119.5" y="10.5" width="98" height="54.6875" rx="1.5" stroke="#007BFF" stroke-dasharray="2 2"/>
<rect x="119.5" y="76.1875" width="98" height="54.6875" rx="1.5" stroke="#007BFF" stroke-dasharray="2 2"/>
<rect x="119.5" y="141.875" width="98" height="54.6875" rx="1.5" stroke="#007BFF" stroke-dasharray="2 2"/>
<rect x="228.5" y="76.1875" width="98" height="54.6875" rx="1.5" stroke="#007BFF" stroke-dasharray="2 2"/>
<path d="M275.005 158.808V165H274.257C274.147 165 274.053 164.983 273.977 164.949C273.903 164.912 273.829 164.85 273.756 164.762L270.836 161.069C270.847 161.179 270.854 161.287 270.857 161.392C270.863 161.494 270.866 161.59 270.866 161.681V165H269.599V158.808H270.356C270.418 158.808 270.471 158.811 270.513 158.816C270.556 158.822 270.594 158.833 270.628 158.85C270.662 158.864 270.694 158.886 270.726 158.914C270.757 158.942 270.792 158.981 270.832 159.029L273.777 162.747C273.763 162.628 273.753 162.514 273.747 162.403C273.742 162.29 273.739 162.184 273.739 162.084V158.808H275.005ZM277.652 159.913V161.358H279.598V162.42H277.652V163.895H280.193V165H276.207V158.808H280.193V159.913H277.652ZM283.93 161.791H286.131V164.405C285.814 164.637 285.475 164.806 285.115 164.911C284.758 165.016 284.384 165.068 283.993 165.068C283.483 165.068 283.019 164.989 282.599 164.83C282.183 164.668 281.826 164.447 281.528 164.167C281.231 163.884 281.001 163.549 280.84 163.164C280.678 162.776 280.598 162.355 280.598 161.902C280.598 161.44 280.674 161.016 280.827 160.631C280.98 160.243 281.198 159.908 281.482 159.628C281.768 159.347 282.112 159.129 282.514 158.973C282.92 158.818 283.372 158.74 283.87 158.74C284.128 158.74 284.37 158.761 284.597 158.803C284.824 158.846 285.032 158.904 285.222 158.978C285.414 159.051 285.59 159.139 285.749 159.241C285.907 159.343 286.049 159.454 286.174 159.573L285.757 160.206C285.692 160.305 285.607 160.366 285.502 160.389C285.4 160.411 285.29 160.386 285.171 160.312C285.057 160.244 284.95 160.186 284.848 160.138C284.749 160.087 284.647 160.046 284.542 160.015C284.437 159.984 284.326 159.961 284.21 159.947C284.094 159.933 283.964 159.925 283.819 159.925C283.55 159.925 283.308 159.974 283.092 160.07C282.877 160.163 282.693 160.297 282.54 160.469C282.39 160.642 282.274 160.851 282.191 161.094C282.109 161.335 282.068 161.604 282.068 161.902C282.068 162.23 282.114 162.522 282.204 162.777C282.295 163.032 282.422 163.248 282.587 163.423C282.754 163.599 282.952 163.733 283.182 163.827C283.414 163.918 283.67 163.963 283.951 163.963C284.124 163.963 284.28 163.946 284.418 163.912C284.56 163.878 284.698 163.833 284.831 163.776V162.837H284.219C284.128 162.837 284.057 162.813 284.006 162.764C283.955 162.716 283.93 162.655 283.93 162.582V161.791ZM290.278 162.633L289.705 160.937C289.662 160.829 289.617 160.703 289.569 160.559C289.521 160.411 289.472 160.253 289.424 160.083C289.382 160.256 289.336 160.416 289.288 160.563C289.24 160.71 289.195 160.838 289.152 160.945L288.583 162.633H290.278ZM292.561 165H291.447C291.323 165 291.222 164.972 291.145 164.915C291.069 164.855 291.011 164.78 290.971 164.69L290.606 163.61H288.251L287.886 164.69C287.855 164.769 287.798 164.841 287.716 164.906C287.636 164.969 287.537 165 287.418 165H286.296L288.693 158.808H290.164L292.561 165ZM296.893 159.947H295.15V165H293.714V159.947H291.971V158.808H296.893V159.947ZM299.068 165H297.623V158.808H299.068V165ZM305.817 158.808L303.335 165H302.035L299.553 158.808H300.709C300.833 158.808 300.934 158.837 301.01 158.897C301.087 158.954 301.145 159.027 301.185 159.118L302.383 162.433C302.44 162.577 302.495 162.736 302.549 162.909C302.603 163.079 302.654 163.257 302.702 163.444C302.742 163.257 302.785 163.079 302.834 162.909C302.885 162.736 302.938 162.577 302.995 162.433L304.185 159.118C304.216 159.039 304.272 158.968 304.351 158.905C304.433 158.84 304.534 158.808 304.653 158.808H305.817ZM307.75 159.913V161.358H309.697V162.42H307.75V163.895H310.292V165H306.305V158.808H310.292V159.913H307.75ZM275.005 168.808V175H273.56V172.382H271.044V175H269.599V168.808H271.044V171.396H273.56V168.808H275.005ZM282.284 171.902C282.284 172.349 282.206 172.766 282.05 173.151C281.897 173.537 281.681 173.872 281.4 174.158C281.12 174.442 280.781 174.664 280.384 174.826C279.991 174.987 279.553 175.068 279.071 175.068C278.59 175.068 278.15 174.987 277.754 174.826C277.357 174.664 277.017 174.442 276.734 174.158C276.453 173.872 276.235 173.537 276.079 173.151C275.926 172.766 275.85 172.349 275.85 171.902C275.85 171.454 275.926 171.038 276.079 170.652C276.235 170.267 276.453 169.933 276.734 169.649C277.017 169.366 277.357 169.143 277.754 168.982C278.15 168.82 278.59 168.74 279.071 168.74C279.553 168.74 279.991 168.822 280.384 168.986C280.781 169.148 281.12 169.37 281.4 169.653C281.681 169.937 281.897 170.271 282.05 170.656C282.206 171.042 282.284 171.457 282.284 171.902ZM280.814 171.902C280.814 171.596 280.774 171.321 280.695 171.077C280.615 170.831 280.501 170.622 280.35 170.452C280.203 170.282 280.022 170.152 279.806 170.061C279.591 169.971 279.346 169.925 279.071 169.925C278.794 169.925 278.546 169.971 278.327 170.061C278.112 170.152 277.929 170.282 277.779 170.452C277.632 170.622 277.519 170.831 277.439 171.077C277.36 171.321 277.32 171.596 277.32 171.902C277.32 172.211 277.36 172.488 277.439 172.735C277.519 172.978 277.632 173.185 277.779 173.355C277.929 173.525 278.112 173.656 278.327 173.746C278.546 173.834 278.794 173.878 279.071 173.878C279.346 173.878 279.591 173.834 279.806 173.746C280.022 173.656 280.203 173.525 280.35 173.355C280.501 173.185 280.615 172.978 280.695 172.735C280.774 172.488 280.814 172.211 280.814 171.902ZM285.144 171.719C285.34 171.719 285.505 171.695 285.641 171.647C285.78 171.596 285.893 171.526 285.981 171.438C286.069 171.351 286.133 171.249 286.173 171.132C286.212 171.013 286.232 170.886 286.232 170.75C286.232 170.478 286.143 170.265 285.964 170.112C285.789 169.959 285.515 169.883 285.144 169.883H284.566V171.719H285.144ZM288.196 175H286.895C286.654 175 286.481 174.909 286.377 174.728L285.348 172.93C285.3 172.854 285.246 172.798 285.187 172.764C285.127 172.728 285.042 172.709 284.932 172.709H284.566V175H283.13V168.808H285.144C285.592 168.808 285.973 168.854 286.287 168.948C286.605 169.039 286.862 169.166 287.061 169.33C287.262 169.495 287.408 169.689 287.499 169.913C287.589 170.137 287.635 170.38 287.635 170.644C287.635 170.845 287.608 171.035 287.554 171.213C287.5 171.392 287.421 171.557 287.316 171.71C287.211 171.861 287.081 171.995 286.925 172.114C286.772 172.233 286.595 172.331 286.394 172.407C286.487 172.456 286.575 172.517 286.657 172.59C286.739 172.661 286.813 172.746 286.878 172.845L288.196 175ZM290.161 175H288.716V168.808H290.161V175ZM295.746 169.326C295.746 169.4 295.733 169.472 295.708 169.543C295.685 169.614 295.652 169.68 295.61 169.743L292.703 173.895H295.652V175H290.875V174.447C290.875 174.382 290.887 174.319 290.909 174.256C290.932 174.191 290.963 174.132 291.003 174.078L293.918 169.913H291.113V168.808H295.746V169.326ZM302.488 171.902C302.488 172.349 302.41 172.766 302.255 173.151C302.102 173.537 301.885 173.872 301.604 174.158C301.324 174.442 300.985 174.664 300.589 174.826C300.195 174.987 299.757 175.068 299.275 175.068C298.794 175.068 298.354 174.987 297.958 174.826C297.561 174.664 297.221 174.442 296.938 174.158C296.657 173.872 296.439 173.537 296.283 173.151C296.13 172.766 296.054 172.349 296.054 171.902C296.054 171.454 296.13 171.038 296.283 170.652C296.439 170.267 296.657 169.933 296.938 169.649C297.221 169.366 297.561 169.143 297.958 168.982C298.354 168.82 298.794 168.74 299.275 168.74C299.757 168.74 300.195 168.822 300.589 168.986C300.985 169.148 301.324 169.37 301.604 169.653C301.885 169.937 302.102 170.271 302.255 170.656C302.41 171.042 302.488 171.457 302.488 171.902ZM301.018 171.902C301.018 171.596 300.978 171.321 300.899 171.077C300.819 170.831 300.705 170.622 300.555 170.452C300.407 170.282 300.226 170.152 300.011 170.061C299.795 169.971 299.55 169.925 299.275 169.925C298.998 169.925 298.75 169.971 298.532 170.061C298.316 170.152 298.133 170.282 297.983 170.452C297.836 170.622 297.723 170.831 297.643 171.077C297.564 171.321 297.524 171.596 297.524 171.902C297.524 172.211 297.564 172.488 297.643 172.735C297.723 172.978 297.836 173.185 297.983 173.355C298.133 173.525 298.316 173.656 298.532 173.746C298.75 173.834 298.998 173.878 299.275 173.878C299.55 173.878 299.795 173.834 300.011 173.746C300.226 173.656 300.407 173.525 300.555 173.355C300.705 173.185 300.819 172.978 300.899 172.735C300.978 172.488 301.018 172.211 301.018 171.902ZM308.74 168.808V175H307.992C307.881 175 307.788 174.983 307.711 174.949C307.637 174.912 307.564 174.85 307.49 174.762L304.57 171.069C304.582 171.179 304.589 171.287 304.592 171.392C304.597 171.494 304.6 171.59 304.6 171.681V175H303.334V168.808H304.09C304.152 168.808 304.205 168.811 304.247 168.816C304.29 168.822 304.328 168.833 304.362 168.85C304.396 168.864 304.429 168.886 304.46 168.914C304.491 168.942 304.526 168.981 304.566 169.029L307.511 172.747C307.497 172.628 307.487 172.514 307.482 172.403C307.476 172.29 307.473 172.184 307.473 172.084V168.808H308.74ZM314.391 169.947H312.648V175H311.212V169.947H309.469V168.808H314.391V169.947ZM317.787 172.633L317.214 170.937C317.171 170.829 317.126 170.703 317.078 170.559C317.029 170.411 316.981 170.253 316.933 170.083C316.891 170.256 316.845 170.416 316.797 170.563C316.749 170.71 316.704 170.838 316.661 170.945L316.092 172.633H317.787ZM320.07 175H318.956C318.831 175 318.731 174.972 318.654 174.915C318.578 174.855 318.52 174.78 318.48 174.69L318.115 173.61H315.76L315.395 174.69C315.363 174.769 315.307 174.841 315.225 174.906C315.145 174.969 315.046 175 314.927 175H313.805L316.202 168.808H317.673L320.07 175ZM324.289 173.852V175H320.558V168.808H321.994V173.852H324.289ZM276.561 178.808V185H275.294V181.438C275.294 181.356 275.296 181.267 275.299 181.171C275.304 181.074 275.313 180.977 275.324 180.877L273.679 184.061C273.628 184.16 273.559 184.235 273.471 184.286C273.386 184.337 273.288 184.362 273.178 184.362H272.982C272.872 184.362 272.773 184.337 272.685 184.286C272.6 184.235 272.532 184.16 272.481 184.061L270.836 180.869C270.845 180.971 270.852 181.072 270.857 181.171C270.863 181.267 270.866 181.356 270.866 181.438V185H269.599V178.808H270.696C270.758 178.808 270.812 178.809 270.857 178.812C270.905 178.815 270.948 178.823 270.985 178.837C271.022 178.852 271.054 178.874 271.083 178.905C271.114 178.934 271.143 178.975 271.172 179.029L272.766 182.169C272.822 182.277 272.876 182.389 272.927 182.505C272.981 182.621 273.032 182.74 273.08 182.862C273.128 182.738 273.178 182.616 273.229 182.497C273.283 182.378 273.339 182.264 273.399 182.157L274.988 179.029C275.017 178.975 275.045 178.934 275.073 178.905C275.104 178.874 275.138 178.852 275.175 178.837C275.212 178.823 275.253 178.815 275.299 178.812C275.347 178.809 275.402 178.808 275.464 178.808H276.561ZM281.031 182.633L280.458 180.937C280.415 180.829 280.37 180.703 280.322 180.559C280.274 180.411 280.225 180.253 280.177 180.083C280.135 180.256 280.089 180.416 280.041 180.563C279.993 180.71 279.948 180.838 279.905 180.945L279.336 182.633H281.031ZM283.314 185H282.2C282.076 185 281.975 184.972 281.898 184.915C281.822 184.855 281.764 184.78 281.724 184.69L281.359 183.61H279.004L278.639 184.69C278.608 184.769 278.551 184.841 278.469 184.906C278.389 184.969 278.29 185 278.171 185H277.049L279.446 178.808H280.917L283.314 185ZM285.816 181.719C286.012 181.719 286.178 181.695 286.314 181.647C286.452 181.596 286.566 181.526 286.654 181.438C286.741 181.351 286.805 181.249 286.845 181.132C286.885 181.013 286.904 180.886 286.904 180.75C286.904 180.478 286.815 180.265 286.637 180.112C286.461 179.959 286.188 179.883 285.816 179.883H285.238V181.719H285.816ZM288.868 185H287.567C287.327 185 287.154 184.909 287.049 184.728L286.02 182.93C285.972 182.854 285.918 182.798 285.859 182.764C285.799 182.728 285.714 182.709 285.604 182.709H285.238V185H283.802V178.808H285.816C286.264 178.808 286.645 178.854 286.96 178.948C287.277 179.039 287.535 179.166 287.733 179.33C287.934 179.495 288.08 179.689 288.171 179.913C288.262 180.137 288.307 180.38 288.307 180.644C288.307 180.845 288.28 181.035 288.226 181.213C288.172 181.392 288.093 181.557 287.988 181.71C287.883 181.861 287.753 181.995 287.597 182.114C287.444 182.233 287.267 182.331 287.066 182.407C287.159 182.456 287.247 182.517 287.329 182.59C287.412 182.661 287.485 182.746 287.55 182.845L288.868 185ZM292.255 181.791H294.457V184.405C294.14 184.637 293.801 184.806 293.441 184.911C293.084 185.016 292.71 185.068 292.319 185.068C291.809 185.068 291.344 184.989 290.925 184.83C290.509 184.668 290.152 184.447 289.854 184.167C289.557 183.884 289.327 183.549 289.166 183.164C289.004 182.776 288.923 182.355 288.923 181.902C288.923 181.44 289 181.016 289.153 180.631C289.306 180.243 289.524 179.908 289.807 179.628C290.094 179.347 290.438 179.129 290.84 178.973C291.245 178.818 291.697 178.74 292.196 178.74C292.454 178.74 292.696 178.761 292.923 178.803C293.149 178.846 293.358 178.904 293.547 178.978C293.74 179.051 293.916 179.139 294.074 179.241C294.233 179.343 294.375 179.454 294.499 179.573L294.083 180.206C294.018 180.305 293.933 180.366 293.828 180.389C293.726 180.411 293.615 180.386 293.496 180.312C293.383 180.244 293.275 180.186 293.173 180.138C293.074 180.087 292.972 180.046 292.867 180.015C292.763 179.984 292.652 179.961 292.536 179.947C292.42 179.933 292.289 179.925 292.145 179.925C291.876 179.925 291.633 179.974 291.418 180.07C291.203 180.163 291.019 180.297 290.866 180.469C290.715 180.642 290.599 180.851 290.517 181.094C290.435 181.335 290.394 181.604 290.394 181.902C290.394 182.23 290.439 182.522 290.53 182.777C290.621 183.032 290.748 183.248 290.912 183.423C291.08 183.599 291.278 183.733 291.507 183.827C291.74 183.918 291.996 183.963 292.277 183.963C292.449 183.963 292.605 183.946 292.744 183.912C292.886 183.878 293.023 183.833 293.156 183.776V182.837H292.544C292.454 182.837 292.383 182.813 292.332 182.764C292.281 182.716 292.255 182.655 292.255 182.582V181.791ZM296.868 185H295.423V178.808H296.868V185ZM303.469 178.808V185H302.721C302.61 185 302.517 184.983 302.44 184.949C302.366 184.912 302.293 184.85 302.219 184.762L299.299 181.069C299.311 181.179 299.318 181.287 299.321 181.392C299.326 181.494 299.329 181.59 299.329 181.681V185H298.063V178.808H298.819C298.881 178.808 298.934 178.811 298.976 178.816C299.019 178.822 299.057 178.833 299.091 178.85C299.125 178.864 299.158 178.886 299.189 178.914C299.22 178.942 299.255 178.981 299.295 179.029L302.24 182.747C302.226 182.628 302.216 182.514 302.211 182.403C302.205 182.29 302.202 182.184 302.202 182.084V178.808H303.469Z" fill="#DC3545" fill-opacity="0.7"/>
<rect x="270" y="151" width="10" height="2" transform="rotate(-90 270 151)" fill="#DC3545" fill-opacity="0.8"/>
<rect x="325" y="151" width="10" height="2" transform="rotate(-90 325 151)" fill="#DC3545" fill-opacity="0.8"/>
<rect x="272" y="147" width="2" height="53" transform="rotate(-90 272 147)" fill="#DC3545" fill-opacity="0.8"/>
</svg>
