<svg width="280" height="208" viewBox="0 0 280 208" fill="none" xmlns="http://www.w3.org/2000/svg">
<rect width="280" height="208" rx="4" fill="#007BFF" fill-opacity="0.1"/>
<rect x="10" y="10" width="260" height="187" rx="4" fill="white"/>
<rect x="10.5" y="10.5" width="79" height="44" rx="1.5" stroke="#007BFF" stroke-dasharray="2 2"/>
<rect x="10.5" y="65.5" width="79" height="44" rx="1.5" stroke="#007BFF" stroke-dasharray="2 2"/>
<rect x="10.5" y="120.5" width="79" height="44" rx="1.5" stroke="#007BFF" stroke-dasharray="2 2"/>
<rect x="190.5" y="10.5" width="79" height="44" rx="1.5" stroke="#007BFF" stroke-dasharray="2 2"/>
<rect x="100.5" y="10.5" width="79" height="44" rx="1.5" stroke="#007BFF" stroke-dasharray="2 2"/>
<rect x="100.5" y="65.5" width="79" height="44" rx="1.5" stroke="#007BFF" stroke-dasharray="2 2"/>
<rect x="100.5" y="120.5" width="79" height="44" rx="1.5" stroke="#007BFF" stroke-dasharray="2 2"/>
<rect x="190.5" y="65.5" width="79" height="44" rx="1.5" stroke="#007BFF" stroke-dasharray="2 2"/>
<rect x="268" y="175" width="2" height="10" fill="#007BFF" fill-opacity="0.5"/>
<rect x="12" y="179" width="256" height="2" fill="#007BFF" fill-opacity="0.5"/>
<rect x="10" y="175" width="2" height="10" fill="#007BFF" fill-opacity="0.5"/>
<rect x="93" y="175" width="94" height="10" fill="white"/>
<path d="M102.359 177.649H100.514V183H98.9927V177.649H97.1477V176.443H102.359V177.649ZM109.417 179.719C109.417 180.193 109.335 180.634 109.17 181.042C109.008 181.45 108.778 181.806 108.481 182.109C108.184 182.409 107.826 182.644 107.406 182.815C106.989 182.987 106.525 183.072 106.015 183.072C105.505 183.072 105.04 182.987 104.62 182.815C104.2 182.644 103.84 182.409 103.54 182.109C103.243 181.806 103.012 181.45 102.847 181.042C102.685 180.634 102.604 180.193 102.604 179.719C102.604 179.245 102.685 178.804 102.847 178.396C103.012 177.988 103.243 177.634 103.54 177.334C103.84 177.034 104.2 176.799 104.62 176.628C105.04 176.457 105.505 176.371 106.015 176.371C106.525 176.371 106.989 176.458 107.406 176.632C107.826 176.803 108.184 177.039 108.481 177.339C108.778 177.639 109.008 177.993 109.17 178.401C109.335 178.809 109.417 179.248 109.417 179.719ZM107.86 179.719C107.86 179.395 107.818 179.104 107.734 178.846C107.65 178.585 107.529 178.365 107.37 178.185C107.214 178.005 107.022 177.867 106.794 177.771C106.566 177.675 106.306 177.627 106.015 177.627C105.721 177.627 105.459 177.675 105.228 177.771C105 177.867 104.806 178.005 104.647 178.185C104.491 178.365 104.371 178.585 104.287 178.846C104.203 179.104 104.161 179.395 104.161 179.719C104.161 180.046 104.203 180.34 104.287 180.601C104.371 180.859 104.491 181.078 104.647 181.258C104.806 181.438 105 181.576 105.228 181.672C105.459 181.765 105.721 181.812 106.015 181.812C106.306 181.812 106.566 181.765 106.794 181.672C107.022 181.576 107.214 181.438 107.37 181.258C107.529 181.078 107.65 180.859 107.734 180.601C107.818 180.34 107.86 180.046 107.86 179.719ZM114.866 177.649H113.021V183H111.5V177.649H109.655V176.443H114.866V177.649ZM118.462 180.493L117.854 178.698C117.809 178.584 117.761 178.45 117.71 178.297C117.659 178.141 117.608 177.973 117.557 177.793C117.512 177.976 117.464 178.146 117.413 178.302C117.362 178.458 117.314 178.593 117.269 178.707L116.666 180.493H118.462ZM120.878 183H119.699C119.567 183 119.461 182.97 119.38 182.91C119.299 182.847 119.237 182.767 119.195 182.671L118.808 181.528H116.315L115.928 182.671C115.895 182.755 115.835 182.832 115.748 182.901C115.664 182.967 115.559 183 115.433 183H114.245L116.783 176.443H118.34L120.878 183ZM125.346 181.785V183H121.395V176.443H122.916V181.785H125.346ZM131.084 179.602H133.415V182.37C133.079 182.616 132.721 182.794 132.34 182.905C131.962 183.016 131.566 183.072 131.152 183.072C130.612 183.072 130.12 182.988 129.676 182.82C129.235 182.649 128.857 182.415 128.542 182.118C128.227 181.818 127.984 181.464 127.813 181.056C127.642 180.645 127.556 180.199 127.556 179.719C127.556 179.23 127.637 178.782 127.799 178.374C127.961 177.963 128.192 177.609 128.492 177.312C128.795 177.015 129.16 176.784 129.586 176.619C130.015 176.454 130.493 176.371 131.021 176.371C131.294 176.371 131.551 176.394 131.791 176.439C132.031 176.484 132.251 176.545 132.452 176.623C132.656 176.701 132.842 176.794 133.01 176.902C133.178 177.01 133.328 177.127 133.46 177.253L133.019 177.924C132.95 178.029 132.86 178.093 132.749 178.117C132.641 178.141 132.524 178.114 132.398 178.036C132.278 177.964 132.164 177.903 132.056 177.852C131.951 177.798 131.843 177.754 131.732 177.721C131.621 177.688 131.504 177.664 131.381 177.649C131.258 177.634 131.12 177.627 130.967 177.627C130.682 177.627 130.426 177.678 130.198 177.78C129.97 177.879 129.775 178.02 129.613 178.203C129.454 178.386 129.331 178.606 129.244 178.864C129.157 179.119 129.113 179.404 129.113 179.719C129.113 180.067 129.161 180.376 129.257 180.646C129.353 180.916 129.488 181.144 129.662 181.33C129.839 181.516 130.049 181.659 130.292 181.758C130.538 181.854 130.81 181.902 131.107 181.902C131.29 181.902 131.455 181.884 131.602 181.848C131.752 181.812 131.897 181.764 132.038 181.704V180.709H131.39C131.294 180.709 131.219 180.684 131.165 180.633C131.111 180.582 131.084 180.517 131.084 180.439V179.602ZM136.571 179.526C136.778 179.526 136.954 179.5 137.098 179.449C137.245 179.395 137.365 179.322 137.458 179.229C137.551 179.136 137.618 179.028 137.66 178.905C137.702 178.779 137.723 178.644 137.723 178.5C137.723 178.212 137.629 177.987 137.44 177.825C137.254 177.663 136.964 177.582 136.571 177.582H135.959V179.526H136.571ZM139.802 183H138.425C138.17 183 137.987 182.904 137.876 182.712L136.787 180.808C136.736 180.727 136.679 180.669 136.616 180.633C136.553 180.594 136.463 180.574 136.346 180.574H135.959V183H134.438V176.443H136.571C137.045 176.443 137.449 176.493 137.782 176.592C138.118 176.688 138.391 176.823 138.601 176.997C138.814 177.171 138.968 177.376 139.064 177.613C139.16 177.85 139.208 178.108 139.208 178.387C139.208 178.6 139.18 178.801 139.123 178.99C139.066 179.179 138.982 179.355 138.871 179.517C138.76 179.676 138.622 179.818 138.457 179.944C138.295 180.07 138.107 180.174 137.894 180.255C137.993 180.306 138.086 180.37 138.173 180.448C138.26 180.523 138.338 180.613 138.407 180.718L139.802 183ZM141.883 183H140.353V176.443H141.883V183ZM149.097 179.719C149.097 180.193 149.015 180.631 148.85 181.033C148.688 181.432 148.458 181.779 148.161 182.073C147.864 182.364 147.506 182.592 147.086 182.757C146.669 182.919 146.205 183 145.695 183H143.148V176.443H145.695C146.205 176.443 146.669 176.526 147.086 176.691C147.506 176.856 147.864 177.084 148.161 177.375C148.458 177.666 148.688 178.012 148.85 178.414C149.015 178.813 149.097 179.248 149.097 179.719ZM147.54 179.719C147.54 179.395 147.498 179.103 147.414 178.842C147.33 178.581 147.209 178.36 147.05 178.18C146.894 177.997 146.702 177.858 146.474 177.762C146.246 177.663 145.986 177.613 145.695 177.613H144.678V181.83H145.695C145.986 181.83 146.246 181.782 146.474 181.686C146.702 181.587 146.894 181.447 147.05 181.267C147.209 181.084 147.33 180.862 147.414 180.601C147.498 180.34 147.54 180.046 147.54 179.719ZM161.01 176.443L158.985 183H157.608L156.375 178.936C156.351 178.873 156.329 178.804 156.308 178.729C156.287 178.651 156.266 178.57 156.245 178.486C156.224 178.57 156.203 178.651 156.182 178.729C156.161 178.804 156.138 178.873 156.114 178.936L154.863 183H153.486L151.461 176.443H152.739C152.871 176.443 152.981 176.473 153.068 176.533C153.158 176.593 153.216 176.673 153.243 176.772L154.143 180.192C154.17 180.3 154.197 180.418 154.224 180.547C154.251 180.673 154.278 180.805 154.305 180.943C154.359 180.661 154.425 180.411 154.503 180.192L155.565 176.772C155.592 176.688 155.649 176.613 155.736 176.547C155.826 176.478 155.934 176.443 156.06 176.443H156.51C156.642 176.443 156.749 176.475 156.83 176.538C156.911 176.598 156.972 176.676 157.014 176.772L158.067 180.192C158.145 180.402 158.211 180.64 158.265 180.907C158.289 180.772 158.313 180.646 158.337 180.529C158.364 180.409 158.391 180.297 158.418 180.192L159.318 176.772C159.342 176.685 159.399 176.608 159.489 176.542C159.579 176.476 159.687 176.443 159.813 176.443H161.01ZM163.197 183H161.667V176.443H163.197V183ZM170.411 179.719C170.411 180.193 170.328 180.631 170.163 181.033C170.001 181.432 169.772 181.779 169.475 182.073C169.178 182.364 168.819 182.592 168.399 182.757C167.982 182.919 167.519 183 167.009 183H164.462V176.443H167.009C167.519 176.443 167.982 176.526 168.399 176.691C168.819 176.856 169.178 177.084 169.475 177.375C169.772 177.666 170.001 178.012 170.163 178.414C170.328 178.813 170.411 179.248 170.411 179.719ZM168.854 179.719C168.854 179.395 168.812 179.103 168.728 178.842C168.644 178.581 168.522 178.36 168.363 178.18C168.207 177.997 168.015 177.858 167.787 177.762C167.559 177.663 167.3 177.613 167.009 177.613H165.992V181.83H167.009C167.3 181.83 167.559 181.782 167.787 181.686C168.015 181.587 168.207 181.447 168.363 181.267C168.522 181.084 168.644 180.862 168.728 180.601C168.812 180.34 168.854 180.046 168.854 179.719ZM175.853 177.649H174.008V183H172.487V177.649H170.642V176.443H175.853V177.649ZM182.35 176.443V183H180.82V180.228H178.156V183H176.626V176.443H178.156V179.184H180.82V176.443H182.35Z" fill="#007BFF" fill-opacity="0.7"/>
<rect x="88" y="28" width="2" height="10" fill="#007BFF" fill-opacity="0.5"/>
<rect x="12" y="32" width="76" height="2" fill="#007BFF" fill-opacity="0.5"/>
<rect x="10" y="28" width="2" height="10" fill="#007BFF" fill-opacity="0.5"/>
<rect x="30" y="23" width="40" height="20" fill="white"/>
<path d="M41.0332 25.6135V27.274H43.2742V28.4485H41.0332V31H39.5032V24.4435H43.7242V25.6135H41.0332ZM46.1308 25.6135V27.1435H48.1918V28.2685H46.1308V29.83H48.8218V31H44.6008V24.4435H48.8218V25.6135H46.1308ZM51.29 25.6135V27.1435H53.351V28.2685H51.29V29.83H53.981V31H49.76V24.4435H53.981V25.6135H51.29ZM60.8682 27.7195C60.8682 28.1935 60.7857 28.6315 60.6207 29.0335C60.4587 29.4325 60.2292 29.779 59.9322 30.073C59.6352 30.364 59.2767 30.592 58.8567 30.757C58.4397 30.919 57.9762 31 57.4662 31H54.9192V24.4435H57.4662C57.9762 24.4435 58.4397 24.526 58.8567 24.691C59.2767 24.856 59.6352 25.084 59.9322 25.375C60.2292 25.666 60.4587 26.0125 60.6207 26.4145C60.7857 26.8135 60.8682 27.2485 60.8682 27.7195ZM59.3112 27.7195C59.3112 27.3955 59.2692 27.103 59.1852 26.842C59.1012 26.581 58.9797 26.3605 58.8207 26.1805C58.6647 25.9975 58.4727 25.858 58.2447 25.762C58.0167 25.663 57.7572 25.6135 57.4662 25.6135H56.4492V29.83H57.4662C57.7572 29.83 58.0167 29.782 58.2447 29.686C58.4727 29.587 58.6647 29.4475 58.8207 29.2675C58.9797 29.0845 59.1012 28.8625 59.1852 28.6015C59.2692 28.3405 59.3112 28.0465 59.3112 27.7195ZM43.795 34.4435L41.77 41H40.393L39.16 36.9365C39.136 36.8735 39.1135 36.8045 39.0925 36.7295C39.0715 36.6515 39.0505 36.5705 39.0295 36.4865C39.0085 36.5705 38.9875 36.6515 38.9665 36.7295C38.9455 36.8045 38.923 36.8735 38.899 36.9365L37.648 41H36.271L34.246 34.4435H35.524C35.656 34.4435 35.7655 34.4735 35.8525 34.5335C35.9425 34.5935 36.001 34.673 36.028 34.772L36.928 38.192C36.955 38.3 36.982 38.4185 37.009 38.5475C37.036 38.6735 37.063 38.8055 37.09 38.9435C37.144 38.6615 37.21 38.411 37.288 38.192L38.35 34.772C38.377 34.688 38.434 34.613 38.521 34.547C38.611 34.478 38.719 34.4435 38.845 34.4435H39.295C39.427 34.4435 39.5335 34.475 39.6145 34.538C39.6955 34.598 39.757 34.676 39.799 34.772L40.852 38.192C40.93 38.402 40.996 38.6405 41.05 38.9075C41.074 38.7725 41.098 38.6465 41.122 38.5295C41.149 38.4095 41.176 38.297 41.203 38.192L42.103 34.772C42.127 34.685 42.184 34.6085 42.274 34.5425C42.364 34.4765 42.472 34.4435 42.598 34.4435H43.795ZM45.9814 41H44.4514V34.4435H45.9814V41ZM53.1953 37.7195C53.1953 38.1935 53.1128 38.6315 52.9478 39.0335C52.7858 39.4325 52.5563 39.779 52.2593 40.073C51.9623 40.364 51.6038 40.592 51.1838 40.757C50.7668 40.919 50.3033 41 49.7933 41H47.2463V34.4435H49.7933C50.3033 34.4435 50.7668 34.526 51.1838 34.691C51.6038 34.856 51.9623 35.084 52.2593 35.375C52.5563 35.666 52.7858 36.0125 52.9478 36.4145C53.1128 36.8135 53.1953 37.2485 53.1953 37.7195ZM51.6383 37.7195C51.6383 37.3955 51.5963 37.103 51.5123 36.842C51.4283 36.581 51.3068 36.3605 51.1478 36.1805C50.9918 35.9975 50.7998 35.858 50.5718 35.762C50.3438 35.663 50.0843 35.6135 49.7933 35.6135H48.7763V39.83H49.7933C50.0843 39.83 50.3438 39.782 50.5718 39.686C50.7998 39.587 50.9918 39.4475 51.1478 39.2675C51.3068 39.0845 51.4283 38.8625 51.5123 38.6015C51.5963 38.3405 51.6383 38.0465 51.6383 37.7195ZM58.6375 35.6495H56.7925V41H55.2715V35.6495H53.4265V34.4435H58.6375V35.6495ZM65.1344 34.4435V41H63.6044V38.228H60.9404V41H59.4104V34.4435H60.9404V37.184H63.6044V34.4435H65.1344Z" fill="#007BFF" fill-opacity="0.7"/>
<path d="M184.602 74.0509V71.7199H187.37C187.616 72.0559 187.794 72.4144 187.905 72.7954C188.016 73.1734 188.072 73.5694 188.072 73.9834C188.072 74.5234 187.988 75.0154 187.82 75.4594C187.649 75.9004 187.415 76.2784 187.118 76.5934C186.818 76.9084 186.464 77.1514 186.056 77.3224C185.645 77.4934 185.199 77.5789 184.719 77.5789C184.23 77.5789 183.782 77.4979 183.374 77.3359C182.963 77.1739 182.609 76.9429 182.312 76.6429C182.015 76.3399 181.784 75.9754 181.619 75.5494C181.454 75.1204 181.371 74.6419 181.371 74.1139C181.371 73.8409 181.394 73.5844 181.439 73.3444C181.484 73.1044 181.545 72.8839 181.623 72.6829C181.701 72.4789 181.794 72.2929 181.902 72.1249C182.01 71.9569 182.127 71.8069 182.253 71.6749L182.924 72.1159C183.029 72.1849 183.093 72.2749 183.117 72.3859C183.141 72.4939 183.114 72.6109 183.036 72.7369C182.964 72.8569 182.903 72.9709 182.852 73.0789C182.798 73.1839 182.754 73.2919 182.721 73.4029C182.688 73.5139 182.664 73.6309 182.649 73.7539C182.634 73.8769 182.627 74.0149 182.627 74.1679C182.627 74.4529 182.678 74.7094 182.78 74.9374C182.879 75.1654 183.02 75.3604 183.203 75.5224C183.386 75.6814 183.606 75.8044 183.864 75.8914C184.119 75.9784 184.404 76.0219 184.719 76.0219C185.067 76.0219 185.376 75.9739 185.646 75.8779C185.916 75.7819 186.144 75.6469 186.33 75.4729C186.516 75.2959 186.659 75.0859 186.758 74.8429C186.854 74.5969 186.902 74.3254 186.902 74.0284C186.902 73.8454 186.884 73.6804 186.848 73.5334C186.812 73.3834 186.764 73.2379 186.704 73.0969H185.709V73.7449C185.709 73.8409 185.684 73.9159 185.633 73.9699C185.582 74.0239 185.517 74.0509 185.439 74.0509H184.602ZM184.526 68.564C184.526 68.357 184.5 68.1815 184.449 68.0375C184.395 67.8905 184.322 67.7705 184.229 67.6775C184.136 67.5845 184.028 67.517 183.905 67.475C183.779 67.433 183.644 67.412 183.5 67.412C183.212 67.412 182.987 67.5065 182.825 67.6955C182.663 67.8815 182.582 68.171 182.582 68.564V69.176H184.526V68.564ZM188 65.333V66.71C188 66.965 187.904 67.148 187.712 67.259L185.808 68.348C185.727 68.399 185.669 68.456 185.633 68.519C185.594 68.582 185.574 68.672 185.574 68.789V69.176H188V70.697H181.443V68.564C181.443 68.09 181.493 67.6865 181.592 67.3535C181.688 67.0175 181.823 66.7445 181.997 66.5345C182.171 66.3215 182.376 66.167 182.613 66.071C182.85 65.975 183.108 65.927 183.387 65.927C183.6 65.927 183.801 65.9555 183.99 66.0125C184.179 66.0695 184.355 66.1535 184.517 66.2645C184.676 66.3755 184.818 66.5135 184.944 66.6785C185.07 66.8405 185.174 67.028 185.255 67.241C185.306 67.142 185.37 67.049 185.448 66.962C185.523 66.875 185.613 66.797 185.718 66.728L188 65.333ZM188 63.252V64.782H181.443V63.252H188ZM184.719 56.0381C185.193 56.0381 185.631 56.1206 186.033 56.2856C186.432 56.4476 186.779 56.6771 187.073 56.9741C187.364 57.2711 187.592 57.6296 187.757 58.0496C187.919 58.4666 188 58.9301 188 59.4401V61.9871H181.443V59.4401C181.443 58.9301 181.526 58.4666 181.691 58.0496C181.856 57.6296 182.084 57.2711 182.375 56.9741C182.666 56.6771 183.012 56.4476 183.414 56.2856C183.813 56.1206 184.248 56.0381 184.719 56.0381ZM184.719 57.5951C184.395 57.5951 184.103 57.6371 183.842 57.7211C183.581 57.8051 183.36 57.9266 183.18 58.0856C182.997 58.2416 182.858 58.4336 182.762 58.6616C182.663 58.8896 182.613 59.1491 182.613 59.4401V60.4571H186.83V59.4401C186.83 59.1491 186.782 58.8896 186.686 58.6616C186.587 58.4336 186.447 58.2416 186.267 58.0856C186.084 57.9266 185.862 57.8051 185.601 57.7211C185.34 57.6371 185.046 57.5951 184.719 57.5951ZM184.602 49.9074V47.5764H187.37C187.616 47.9124 187.794 48.2709 187.905 48.6519C188.016 49.0299 188.072 49.4259 188.072 49.8399C188.072 50.3799 187.988 50.8719 187.82 51.3159C187.649 51.7569 187.415 52.1349 187.118 52.4499C186.818 52.7649 186.464 53.0079 186.056 53.1789C185.645 53.3499 185.199 53.4354 184.719 53.4354C184.23 53.4354 183.782 53.3544 183.374 53.1924C182.963 53.0304 182.609 52.7994 182.312 52.4994C182.015 52.1964 181.784 51.8319 181.619 51.4059C181.454 50.9769 181.371 50.4984 181.371 49.9704C181.371 49.6974 181.394 49.4409 181.439 49.2009C181.484 48.9609 181.545 48.7404 181.623 48.5394C181.701 48.3354 181.794 48.1494 181.902 47.9814C182.01 47.8134 182.127 47.6634 182.253 47.5314L182.924 47.9724C183.029 48.0414 183.093 48.1314 183.117 48.2424C183.141 48.3504 183.114 48.4674 183.036 48.5934C182.964 48.7134 182.903 48.8274 182.852 48.9354C182.798 49.0404 182.754 49.1484 182.721 49.2594C182.688 49.3704 182.664 49.4874 182.649 49.6104C182.634 49.7334 182.627 49.8714 182.627 50.0244C182.627 50.3094 182.678 50.5659 182.78 50.7939C182.879 51.0219 183.02 51.2169 183.203 51.3789C183.386 51.5379 183.606 51.6609 183.864 51.7479C184.119 51.8349 184.404 51.8784 184.719 51.8784C185.067 51.8784 185.376 51.8304 185.646 51.7344C185.916 51.6384 186.144 51.5034 186.33 51.3294C186.516 51.1524 186.659 50.9424 186.758 50.6994C186.854 50.4534 186.902 50.1819 186.902 49.8849C186.902 49.7019 186.884 49.5369 186.848 49.3899C186.812 49.2399 186.764 49.0944 186.704 48.9534H185.709V49.6014C185.709 49.6974 185.684 49.7724 185.633 49.8264C185.582 49.8804 185.517 49.9074 185.439 49.9074H184.602ZM185.493 43.1852L183.698 43.7927C183.584 43.8377 183.45 43.8857 183.297 43.9367C183.141 43.9877 182.973 44.0387 182.793 44.0897C182.976 44.1347 183.146 44.1827 183.302 44.2337C183.458 44.2847 183.593 44.3327 183.707 44.3777L185.493 44.9807V43.1852ZM188 40.7687V41.9477C188 42.0797 187.97 42.1862 187.91 42.2672C187.847 42.3482 187.767 42.4097 187.671 42.4517L186.528 42.8387V45.3317L187.671 45.7187C187.755 45.7517 187.832 45.8117 187.901 45.8987C187.967 45.9827 188 46.0877 188 46.2137V47.4017L181.443 44.8637V43.3067L188 40.7687ZM184.661 37.9387C184.661 37.5427 184.566 37.2577 184.377 37.0837C184.188 36.9097 183.924 36.8227 183.585 36.8227C183.435 36.8227 183.299 36.8452 183.176 36.8902C183.053 36.9352 182.948 37.0042 182.861 37.0972C182.771 37.1872 182.702 37.3027 182.654 37.4437C182.606 37.5817 182.582 37.7467 182.582 37.9387V38.7307H184.661V37.9387ZM181.443 37.9387C181.443 37.4767 181.499 37.0807 181.61 36.7507C181.718 36.4177 181.868 36.1447 182.06 35.9317C182.252 35.7157 182.478 35.5567 182.739 35.4547C183 35.3527 183.282 35.3017 183.585 35.3017C183.912 35.3017 184.212 35.3542 184.485 35.4592C184.758 35.5642 184.992 35.7247 185.188 35.9407C185.382 36.1567 185.535 36.4312 185.646 36.7642C185.754 37.0942 185.808 37.4857 185.808 37.9387V38.7307H188V40.2517H181.443V37.9387Z" fill="#007BFF" fill-opacity="0.7"/>
<rect x="180" y="91.5" width="10" height="2" transform="rotate(-90 180 91.5)" fill="#007BFF" fill-opacity="0.5"/>
<rect x="188" y="91.5" width="10" height="2" transform="rotate(-90 188 91.5)" fill="#007BFF" fill-opacity="0.5"/>
<rect x="182" y="87.5" width="2" height="6" transform="rotate(-90 182 87.5)" fill="#007BFF" fill-opacity="0.5"/>
</svg>
