<svg width="347" height="208" viewBox="0 0 347 208" fill="none" xmlns="http://www.w3.org/2000/svg">
<rect width="280" height="208" rx="4" fill="#007BFF" fill-opacity="0.1"/>
<rect x="10" y="10" width="260" height="187" rx="4" fill="white"/>
<rect x="10.5" y="10.5" width="98" height="54.6875" rx="1.5" stroke="#007BFF" stroke-dasharray="2 2"/>
<rect x="10.5" y="76.1875" width="98" height="54.6875" rx="1.5" stroke="#007BFF" stroke-dasharray="2 2"/>
<rect x="10.5" y="141.875" width="98" height="54.6875" rx="1.5" stroke="#007BFF" stroke-dasharray="2 2"/>
<rect x="228.5" y="10.5" width="98" height="54.6875" rx="1.5" stroke="#007BFF" stroke-dasharray="2 2"/>
<rect x="119.5" y="10.5" width="98" height="54.6875" rx="1.5" stroke="#007BFF" stroke-dasharray="2 2"/>
<rect x="119.5" y="76.1875" width="98" height="54.6875" rx="1.5" stroke="#007BFF" stroke-dasharray="2 2"/>
<rect x="119.5" y="141.875" width="98" height="54.6875" rx="1.5" stroke="#007BFF" stroke-dasharray="2 2"/>
<rect x="228.5" y="76.1875" width="98" height="54.6875" rx="1.5" stroke="#007BFF" stroke-dasharray="2 2"/>
<path d="M186.449 136.002H188.78V138.77C188.444 139.016 188.086 139.194 187.705 139.305C187.327 139.416 186.931 139.472 186.517 139.472C185.977 139.472 185.485 139.388 185.041 139.22C184.6 139.049 184.222 138.815 183.907 138.518C183.592 138.218 183.349 137.864 183.178 137.456C183.007 137.045 182.921 136.599 182.921 136.119C182.921 135.63 183.002 135.182 183.164 134.774C183.326 134.363 183.557 134.009 183.857 133.712C184.16 133.415 184.525 133.184 184.951 133.019C185.38 132.854 185.858 132.771 186.386 132.771C186.659 132.771 186.916 132.794 187.156 132.839C187.396 132.884 187.616 132.945 187.817 133.023C188.021 133.101 188.207 133.194 188.375 133.302C188.543 133.41 188.693 133.527 188.825 133.653L188.384 134.324C188.315 134.429 188.225 134.493 188.114 134.517C188.006 134.541 187.889 134.514 187.763 134.436C187.643 134.364 187.529 134.303 187.421 134.252C187.316 134.198 187.208 134.154 187.097 134.121C186.986 134.088 186.869 134.064 186.746 134.049C186.623 134.034 186.485 134.027 186.332 134.027C186.047 134.027 185.791 134.078 185.563 134.18C185.335 134.279 185.14 134.42 184.978 134.603C184.819 134.786 184.696 135.006 184.609 135.264C184.522 135.519 184.478 135.804 184.478 136.119C184.478 136.467 184.526 136.776 184.622 137.046C184.718 137.316 184.853 137.544 185.027 137.73C185.204 137.916 185.414 138.059 185.657 138.158C185.903 138.254 186.175 138.302 186.472 138.302C186.655 138.302 186.82 138.284 186.967 138.248C187.117 138.212 187.262 138.164 187.403 138.104V137.109H186.755C186.659 137.109 186.584 137.084 186.53 137.033C186.476 136.982 186.449 136.917 186.449 136.839V136.002ZM191.936 135.926C192.143 135.926 192.318 135.9 192.462 135.849C192.609 135.795 192.729 135.722 192.822 135.629C192.915 135.536 192.983 135.428 193.025 135.305C193.067 135.179 193.088 135.044 193.088 134.9C193.088 134.612 192.993 134.387 192.804 134.225C192.618 134.063 192.329 133.982 191.936 133.982H191.324V135.926H191.936ZM195.167 139.4H193.79C193.535 139.4 193.352 139.304 193.241 139.112L192.152 137.208C192.101 137.127 192.044 137.069 191.981 137.033C191.918 136.994 191.828 136.974 191.711 136.974H191.324V139.4H189.803V132.843H191.936C192.41 132.843 192.813 132.893 193.146 132.992C193.482 133.088 193.755 133.223 193.965 133.397C194.178 133.571 194.333 133.776 194.429 134.013C194.525 134.25 194.573 134.508 194.573 134.787C194.573 135 194.544 135.201 194.487 135.39C194.43 135.579 194.346 135.755 194.235 135.917C194.124 136.076 193.986 136.218 193.821 136.344C193.659 136.47 193.472 136.574 193.259 136.655C193.358 136.706 193.451 136.77 193.538 136.848C193.625 136.923 193.703 137.013 193.772 137.118L195.167 139.4ZM197.248 139.4H195.718V132.843H197.248V139.4ZM204.462 136.119C204.462 136.593 204.379 137.031 204.214 137.433C204.052 137.832 203.823 138.179 203.526 138.473C203.229 138.764 202.87 138.992 202.45 139.157C202.033 139.319 201.57 139.4 201.06 139.4H198.513V132.843H201.06C201.57 132.843 202.033 132.926 202.45 133.091C202.87 133.256 203.229 133.484 203.526 133.775C203.823 134.066 204.052 134.412 204.214 134.814C204.379 135.213 204.462 135.648 204.462 136.119ZM202.905 136.119C202.905 135.795 202.863 135.503 202.779 135.242C202.695 134.981 202.573 134.76 202.414 134.58C202.258 134.397 202.066 134.258 201.838 134.162C201.61 134.063 201.351 134.013 201.06 134.013H200.043V138.23H201.06C201.351 138.23 201.61 138.182 201.838 138.086C202.066 137.987 202.258 137.847 202.414 137.667C202.573 137.484 202.695 137.262 202.779 137.001C202.863 136.74 202.905 136.446 202.905 136.119ZM210.593 136.002H212.924V138.77C212.588 139.016 212.229 139.194 211.848 139.305C211.47 139.416 211.074 139.472 210.66 139.472C210.12 139.472 209.628 139.388 209.184 139.22C208.743 139.049 208.365 138.815 208.05 138.518C207.735 138.218 207.492 137.864 207.321 137.456C207.15 137.045 207.065 136.599 207.065 136.119C207.065 135.63 207.146 135.182 207.308 134.774C207.47 134.363 207.701 134.009 208.001 133.712C208.304 133.415 208.668 133.184 209.094 133.019C209.523 132.854 210.002 132.771 210.53 132.771C210.803 132.771 211.059 132.794 211.299 132.839C211.539 132.884 211.76 132.945 211.961 133.023C212.165 133.101 212.351 133.194 212.519 133.302C212.687 133.41 212.837 133.527 212.969 133.653L212.528 134.324C212.459 134.429 212.369 134.493 212.258 134.517C212.15 134.541 212.033 134.514 211.907 134.436C211.787 134.364 211.673 134.303 211.565 134.252C211.46 134.198 211.352 134.154 211.241 134.121C211.13 134.088 211.013 134.064 210.89 134.049C210.767 134.034 210.629 134.027 210.476 134.027C210.191 134.027 209.934 134.078 209.706 134.18C209.478 134.279 209.283 134.42 209.121 134.603C208.962 134.786 208.839 135.006 208.752 135.264C208.665 135.519 208.622 135.804 208.622 136.119C208.622 136.467 208.67 136.776 208.766 137.046C208.862 137.316 208.997 137.544 209.171 137.73C209.348 137.916 209.558 138.059 209.801 138.158C210.047 138.254 210.318 138.302 210.615 138.302C210.798 138.302 210.963 138.284 211.11 138.248C211.26 138.212 211.406 138.164 211.547 138.104V137.109H210.899C210.803 137.109 210.728 137.084 210.674 137.033C210.62 136.982 210.593 136.917 210.593 136.839V136.002ZM217.315 136.893L216.707 135.098C216.662 134.984 216.614 134.85 216.563 134.697C216.512 134.541 216.461 134.373 216.41 134.193C216.365 134.376 216.317 134.546 216.266 134.702C216.215 134.858 216.167 134.993 216.122 135.107L215.519 136.893H217.315ZM219.731 139.4H218.552C218.42 139.4 218.314 139.37 218.233 139.31C218.152 139.247 218.09 139.167 218.048 139.071L217.661 137.928H215.168L214.781 139.071C214.748 139.155 214.688 139.232 214.601 139.301C214.517 139.367 214.412 139.4 214.286 139.4H213.098L215.636 132.843H217.193L219.731 139.4ZM222.561 136.061C222.957 136.061 223.242 135.966 223.416 135.777C223.59 135.588 223.677 135.324 223.677 134.985C223.677 134.835 223.655 134.699 223.61 134.576C223.565 134.453 223.496 134.348 223.403 134.261C223.313 134.171 223.197 134.102 223.056 134.054C222.918 134.006 222.753 133.982 222.561 133.982H221.769V136.061H222.561ZM222.561 132.843C223.023 132.843 223.419 132.899 223.749 133.01C224.082 133.118 224.355 133.268 224.568 133.46C224.784 133.652 224.943 133.878 225.045 134.139C225.147 134.4 225.198 134.682 225.198 134.985C225.198 135.312 225.146 135.612 225.041 135.885C224.936 136.158 224.775 136.392 224.559 136.587C224.343 136.782 224.069 136.935 223.736 137.046C223.406 137.154 223.014 137.208 222.561 137.208H221.769V139.4H220.248V132.843H222.561Z" fill="#007BFF" fill-opacity="0.7"/>
<rect x="164" y="131.4" width="10" height="2" fill="#007BFF" fill-opacity="0.5"/>
<rect x="164" y="139.4" width="10" height="2" fill="#007BFF" fill-opacity="0.5"/>
<rect x="168" y="133.4" width="2" height="6" fill="#007BFF" fill-opacity="0.5"/>
<rect x="164" y="10" width="10" height="2" fill="#007BFF" fill-opacity="0.5"/>
<rect x="164" y="64" width="10" height="2" fill="#007BFF" fill-opacity="0.5"/>
<rect x="168" y="12" width="2" height="52" fill="#007BFF" fill-opacity="0.5"/>
<rect x="148" y="28" width="42" height="20" fill="white"/>
<path d="M158.992 30.6135V32.274H161.233V33.4485H158.992V36H157.462V29.4435H161.683V30.6135H158.992ZM164.089 30.6135V32.1435H166.15V33.2685H164.089V34.83H166.78V36H162.559V29.4435H166.78V30.6135H164.089ZM169.248 30.6135V32.1435H171.309V33.2685H169.248V34.83H171.939V36H167.718V29.4435H171.939V30.6135H169.248ZM178.827 32.7195C178.827 33.1935 178.744 33.6315 178.579 34.0335C178.417 34.4325 178.188 34.779 177.891 35.073C177.594 35.364 177.235 35.592 176.815 35.757C176.398 35.919 175.935 36 175.425 36H172.878V29.4435H175.425C175.935 29.4435 176.398 29.526 176.815 29.691C177.235 29.856 177.594 30.084 177.891 30.375C178.188 30.666 178.417 31.0125 178.579 31.4145C178.744 31.8135 178.827 32.2485 178.827 32.7195ZM177.27 32.7195C177.27 32.3955 177.228 32.103 177.144 31.842C177.06 31.581 176.938 31.3605 176.779 31.1805C176.623 30.9975 176.431 30.858 176.203 30.762C175.975 30.663 175.716 30.6135 175.425 30.6135H174.408V34.83H175.425C175.716 34.83 175.975 34.782 176.203 34.686C176.431 34.587 176.623 34.4475 176.779 34.2675C176.938 34.0845 177.06 33.8625 177.144 33.6015C177.228 33.3405 177.27 33.0465 177.27 32.7195ZM158.391 39.4435V46H156.861V43.228H154.197V46H152.667V39.4435H154.197V42.184H156.861V39.4435H158.391ZM161.193 40.6135V42.1435H163.254V43.2685H161.193V44.83H163.884V46H159.663V39.4435H163.884V40.6135H161.193ZM166.352 46H164.822V39.4435H166.352V46ZM170.767 42.6025H173.098V45.37C172.762 45.616 172.404 45.7945 172.023 45.9055C171.645 46.0165 171.249 46.072 170.835 46.072C170.295 46.072 169.803 45.988 169.359 45.82C168.918 45.649 168.54 45.415 168.225 45.118C167.91 44.818 167.667 44.464 167.496 44.056C167.325 43.645 167.239 43.1995 167.239 42.7195C167.239 42.2305 167.32 41.782 167.482 41.374C167.644 40.963 167.875 40.609 168.175 40.312C168.478 40.015 168.843 39.784 169.269 39.619C169.698 39.454 170.176 39.3715 170.704 39.3715C170.977 39.3715 171.234 39.394 171.474 39.439C171.714 39.484 171.934 39.5455 172.135 39.6235C172.339 39.7015 172.525 39.7945 172.693 39.9025C172.861 40.0105 173.011 40.1275 173.143 40.2535L172.702 40.924C172.633 41.029 172.543 41.0935 172.432 41.1175C172.324 41.1415 172.207 41.1145 172.081 41.0365C171.961 40.9645 171.847 40.903 171.739 40.852C171.634 40.798 171.526 40.7545 171.415 40.7215C171.304 40.6885 171.187 40.6645 171.064 40.6495C170.941 40.6345 170.803 40.627 170.65 40.627C170.365 40.627 170.109 40.678 169.881 40.78C169.653 40.879 169.458 41.02 169.296 41.203C169.137 41.386 169.014 41.6065 168.927 41.8645C168.84 42.1195 168.796 42.4045 168.796 42.7195C168.796 43.0675 168.844 43.3765 168.94 43.6465C169.036 43.9165 169.171 44.1445 169.345 44.3305C169.522 44.5165 169.732 44.659 169.975 44.758C170.221 44.854 170.493 44.902 170.79 44.902C170.973 44.902 171.138 44.884 171.285 44.848C171.435 44.812 171.58 44.764 171.721 44.704V43.7095H171.073C170.977 43.7095 170.902 43.684 170.848 43.633C170.794 43.582 170.767 43.5175 170.767 43.4395V42.6025ZM179.845 39.4435V46H178.315V43.228H175.651V46H174.121V39.4435H175.651V42.184H178.315V39.4435H179.845ZM185.829 40.6495H183.984V46H182.463V40.6495H180.618V39.4435H185.829V40.6495Z" fill="#007BFF" fill-opacity="0.7"/>
<rect x="337" y="10" width="10" height="2" fill="#007BFF" fill-opacity="0.5"/>
<rect x="337" y="195" width="10" height="2" fill="#007BFF" fill-opacity="0.5"/>
<rect x="341" y="12" width="2" height="183" fill="#007BFF" fill-opacity="0.5"/>
<rect x="337" y="152.5" width="97" height="10" transform="rotate(-90 337 152.5)" fill="white"/>
<path d="M339.649 142.837V144.682H345V146.203H339.649V148.048H338.443V142.837H339.649ZM341.719 135.778C342.193 135.778 342.634 135.861 343.042 136.026C343.45 136.188 343.806 136.417 344.109 136.714C344.409 137.011 344.644 137.37 344.815 137.79C344.987 138.207 345.072 138.67 345.072 139.18C345.072 139.69 344.987 140.155 344.815 140.575C344.644 140.995 344.409 141.355 344.109 141.655C343.806 141.952 343.45 142.183 343.042 142.348C342.634 142.51 342.193 142.591 341.719 142.591C341.245 142.591 340.804 142.51 340.396 142.348C339.988 142.183 339.634 141.952 339.334 141.655C339.034 141.355 338.799 140.995 338.628 140.575C338.457 140.155 338.371 139.69 338.371 139.18C338.371 138.67 338.458 138.207 338.632 137.79C338.803 137.37 339.039 137.011 339.339 136.714C339.639 136.417 339.993 136.188 340.401 136.026C340.809 135.861 341.248 135.778 341.719 135.778ZM341.719 137.335C341.395 137.335 341.104 137.377 340.846 137.461C340.585 137.545 340.365 137.667 340.185 137.826C340.005 137.982 339.867 138.174 339.771 138.402C339.675 138.63 339.627 138.889 339.627 139.18C339.627 139.474 339.675 139.737 339.771 139.968C339.867 140.196 340.005 140.389 340.185 140.548C340.365 140.704 340.585 140.824 340.846 140.908C341.104 140.992 341.395 141.034 341.719 141.034C342.046 141.034 342.34 140.992 342.601 140.908C342.859 140.824 343.078 140.704 343.258 140.548C343.438 140.389 343.576 140.196 343.672 139.968C343.765 139.737 343.812 139.474 343.812 139.18C343.812 138.889 343.765 138.63 343.672 138.402C343.576 138.174 343.438 137.982 343.258 137.826C343.078 137.667 342.859 137.545 342.601 137.461C342.34 137.377 342.046 137.335 341.719 137.335ZM339.649 130.33V132.175H345V133.696H339.649V135.541H338.443V130.33H339.649ZM342.493 126.734L340.698 127.341C340.584 127.386 340.45 127.434 340.297 127.485C340.141 127.536 339.973 127.587 339.793 127.638C339.976 127.683 340.146 127.731 340.302 127.782C340.458 127.833 340.593 127.881 340.707 127.926L342.493 128.529V126.734ZM345 124.317V125.496C345 125.628 344.97 125.735 344.91 125.816C344.847 125.897 344.767 125.958 344.671 126L343.528 126.387V128.88L344.671 129.267C344.755 129.3 344.832 129.36 344.901 129.447C344.967 129.531 345 129.636 345 129.762V130.95L338.443 128.412V126.855L345 124.317ZM343.785 119.849H345V123.8H338.443V122.279H343.785V119.849ZM341.602 114.111V111.78H344.37C344.616 112.116 344.794 112.475 344.905 112.856C345.016 113.234 345.072 113.63 345.072 114.044C345.072 114.584 344.988 115.076 344.82 115.52C344.649 115.961 344.415 116.339 344.118 116.654C343.818 116.969 343.464 117.212 343.056 117.383C342.645 117.554 342.199 117.639 341.719 117.639C341.23 117.639 340.782 117.558 340.374 117.396C339.963 117.234 339.609 117.003 339.312 116.703C339.015 116.4 338.784 116.036 338.619 115.61C338.454 115.181 338.371 114.702 338.371 114.174C338.371 113.901 338.394 113.645 338.439 113.405C338.484 113.165 338.545 112.944 338.623 112.743C338.701 112.539 338.794 112.353 338.902 112.185C339.01 112.017 339.127 111.867 339.253 111.735L339.924 112.176C340.029 112.245 340.093 112.335 340.117 112.446C340.141 112.554 340.114 112.671 340.036 112.797C339.964 112.917 339.903 113.031 339.852 113.139C339.798 113.244 339.754 113.352 339.721 113.463C339.688 113.574 339.664 113.691 339.649 113.814C339.634 113.937 339.627 114.075 339.627 114.228C339.627 114.513 339.678 114.77 339.78 114.998C339.879 115.226 340.02 115.421 340.203 115.583C340.386 115.742 340.606 115.865 340.864 115.952C341.119 116.039 341.404 116.082 341.719 116.082C342.067 116.082 342.376 116.034 342.646 115.938C342.916 115.842 343.144 115.707 343.33 115.533C343.516 115.356 343.659 115.146 343.758 114.903C343.854 114.657 343.902 114.386 343.902 114.089C343.902 113.906 343.884 113.741 343.848 113.594C343.812 113.444 343.764 113.298 343.704 113.157H342.709V113.805C342.709 113.901 342.684 113.976 342.633 114.03C342.582 114.084 342.517 114.111 342.439 114.111H341.602ZM341.526 108.624C341.526 108.417 341.5 108.242 341.449 108.098C341.395 107.951 341.322 107.831 341.229 107.738C341.136 107.645 341.028 107.577 340.905 107.535C340.779 107.493 340.644 107.472 340.5 107.472C340.212 107.472 339.987 107.567 339.825 107.756C339.663 107.942 339.582 108.231 339.582 108.624V109.236H341.526V108.624ZM345 105.393V106.77C345 107.025 344.904 107.208 344.712 107.319L342.808 108.408C342.727 108.459 342.669 108.516 342.633 108.579C342.594 108.642 342.574 108.732 342.574 108.849V109.236H345V110.757H338.443V108.624C338.443 108.15 338.493 107.747 338.592 107.414C338.688 107.078 338.823 106.805 338.997 106.595C339.171 106.382 339.376 106.227 339.613 106.131C339.85 106.035 340.108 105.987 340.387 105.987C340.6 105.987 340.801 106.016 340.99 106.073C341.179 106.13 341.355 106.214 341.517 106.325C341.676 106.436 341.818 106.574 341.944 106.739C342.07 106.901 342.174 107.088 342.255 107.301C342.306 107.202 342.37 107.109 342.448 107.022C342.523 106.935 342.613 106.857 342.718 106.788L345 105.393ZM345 103.312V104.842H338.443V103.312H345ZM341.719 96.0981C342.193 96.0981 342.631 96.1806 343.033 96.3456C343.432 96.5076 343.779 96.7371 344.073 97.0341C344.364 97.3311 344.592 97.6896 344.757 98.1096C344.919 98.5266 345 98.9901 345 99.5001V102.047H338.443V99.5001C338.443 98.9901 338.526 98.5266 338.691 98.1096C338.856 97.6896 339.084 97.3311 339.375 97.0341C339.666 96.7371 340.012 96.5076 340.414 96.3456C340.813 96.1806 341.248 96.0981 341.719 96.0981ZM341.719 97.6551C341.395 97.6551 341.103 97.6971 340.842 97.7811C340.581 97.8651 340.36 97.9866 340.18 98.1456C339.997 98.3016 339.858 98.4936 339.762 98.7216C339.663 98.9496 339.613 99.2091 339.613 99.5001V100.517H343.83V99.5001C343.83 99.2091 343.782 98.9496 343.686 98.7216C343.587 98.4936 343.447 98.3016 343.267 98.1456C343.084 97.9866 342.862 97.8651 342.601 97.7811C342.34 97.6971 342.046 97.6551 341.719 97.6551ZM338.443 87.3935H345V88.9235H342.228V91.5875H345V93.1175H338.443V91.5875H341.184V88.9235H338.443V87.3935ZM339.613 84.5914H341.143V82.5304H342.268V84.5914H343.83V81.9004H345V86.1214H338.443V81.9004H339.613V84.5914ZM345 79.4322V80.9622H338.443V79.4322H345ZM341.602 75.0173V72.6863H344.37C344.616 73.0223 344.794 73.3808 344.905 73.7618C345.016 74.1398 345.072 74.5358 345.072 74.9498C345.072 75.4898 344.988 75.9818 344.82 76.4258C344.649 76.8668 344.415 77.2448 344.118 77.5598C343.818 77.8748 343.464 78.1178 343.056 78.2888C342.645 78.4598 342.199 78.5453 341.719 78.5453C341.23 78.5453 340.782 78.4643 340.374 78.3023C339.963 78.1403 339.609 77.9093 339.312 77.6093C339.015 77.3063 338.784 76.9418 338.619 76.5158C338.454 76.0868 338.371 75.6083 338.371 75.0803C338.371 74.8073 338.394 74.5508 338.439 74.3108C338.484 74.0708 338.545 73.8503 338.623 73.6493C338.701 73.4453 338.794 73.2593 338.902 73.0913C339.01 72.9233 339.127 72.7733 339.253 72.6413L339.924 73.0823C340.029 73.1513 340.093 73.2413 340.117 73.3523C340.141 73.4603 340.114 73.5773 340.036 73.7033C339.964 73.8233 339.903 73.9373 339.852 74.0453C339.798 74.1503 339.754 74.2583 339.721 74.3693C339.688 74.4803 339.664 74.5973 339.649 74.7203C339.634 74.8433 339.627 74.9813 339.627 75.1343C339.627 75.4193 339.678 75.6758 339.78 75.9038C339.879 76.1318 340.02 76.3268 340.203 76.4888C340.386 76.6478 340.606 76.7708 340.864 76.8578C341.119 76.9448 341.404 76.9883 341.719 76.9883C342.067 76.9883 342.376 76.9403 342.646 76.8443C342.916 76.7483 343.144 76.6133 343.33 76.4393C343.516 76.2623 343.659 76.0523 343.758 75.8093C343.854 75.5633 343.902 75.2918 343.902 74.9948C343.902 74.8118 343.884 74.6468 343.848 74.4998C343.812 74.3498 343.764 74.2043 343.704 74.0633H342.709V74.7113C342.709 74.8073 342.684 74.8823 342.633 74.9363C342.582 74.9903 342.517 75.0173 342.439 75.0173H341.602ZM338.443 65.9394H345V67.4694H342.228V70.1334H345V71.6634H338.443V70.1334H341.184V67.4694H338.443V65.9394ZM339.649 59.9558V61.8008H345V63.3218H339.649V65.1668H338.443V59.9558H339.649Z" fill="#007BFF" fill-opacity="0.7"/>
</svg>
