<svg xmlns="http://www.w3.org/2000/svg" xmlns:xlink="http://www.w3.org/1999/xlink" width="750" height="750" viewBox="0 0 750 750">
  <defs>
    <path id="voyant-project-preview-a" d="M4.36363636,0 L594.872524,0 C597.282494,-4.42704273e-16 599.23616,1.95366655 599.23616,4.36363636 L599.23616,349.090909 C599.23616,351.500879 597.282494,353.454545 594.872524,353.454545 L4.36363636,353.454545 C1.95366655,353.454545 1.18414556e-14,351.500879 0,349.090909 L0,4.36363636 C-2.95136182e-16,1.95366655 1.95366655,1.19890237e-14 4.36363636,0 Z"/>
    <filter id="voyant-project-preview-b" width="108.3%" height="114.1%" x="-4.2%" y="-4.8%" filterUnits="objectBoundingBox">
      <feOffset dy="8" in="SourceAlpha" result="shadowOffsetOuter1"/>
      <feGaussianBlur in="shadowOffsetOuter1" result="shadowBlurOuter1" stdDeviation="7"/>
      <feColorMatrix in="shadowBlurOuter1" values="0 0 0 0 0   0 0 0 0 0   0 0 0 0 0  0 0 0 0.15 0"/>
    </filter>
    <polyline id="voyant-project-preview-e" points="0 61.602 11.728 47.746 23.89 62.365 36.866 57.9 49.14 50.33 61.615 45.915 74.684 54.14 87.176 49.723 99.59 38.965 111.956 56.783 124.641 45.998 136.989 63.818 149.523 18.127 162.114 23.224 174.639 21.979 187.179 42.954 199.663 41.713 212.135 46.822 224.665 32.878 237.234 47.502 249.82 52.6 262.299 25.961 274.783 56.467 287.277 17.128 299.899 0 312.39 8.282 324.875 19.739 337.49 43.883 349.974 26.768 361.636 25.536"/>
    <filter id="voyant-project-preview-d" width="102.5%" height="112.8%" x="-1.3%" y="-5%" filterUnits="objectBoundingBox">
      <feMorphology in="SourceAlpha" operator="dilate" radius=".818" result="shadowSpreadOuter1"/>
      <feOffset dy="1" in="shadowSpreadOuter1" result="shadowOffsetOuter1"/>
      <feMorphology in="SourceAlpha" radius="1" result="shadowInner"/>
      <feOffset dy="1" in="shadowInner" result="shadowInner"/>
      <feComposite in="shadowOffsetOuter1" in2="shadowInner" operator="out" result="shadowOffsetOuter1"/>
      <feGaussianBlur in="shadowOffsetOuter1" result="shadowBlurOuter1" stdDeviation="1"/>
      <feColorMatrix in="shadowBlurOuter1" values="0 0 0 0 0   0 0 0 0 0   0 0 0 0 0  0 0 0 0.1 0"/>
    </filter>
    <polyline id="voyant-project-preview-g" points="0 11.092 11.728 19.367 23.89 21.267 36.866 67.091 49.14 62.744 61.615 52.097 74.684 38.252 87.176 30.743 99.59 20.102 111.956 28.306 124.641 27.687 136.989 22.704 149.523 12.052 162.114 10.813 174.639 40.982 187.179 58.589 199.663 57.361 212.135 56.134 224.665 58.042 237.234 31.686 249.82 39.868 262.299 10.381 274.783 15.433 287.277 11.064 299.899 6.683 312.39 5.455 324.875 10.507 337.49 18.686 349.974 14.319 361.636 9.96"/>
    <filter id="voyant-project-preview-f" width="102.5%" height="113.9%" x="-1.3%" y="-5.4%" filterUnits="objectBoundingBox">
      <feMorphology in="SourceAlpha" operator="dilate" radius=".818" result="shadowSpreadOuter1"/>
      <feOffset dy="1" in="shadowSpreadOuter1" result="shadowOffsetOuter1"/>
      <feMorphology in="SourceAlpha" radius="1" result="shadowInner"/>
      <feOffset dy="1" in="shadowInner" result="shadowInner"/>
      <feComposite in="shadowOffsetOuter1" in2="shadowInner" operator="out" result="shadowOffsetOuter1"/>
      <feGaussianBlur in="shadowOffsetOuter1" result="shadowBlurOuter1" stdDeviation="1"/>
      <feColorMatrix in="shadowBlurOuter1" values="0 0 0 0 0   0 0 0 0 0   0 0 0 0 0  0 0 0 0.1 0"/>
    </filter>
    <path id="voyant-project-preview-i" d="M1.13015321e-14,9.56333555 L2.18181818,6.27272727 L2.18181818,1.09090909 C2.18181818,0.488416637 2.67023482,7.76809883e-16 3.27272727,0 L51.8181818,0 C52.4206743,-1.10676068e-16 52.9090909,0.488416637 52.9090909,1.09090909 L52.9090909,18 C52.9090909,18.6024925 52.4206743,19.0909091 51.8181818,19.0909091 L3.27272727,19.0909091 C2.67023482,19.0909091 2.18181818,18.6024925 2.18181818,18 L2.18181818,12.8181818 L1.13015321e-14,9.56333555 Z"/>
    <filter id="voyant-project-preview-h" width="113.2%" height="136.7%" x="-6.6%" y="-13.1%" filterUnits="objectBoundingBox">
      <feOffset dy="1" in="SourceAlpha" result="shadowOffsetOuter1"/>
      <feGaussianBlur in="shadowOffsetOuter1" result="shadowBlurOuter1" stdDeviation="1"/>
      <feColorMatrix in="shadowBlurOuter1" values="0 0 0 0 0   0 0 0 0 0   0 0 0 0 0  0 0 0 0.09 0"/>
    </filter>
    <linearGradient id="voyant-project-preview-j" x1="41.351%" x2="58.466%" y1="0%" y2="98.943%">
      <stop offset="0%" stop-color="#0086BF"/>
      <stop offset="100%" stop-color="#00BBE1"/>
    </linearGradient>
    <filter id="voyant-project-preview-k" width="247.7%" height="352.3%" x="-73.8%" y="-126.2%" filterUnits="objectBoundingBox">
      <feGaussianBlur in="SourceGraphic" stdDeviation="8.727"/>
    </filter>
    <ellipse id="voyant-project-preview-l" cx="11.126" cy="11.183" rx="10.998" ry="11.013"/>
  </defs>
  <g fill="none" fill-rule="evenodd" transform="translate(75 198)">
    <mask id="voyant-project-preview-c" fill="#fff">
      <use xlink:href="#voyant-project-preview-a"/>
    </mask>
    <use fill="#000" filter="url(#voyant-project-preview-b)" xlink:href="#voyant-project-preview-a"/>
    <use fill="#FFF" xlink:href="#voyant-project-preview-a"/>
    <g mask="url(#voyant-project-preview-c)">
      <g transform="translate(0 28.373)">
        <path fill="#F8F9FB" d="M12.6701989,0.274675983 L597.984627,0.274675983 C598.888366,0.274675983 599.620991,1.00730094 599.620991,1.91103962 L599.620991,323.183767 C599.620991,324.087506 598.888366,324.820131 597.984627,324.820131 L12.6701989,324.820131 C11.7664602,324.820131 11.0338353,324.087506 11.0338353,323.183767 L11.0338353,1.91103962 C11.0338353,1.00730094 11.7664602,0.274675983 12.6701989,0.274675983 Z"/>
        <g transform="translate(151.319 156.091)">
          <polygon fill="#FFF" fill-rule="nonzero" points="0 0 431.059 0 431.059 150.847 0 150.847"/>
          <path fill="#374352" fill-opacity=".06" fill-rule="nonzero" d="M.485657032 0L361.470548 0C361.738769 2.06015235e-15 361.956205.21743606 361.956205.485657032 361.956205.753878005 361.738769.971314064 361.470548.971314064L.485657032.971314064C.21743606.971314064 3.28475955e-17.753878005 0 .485657032-3.28475955e-17.21743606.21743606 4.92713933e-17.485657032 0zM.485657032 77.7348744L361.470548 77.7348744C361.738769 77.7348744 361.956205 77.9523105 361.956205 78.2205315 361.956205 78.4887524 361.738769 78.7061885 361.470548 78.7061885L.485657032 78.7061885C.21743606 78.7061885 3.28475955e-17 78.4887524 0 78.2205315-3.28475955e-17 77.9523105.21743606 77.7348744.485657032 77.7348744zM.485657032 38.8674372L361.470548 38.8674372C361.738769 38.8674372 361.956205 39.0848733 361.956205 39.3530942 361.956205 39.6213152 361.738769 39.8387513 361.470548 39.8387513L.485657032 39.8387513C.21743606 39.8387513 3.28475955e-17 39.6213152 0 39.3530942-3.28475955e-17 39.0848733.21743606 38.8674372.485657032 38.8674372z" transform="translate(55.29 49.537)"/>
          <rect width="38.949" height="6.067" x="11.785" y="17.033" fill="#374352" fill-opacity=".06" fill-rule="nonzero" rx="3"/>
          <rect width="25.369" height="6.067" x="56.405" y="17.033" fill="#00BBE1" rx="3"/>
          <rect width="19.549" height="4.124" x="25.365" y="48.115" fill="#374352" fill-opacity=".1" fill-rule="nonzero" rx="2.062"/>
          <rect width="19.549" height="4.124" x="25.365" y="86.968" fill="#374352" fill-opacity=".1" fill-rule="nonzero" rx="2.062"/>
          <rect width="19.549" height="4.124" x="25.365" y="125.82" fill="#374352" fill-opacity=".1" fill-rule="nonzero" rx="2.062"/>
          <g transform="translate(55.954 49.536)">
            <g stroke-linecap="round" stroke-linejoin="bevel" transform="translate(0 3.818)">
              <use fill="#000" filter="url(#voyant-project-preview-d)" xlink:href="#voyant-project-preview-e"/>
              <use stroke="#00BBE1" stroke-width="1.636" xlink:href="#voyant-project-preview-e"/>
              <use fill="#000" filter="url(#voyant-project-preview-f)" xlink:href="#voyant-project-preview-g"/>
              <use stroke="#3B3D74" stroke-width="1.636" xlink:href="#voyant-project-preview-g"/>
            </g>
            <line x1="273.545" x2="273.545" y2="77.455" stroke="#FFC107" stroke-width="1.091"/>
          </g>
          <g transform="translate(330.318 58.263)">
            <g opacity=".9">
              <use fill="#000" filter="url(#voyant-project-preview-h)" xlink:href="#voyant-project-preview-i"/>
              <use fill="#374352" xlink:href="#voyant-project-preview-i"/>
            </g>
            <rect width="23.429" height="3.153" x="6" y="3.818" fill="#F3F4F5" fill-opacity=".8" fill-rule="nonzero" rx="1.577"/>
            <rect width="41.455" height="3.153" x="6" y="11.455" fill="#F3F4F5" fill-opacity=".4" fill-rule="nonzero" rx="1.577"/>
          </g>
        </g>
        <g transform="translate(296.817 59.184)">
          <polygon fill="#FFF" fill-rule="nonzero" points=".447 .528 137.907 .528 137.907 83.983 .447 83.983"/>
          <rect width="23.429" height="3.153" x="12.61" y="67.035" fill="#00BBE1" rx="1.577"/>
          <rect width="23.429" height="3.153" x="41.71" y="67.035" fill="#F3F4F5" fill-rule="nonzero" rx="1.577"/>
          <g transform="translate(11.64 13.598)">
            <ellipse cx="17.75" cy="17.855" fill="#00A499" fill-rule="nonzero" opacity=".1" rx="17.303" ry="17.327"/>
            <path fill="#08CE6E" d="M15.3581936,4.85657032 C16.6975897,4.85657032 17.7831715,5.94363265 17.7831715,7.28485548 L17.7831715,7.28485548 L17.7831715,15.8534644 C17.7831715,16.3415497 17.3846668,16.6645116 16.9691873,16.6645116 C16.7703391,16.6645116 16.5682576,16.5908536 16.4033591,16.4265397 L16.4033591,16.4265397 L15.02193,15.044036 C14.7188077,14.7405004 14.3081781,14.569711 13.878957,14.569711 L13.878957,14.569711 L4.04162989,14.569711 C2.70223375,14.569711 1.61665196,13.4826486 1.61665196,12.1414258 L1.61665196,12.1414258 L1.61665196,7.28485548 C1.61665196,5.94363265 2.70223375,4.85657032 4.04162989,4.85657032 L4.04162989,4.85657032 Z M15.3581936,6.4754271 L4.04162989,6.4754271 C3.59624228,6.4754271 3.23330391,6.83805101 3.23330391,7.28485548 L3.23330391,7.28485548 L3.23330391,12.1414258 C3.23330391,12.5882303 3.59624228,12.9508542 4.04162989,12.9508542 L4.04162989,12.9508542 L13.878957,12.9508542 C14.7430575,12.9508542 15.5546168,13.2875764 16.1649029,13.8986948 L16.1649029,13.8986948 L16.1665196,13.9003137 L16.1665196,7.28485548 C16.1665196,6.83805101 15.8035812,6.4754271 15.3581936,6.4754271 L15.3581936,6.4754271 Z M6.06244484,8.49899806 C6.73173875,8.49899806 7.2749338,9.04293394 7.2749338,9.71314064 C7.2749338,10.3833473 6.73173875,10.9272832 6.06244484,10.9272832 C5.39315093,10.9272832 4.84995587,10.3833473 4.84995587,9.71314064 C4.84995587,9.04293394 5.39315093,8.49899806 6.06244484,8.49899806 Z M9.69991174,8.49899806 C10.3692056,8.49899806 10.9124007,9.04293394 10.9124007,9.71314064 C10.9124007,10.3833473 10.3692056,10.9272832 9.69991174,10.9272832 C9.03061783,10.9272832 8.48742277,10.3833473 8.48742277,9.71314064 C8.48742277,9.04293394 9.03061783,8.49899806 9.69991174,8.49899806 Z M13.3373786,8.49899806 C14.0066726,8.49899806 14.5498676,9.04293394 14.5498676,9.71314064 C14.5498676,10.3833473 14.0066726,10.9272832 13.3373786,10.9272832 C12.6680847,10.9272832 12.1248897,10.3833473 12.1248897,9.71314064 C12.1248897,9.04293394 12.6680847,8.49899806 13.3373786,8.49899806 Z" transform="translate(7.76 7.77)"/>
          </g>
          <rect width="23.429" height="3.153" x="55.289" y="34.967" fill="#0DD4A9" fill-rule="nonzero" opacity=".75" rx="1.577"/>
          <rect width="38.949" height="6.067" x="55.289" y="24.283" fill="#374352" fill-opacity=".06" fill-rule="nonzero" rx="3"/>
        </g>
        <g transform="translate(444.545 59.184)">
          <polygon fill="#FFF" fill-rule="nonzero" points=".447 .528 137.907 .528 137.907 83.983 .447 83.983"/>
          <rect width="23.429" height="3.153" x="12.61" y="67.035" fill="#00BBE1" rx="1.577"/>
          <rect width="23.429" height="3.153" x="41.71" y="67.035" fill="#F3F4F5" fill-rule="nonzero" rx="1.577"/>
          <g fill="#3B3D74" transform="translate(11.64 13.598)">
            <ellipse cx="17.75" cy="17.855" fill-opacity=".1" rx="17.303" ry="17.327"/>
            <path d="M10.9124007,11.3319974 L8.48742277,11.3319974 C8.2643248,11.3319974 8.08325978,11.1506855 8.08325978,10.9272832 L8.08325978,8.49899806 C8.08325978,8.27559583 8.2643248,8.09428387 8.48742277,8.09428387 L10.9124007,8.09428387 C11.1354987,8.09428387 11.3165637,8.27559583 11.3165637,8.49899806 L11.3165637,10.9272832 C11.3165637,11.1506855 11.1354987,11.3319974 10.9124007,11.3319974 L10.9124007,11.3319974 Z M16.5706826,8.09428387 C16.7937805,8.09428387 16.9748455,7.91297191 16.9748455,7.68956968 L16.9748455,6.88014129 C16.9748455,6.65673905 16.7937805,6.4754271 16.5706826,6.4754271 L13.3373786,6.4754271 C13.1142807,6.4754271 12.9332157,6.29411514 12.9332157,6.0707129 L12.9332157,2.83299935 C12.9332157,2.60959712 12.7521506,2.42828516 12.5290527,2.42828516 L11.7207267,2.42828516 C11.4976287,2.42828516 11.3165637,2.60959712 11.3165637,2.83299935 L11.3165637,6.0707129 C11.3165637,6.29411514 11.1354987,6.4754271 10.9124007,6.4754271 L8.48742277,6.4754271 C8.2643248,6.4754271 8.08325978,6.29411514 8.08325978,6.0707129 L8.08325978,2.83299935 C8.08325978,2.60959712 7.90219476,2.42828516 7.67909679,2.42828516 L6.87077081,2.42828516 C6.64767284,2.42828516 6.46660783,2.60959712 6.46660783,2.83299935 L6.46660783,6.0707129 C6.46660783,6.29411514 6.28554281,6.4754271 6.06244484,6.4754271 L2.82914092,6.4754271 C2.60604295,6.4754271 2.42497793,6.65673905 2.42497793,6.88014129 L2.42497793,7.68956968 C2.42497793,7.91297191 2.60604295,8.09428387 2.82914092,8.09428387 L6.06244484,8.09428387 C6.28554281,8.09428387 6.46660783,8.27559583 6.46660783,8.49899806 L6.46660783,10.9272832 C6.46660783,11.1506855 6.28554281,11.3319974 6.06244484,11.3319974 L2.82914092,11.3319974 C2.60604295,11.3319974 2.42497793,11.5133094 2.42497793,11.7367116 L2.42497793,12.54614 C2.42497793,12.7695422 2.60604295,12.9508542 2.82914092,12.9508542 L6.06244484,12.9508542 C6.28554281,12.9508542 6.46660783,13.1321661 6.46660783,13.3555684 L6.46660783,16.5932819 C6.46660783,16.8166842 6.64767284,16.9979961 6.87077081,16.9979961 L7.67909679,16.9979961 C7.90219476,16.9979961 8.08325978,16.8166842 8.08325978,16.5932819 L8.08325978,13.3555684 C8.08325978,13.1321661 8.2643248,12.9508542 8.48742277,12.9508542 L10.9124007,12.9508542 C11.1354987,12.9508542 11.3165637,13.1321661 11.3165637,13.3555684 L11.3165637,16.5932819 C11.3165637,16.8166842 11.4976287,16.9979961 11.7207267,16.9979961 L12.5290527,16.9979961 C12.7521506,16.9979961 12.9332157,16.8166842 12.9332157,16.5932819 L12.9332157,13.3555684 C12.9332157,13.1321661 13.1142807,12.9508542 13.3373786,12.9508542 L16.5706826,12.9508542 C16.7937805,12.9508542 16.9748455,12.7695422 16.9748455,12.54614 L16.9748455,11.7367116 C16.9748455,11.5133094 16.7937805,11.3319974 16.5706826,11.3319974 L13.3373786,11.3319974 C13.1142807,11.3319974 12.9332157,11.1506855 12.9332157,10.9272832 L12.9332157,8.49899806 C12.9332157,8.27559583 13.1142807,8.09428387 13.3373786,8.09428387 L16.5706826,8.09428387 Z" transform="translate(7.76 7.77)"/>
          </g>
          <rect width="23.429" height="3.153" x="55.289" y="34.967" fill="#3B3D74" rx="1.577"/>
          <rect width="38.949" height="6.067" x="55.289" y="24.283" fill="#374352" fill-opacity=".06" fill-rule="nonzero" rx="3"/>
        </g>
        <g transform="translate(150.349 59.184)">
          <polygon fill="#FFF" fill-rule="nonzero" points=".447 .528 137.907 .528 137.907 83.983 .447 83.983"/>
          <g fill="#00BBE1" transform="translate(11.64 13.598)">
            <ellipse cx="17.75" cy="17.855" fill-opacity=".1" rx="17.303" ry="17.327"/>
            <path d="M11.983756,11.9440872 C11.7549997,12.172346 11.4155028,12.240338 11.1131889,12.1278274 C10.3105212,11.8259106 9.50138688,11.2989727 8.78036011,10.5769626 C8.05852501,9.85414307 7.5323048,9.04471468 7.23160753,8.24095229 C7.11844189,7.93822608 7.18634128,7.59745673 7.41509753,7.36919792 L8.2977895,6.48449269 C8.57666196,6.20443047 8.61303663,5.763292 8.38347205,5.44194893 L6.47501442,2.76678811 C6.18482539,2.36045506 5.59878906,2.31188936 5.2455506,2.66560956 L3.63455693,4.27880034 C2.45844263,5.58602718 3.94899573,9.1734138 7.06509238,12.2945697 C10.1819974,15.4149161 13.7572232,16.8994077 15.0618613,15.7216894 L16.6752799,14.116593 C17.0309434,13.7628727 16.9832521,13.1752277 16.5758558,12.8838335 L13.9075718,10.974392 C13.585858,10.7445143 13.1453204,10.7809386 12.8656396,11.0601914 L11.983756,11.9440872 Z" transform="translate(8.73 8.742)"/>
          </g>
          <rect width="23.429" height="3.153" x="55.289" y="34.967" fill="#00BBE1" rx="1.577"/>
          <rect width="23.429" height="3.153" x="12.61" y="67.035" fill="#00BBE1" rx="1.577"/>
          <rect width="23.429" height="3.153" x="41.71" y="67.035" fill="#F3F4F5" fill-rule="nonzero" rx="1.577"/>
          <rect width="58.349" height="6.067" x="55.289" y="24.283" fill="#374352" fill-opacity=".06" fill-rule="nonzero" rx="3"/>
        </g>
        <polygon fill="url(#voyant-project-preview-j)" points="0 .275 134.979 .275 134.979 324.82 0 324.82"/>
        <g transform="translate(14.55 277.081)">
          <rect width="105.729" height="18.455" fill="#00BBE1" rx="1.636"/>
          <rect width="51.89" height="4.005" x="27.322" y="7.338" fill="#FFF" fill-rule="nonzero" opacity=".3" rx="1.636"/>
        </g>
        <rect width="51.89" height="4.005" x="14.712" y="204.84" fill="#FFF" fill-rule="nonzero" opacity=".3" rx="1.636"/>
        <rect width="42.19" height="4.005" x="14.712" y="189.299" fill="#FFF" fill-rule="nonzero" opacity=".3" rx="1.636"/>
        <rect width="135.309" height="1" x=".162" y="154.331" fill="#FFF" fill-rule="nonzero" opacity=".3" rx=".5"/>
        <rect width="32.995" height="4.005" x="14.712" y="116.288" fill="#FFF" fill-rule="nonzero" opacity=".3" rx="1.636"/>
        <rect width="62.99" height="4.005" x="14.712" y="100.635" fill="#FFF" fill-rule="nonzero" opacity=".3" rx="1.636"/>
        <g transform="translate(28.671 22.364)">
          <ellipse cx="36.818" cy="10.377" fill="#000" fill-opacity=".06" fill-rule="nonzero" filter="url(#voyant-project-preview-k)" rx="17.727" ry="10.377"/>
          <path fill="#FFFFFE" d="M35.7415947,4.09093973 L39.9846826,11.7705291 L44.0120112,4.09093973 L45.6705739,4.09093973 L38.1107872,18.5454545 L36.4523311,18.5454545 L39.1876638,13.3064678 L34.0617014,4.09093973 L35.7415947,4.09093973 Z M28.720513,3.71221655 C31.9080549,3.71221655 34.1696343,5.79514198 34.1696343,8.90911134 C34.1696343,12.0441267 31.9080549,14.1480981 28.720513,14.1480981 C25.5328644,14.1480981 23.2713916,12.0441267 23.2713916,8.90911134 C23.2713916,5.79514198 25.5328644,3.71221655 28.720513,3.71221655 Z M70.5458151,0.00916853933 L70.5458151,4.09093973 L74.0996039,4.09093973 L74.0996039,5.39547702 L70.5458151,5.39547702 L70.5458151,10.2977283 C70.5458151,12.0441267 71.1488319,12.822619 72.6995683,12.822619 C73.2381666,12.822619 73.8410767,12.7594811 74.487288,12.6542513 L74.6811833,13.8535587 C73.8840579,14.0428682 73.3240223,14.1270521 72.4625851,14.1270521 C70.1795683,14.1270521 69.0811478,12.9698366 69.0811478,10.4240041 L69.0811478,5.39547702 L66.798131,5.39547702 L66.798131,4.09093973 L69.0811478,4.09093973 L69.0811478,0.00916853933 L70.5458151,0.00916853933 Z M50.4948146,3.77535444 C52.3686034,3.77535444 53.5963941,3.92257201 55.5993398,4.30139939 L55.5993398,13.8114668 L54.1347791,13.8114668 L54.1347791,12.9487906 C52.8856577,13.7483289 51.7870239,14.1270521 50.4086389,14.1270521 C47.4365363,14.1270521 45.4550279,12.0441267 45.4550279,8.90911134 C45.4765719,5.83723391 47.3719045,3.77535444 50.4948146,3.77535444 Z M4.95937024,11.4606742 C5.63674395,11.4606742 6.18588116,11.9970966 6.18588116,12.6588355 C6.18588116,13.3205525 5.63674395,13.8569969 4.95937024,13.8569969 C4.28199653,13.8569969 3.73285932,13.3205525 3.73285932,12.6588355 C3.73285932,11.9970966 4.28199653,11.4606742 4.95937024,11.4606742 Z M1.22651092,11.4606742 C1.90388463,11.4606742 2.45302184,11.9970966 2.45302184,12.6588355 C2.45302184,13.3205525 1.90388463,13.8569969 1.22651092,13.8569969 C0.549137213,13.8569969 0,13.3205525 0,12.6588355 C0,11.9970966 0.549137213,11.4606742 1.22651092,11.4606742 Z M8.79888268,11.4606742 C9.47625639,11.4606742 10.0253936,11.9970966 10.0253936,12.6588355 C10.0253936,13.3205525 9.47625639,13.8569969 8.79888268,13.8569969 C8.12148643,13.8569969 7.57237176,13.3205525 7.57237176,12.6588355 C7.57237176,11.9970966 8.12148643,11.4606742 8.79888268,11.4606742 Z M62.6201016,3.77535444 C65.1401016,3.77535444 66.6694007,5.26920123 66.6694007,7.75189581 L66.6694007,13.8114668 L65.2046267,13.8114668 L65.2046267,8.08852707 C65.2046267,6.2159571 64.1277501,5.1008335 62.3402438,5.1008335 C61.24161,5.1008335 59.9923819,5.1639714 58.6356475,5.39547702 L58.6356475,13.8114668 L57.1709802,13.8114668 L57.1709802,4.30139939 C58.6356475,3.98570991 60.8324886,3.77535444 62.6201016,3.77535444 Z M14.1612951,4.09093973 L17.9735043,12.1282063 L21.7856069,4.09093973 L23.4009751,4.09093973 L18.7703098,13.8114668 L17.1765922,13.8114668 L12.5459269,4.09093973 L14.1612951,4.09093973 Z M50.68871,5.01675383 C48.2117979,5.01675383 46.9195886,6.63677222 46.9195886,8.95120327 C46.9195886,11.2866803 48.3409548,12.8856527 50.581097,12.8856527 C51.7656932,12.8856527 52.7993753,12.5700674 54.1347791,11.7074954 L54.1347791,5.29024719 C52.8856577,5.1008335 51.8733062,5.01675383 50.68871,5.01675383 Z M28.720513,5.03769561 C26.4159523,5.03769561 24.7790401,6.57363432 24.7790401,8.90911134 C24.7790401,11.2655301 26.4159523,12.8435608 28.720513,12.8435608 C31.0465109,12.8435608 32.6618791,11.2655301 32.6618791,8.90911134 C32.6618791,6.57363432 31.0465109,5.03769561 28.720513,5.03769561 Z M4.95937024,7.70990807 C5.63674395,7.70990807 6.18588116,8.24633052 6.18588116,8.90806946 C6.18588116,9.56978637 5.63674395,10.1062308 4.95937024,10.1062308 C4.28199653,10.1062308 3.73285932,9.56978637 3.73285932,8.90806946 C3.73285932,8.24633052 4.28199653,7.70990807 4.95937024,7.70990807 Z M1.22651092,7.70990807 C1.90388463,7.70990807 2.45302184,8.24633052 2.45302184,8.90806946 C2.45302184,9.56978637 1.90388463,10.1062308 1.22651092,10.1062308 C0.549137213,10.1062308 0,9.56978637 0,8.90806946 C0,8.24633052 0.549137213,7.70990807 1.22651092,7.70990807 Z M8.79888268,7.70990807 C9.47625639,7.70990807 10.0253936,8.24633052 10.0253936,8.90806946 C10.0253936,9.56978637 9.47625639,10.1062308 8.79888268,10.1062308 C8.12148643,10.1062308 7.57237176,9.56978637 7.57237176,8.90806946 C7.57237176,8.24633052 8.12148643,7.70990807 8.79888268,7.70990807 Z M4.95937024,4.06332993 C5.63674395,4.06332993 6.18588116,4.5997744 6.18588116,5.26149132 C6.18588116,5.92323026 5.63674395,6.45965271 4.95937024,6.45965271 C4.28199653,6.45965271 3.73285932,5.92323026 3.73285932,5.26149132 C3.73285932,4.5997744 4.28199653,4.06332993 4.95937024,4.06332993 Z M1.22651092,4.06332993 C1.90388463,4.06332993 2.45302184,4.5997744 2.45302184,5.26149132 C2.45302184,5.92323026 1.90388463,6.45965271 1.22651092,6.45965271 C0.549137213,6.45965271 0,5.92323026 0,5.26149132 C0,4.5997744 0.549137213,4.06332993 1.22651092,4.06332993 Z M8.79888268,4.06332993 C9.47625639,4.06332993 10.0253936,4.5997744 10.0253936,5.26149132 C10.0253936,5.92323026 9.47625639,6.45965271 8.79888268,6.45965271 C8.12148643,6.45965271 7.57237176,5.92323026 7.57237176,5.26149132 C7.57237176,4.5997744 8.12148643,4.06332993 8.79888268,4.06332993 Z M75.4593245,4.29421042 L75.8145861,5.05061491 L76.169741,4.29421042 L76.2583697,4.29421042 L76.3103098,5.15865781 L76.2193347,5.15865781 L76.1776333,4.49122983 L75.8561808,5.15865781 L75.7728847,5.15865781 L75.4501524,4.49122983 L75.4097308,5.15865781 L75.3186491,5.15865781 L75.3708024,4.29421042 L75.4593245,4.29421042 Z M75.2932656,4.29421042 L75.2932656,4.37683146 L74.9431234,4.37683146 L74.9431234,5.15865781 L74.8508685,5.15865781 L74.8508685,4.37683146 L74.5007263,4.37683146 L74.5007263,4.29421042 L75.2932656,4.29421042 Z" transform="translate(.238 13.354)"/>
        </g>
        <g transform="translate(134.829)">
          <polygon fill="#FFF" fill-rule="nonzero" points="0 0 463.775 0 463.775 45.273 0 45.273"/>
          <rect width="69.989" height="8.01" x="19.636" y="18.545" fill="#374352" fill-opacity=".06" fill-rule="nonzero" rx="3"/>
          <g transform="translate(339.173 11.077)">
            <path fill="#374352" d="M8.35260844,10.0893953 L11.3590221,7.07888149 C11.5641824,6.87278913 11.4189419,6.52191035 11.1291122,6.52191035 L4.88572376,6.52191035 C4.59524272,6.52191035 4.4500022,6.87278913 4.65516258,7.07888149 L7.6615762,10.0893953 C7.85240791,10.2804873 8.16177673,10.2804873 8.35260844,10.0893953" transform="translate(85.349 4.715)"/>
            <g transform="translate(.483 .112)">
              <mask id="voyant-project-preview-m" fill="#fff">
                <use xlink:href="#voyant-project-preview-l"/>
              </mask>
              <use fill="#374352" fill-opacity=".06" fill-rule="nonzero" xlink:href="#voyant-project-preview-l"/>
              <path fill="#374352" fill-opacity=".5" fill-rule="nonzero" d="M13.640718,17.5853169 C13.209873,17.5166702 13.2000519,16.3303575 13.2000519,16.3303575 C13.2000519,16.3303575 14.4660462,15.075359 14.7419741,13.3877572 C15.4842122,13.3877572 15.9426889,11.5936143 15.2002949,10.9623686 C15.2313952,10.2978727 16.1543895,5.74607386 11.4811539,5.74607386 C6.80787931,5.74607386 7.73099046,10.2978727 7.76189594,10.9623686 C7.01957988,11.5936143 7.47797865,13.3877572 8.22025574,13.3877572 C8.49614461,15.075359 9.76217796,16.3303575 9.76217796,16.3303575 C9.76217796,16.3303575 9.7523568,17.5166702 9.32151184,17.5853169 C7.9336883,17.8064383 2.75123332,20.0953919 2.75123332,22.6053108 L11.4811539,22.6053108 L20.2110744,22.6053108 C20.2110744,20.0953919 15.0285805,17.8064383 13.640718,17.5853169 Z" mask="url(#voyant-project-preview-m)"/>
              <rect width="39.994" height="3.004" x="30.123" y="7.179" fill="#00BBE1" rx="1.502"/>
              <rect width="19.997" height="3.004" x="30.123" y="13.186" fill="#00BBE1" rx="1.502"/>
            </g>
          </g>
        </g>
      </g>
    </g>
    <g mask="url(#voyant-project-preview-c)">
      <g transform="translate(0 12.209)">
        <line x1=".205" x2="599.03" y1="15.933" y2="15.933" stroke="#374352" stroke-linecap="square" stroke-width=".545" opacity=".06"/>
        <ellipse cx="14.878" cy="3.311" fill="#374352" fill-opacity=".1" rx="3.306" ry="3.311"/>
        <ellipse cx="29.755" cy="3.311" fill="#374352" fill-opacity=".1" rx="3.306" ry="3.311"/>
        <ellipse cx="44.633" cy="3.311" fill="#374352" fill-opacity=".1" rx="3.306" ry="3.311"/>
      </g>
    </g>
  </g>
</svg>
