<svg xmlns="http://www.w3.org/2000/svg" xmlns:xlink="http://www.w3.org/1999/xlink" width="756" height="328" viewBox="0 0 756 328">
  <defs>
    <path id="before-number-search-b" d="M3,0 L705,0 C706.656854,-3.04359188e-16 708,1.34314575 708,3 L708,280 L708,280 L0,280 L0,3 C-2.02906125e-16,1.34314575 1.34314575,3.04359188e-16 3,0 Z"/>
    <filter id="before-number-search-a" width="102%" height="105%" x="-1%" y="-1.8%" filterUnits="objectBoundingBox">
      <feOffset dy="2" in="SourceAlpha" result="shadowOffsetOuter1"/>
      <feGaussianBlur in="shadowOffsetOuter1" result="shadowBlurOuter1" stdDeviation="2"/>
      <feColorMatrix in="shadowBlurOuter1" values="0 0 0 0 0.215686275   0 0 0 0 0.262745098   0 0 0 0 0.321568627  0 0 0 0.2 0"/>
    </filter>
  </defs>
  <g fill="none" fill-rule="evenodd">
    <rect width="756" height="328" fill="#F8F9FB"/>
    <g transform="translate(24 24)">
      <use fill="#000" filter="url(#before-number-search-a)" xlink:href="#before-number-search-b"/>
      <use fill="#FFF" xlink:href="#before-number-search-b"/>
    </g>
    <g transform="translate(48 48)">
      <g transform="translate(0 162)">
        <rect width="528" height="43" x="1" y="26" fill="#F8F9FB" stroke="#EBEBEB" stroke-width="2"/>
        <text fill="#374352" font-family="Lato-Regular, Lato" font-size="14" letter-spacing="1" opacity=".4">
          <tspan x="15" y="53">1-303</tspan>
        </text>
        <text fill="#374352" font-family="Lato-Bold, Lato" font-size="14" font-weight="bold" letter-spacing=".583">
          <tspan x="0" y="14">ENTER AREA CODE</tspan>
        </text>
        <g transform="translate(548 25)">
          <path fill="#08CE6E" d="M1,0 L111,0 C111.552285,-1.01453063e-16 112,0.44771525 112,1 L112,44 C112,44.5522847 111.552285,45 111,45 L1,45 C0.44771525,45 6.76353751e-17,44.5522847 0,44 L0,1 C-6.76353751e-17,0.44771525 0.44771525,1.01453063e-16 1,0 Z"/>
          <text fill="#FFF" font-family="Lato-Bold, Lato" font-size="14" font-weight="bold" letter-spacing=".7">
            <tspan x="27.219" y="28.511">SEARCH</tspan>
          </text>
        </g>
      </g>
      <g transform="translate(0 79)">
        <g transform="translate(0 25)">
          <path fill="#374352" d="M1,0 L130,0 C130.552285,-1.01453063e-16 131,0.44771525 131,1 L131,33 C131,33.5522847 130.552285,34 130,34 L1,34 C0.44771525,34 6.76353751e-17,33.5522847 0,33 L0,1 C-6.76353751e-17,0.44771525 0.44771525,1.01453063e-16 1,0 Z"/>
          <text fill="#FFF" font-family="Lato-Bold, Lato" font-size="10" font-weight="bold" letter-spacing=".5">
            <tspan x="35.22" y="21">AREA CODE</tspan>
          </text>
        </g>
        <g opacity=".3" transform="translate(139 25)">
          <path fill="#374352" d="M1,0 L130,0 C130.552285,-1.01453063e-16 131,0.44771525 131,1 L131,33 C131,33.5522847 130.552285,34 130,34 L1,34 C0.44771525,34 6.76353751e-17,33.5522847 0,33 L0,1 C-6.76353751e-17,0.44771525 0.44771525,1.01453063e-16 1,0 Z"/>
          <text fill="#FFF" font-family="Lato-Bold, Lato" font-size="10" font-weight="bold" letter-spacing=".5">
            <tspan x="38.188" y="21">LOCATION</tspan>
          </text>
        </g>
        <g opacity=".3" transform="translate(278 25)">
          <path fill="#374352" d="M1,0 L130,0 C130.552285,-1.01453063e-16 131,0.44771525 131,1 L131,33 C131,33.5522847 130.552285,34 130,34 L1,34 C0.44771525,34 6.76353751e-17,33.5522847 0,33 L0,1 C-6.76353751e-17,0.44771525 0.44771525,1.01453063e-16 1,0 Z"/>
          <text fill="#FFF" font-family="Lato-Bold, Lato" font-size="10" font-weight="bold" letter-spacing=".5">
            <tspan x="41.097" y="21">ADDRESS</tspan>
          </text>
        </g>
        <text fill="#374352" font-family="Lato-Bold, Lato" font-size="14" font-weight="bold" letter-spacing=".583">
          <tspan x="0" y="14">SEARCH BY:</tspan>
        </text>
        <text fill="#374352" font-family="Lato-Regular, Lato" font-size="10">
          <tspan x="451" y="46">BLOCK SEARCH</tspan>
        </text>
        <g transform="translate(533 30)">
          <text fill="#374352" font-family="Lato-Regular, Lato" font-size="10" opacity=".3">
            <tspan x="0" y="16">| BLOCK SIZE</tspan>
          </text>
          <rect width="49" height="24" x="75.5" y=".5" fill="#F8F9FB" stroke="#EBEBEB" opacity=".6"/>
        </g>
        <rect width="16" height="16" x="426" y="34" stroke="#EBEBEB" stroke-width="2" rx="1"/>
      </g>
      <text fill="#FFF" font-family="Lato-Bold, Lato" font-size="12" font-weight="bold" transform="translate(10.028 9)">
        <tspan x="0" y="23.25">1. </tspan> <tspan x="0" y="38.25">SEARC</tspan> <tspan x="0" y="53.25">H</tspan>
      </text>
      <rect width="660" height="55" fill="#41B6E6" opacity=".1"/>
      <path fill="#38A5D2" fill-rule="nonzero" d="M7.05,5.65 C6.95,5.55 6.95,5.4 7.05,5.3 L10.8,1.55 C10.9,1.45 10.95,1.3 10.95,1.2 C10.95,1.1 10.9,0.95 10.8,0.85 L10.1,0.15 C10,0.05 9.85,0 9.75,0 C9.6,0 9.5,0.05 9.4,0.15 L5.65,3.9 C5.55,4 5.4,4 5.3,3.9 L1.55,0.15 C1.45,0.05 1.3,0 1.2,0 C1.1,0 0.95,0.05 0.85,0.15 L0.15,0.85 C0.05,0.95 0,1.1 0,1.2 C0,1.3 0.05,1.45 0.15,1.55 L3.9,5.3 C4,5.4 4,5.55 3.9,5.65 L0.15,9.4 C0.05,9.5 0,9.65 0,9.75 C0,9.85 0.05,10 0.15,10.1 L0.85,10.8 C0.95,10.9 1.1,10.95 1.2,10.95 C1.3,10.95 1.45,10.9 1.55,10.8 L5.3,7.05 C5.4,6.95 5.55,6.95 5.65,7.05 L9.4,10.8 C9.5,10.9 9.65,10.95 9.75,10.95 C9.85,10.95 10,10.9 10.1,10.8 L10.8,10.1 C10.9,10 10.95,9.85 10.95,9.75 C10.95,9.65 10.9,9.5 10.8,9.4 L7.05,5.65 Z" transform="translate(634 22)"/>
      <text fill="#37A5D2" font-family="Lato-Regular, Lato" font-size="12">
        <tspan x="17" y="23">Start by searching for numbers that have a matching prefix and area code, for instance &quot;1303&quot; would find </tspan> <tspan x="17" y="38">numbers in the US 303 Area Code.</tspan>
      </text>
      <rect width="5" height="55" fill="#41B6E6"/>
    </g>
  </g>
</svg>
