<svg width="38" height="38" viewBox="0 0 38 38" fill="none" xmlns="http://www.w3.org/2000/svg">
<path fill-rule="evenodd" clip-rule="evenodd" d="M0 4C0 1.79086 1.79086 0 4 0H34C36.2091 0 38 1.79086 38 4V34C38 36.2091 36.2091 38 34 38H4C1.79086 38 0 36.2091 0 34V4Z" fill="#14A6E0"/>
<path fill-rule="evenodd" clip-rule="evenodd" d="M11 25H21C22.105 25 23 24.104 23 23V15C23 13.896 22.105 13 21 13H11C9.895 13 9 13.896 9 15V23C9 24.104 9.895 25 11 25ZM28.3143 24.726L24.3143 23.126C24.1243 23.05 24.0003 22.866 24.0003 22.661V15.339C24.0003 15.134 24.1243 14.95 24.3143 14.874L28.3143 13.274C28.6423 13.143 29.0003 13.385 29.0003 13.738V24.262C29.0003 24.615 28.6423 24.857 28.3143 24.726Z" fill="white"/>
</svg>
