<svg width="225" height="36" viewBox="0 0 225 36" fill="none" xmlns="http://www.w3.org/2000/svg">
<rect width="225" height="36" rx="4" fill="#14A6E0"/>
<path fill-rule="evenodd" clip-rule="evenodd" d="M33.99 22C33.99 23.1 33.1 24 32 24H36V26H12V24H16C14.89 24 14 23.1 14 22V12C14 10.89 14.89 10 16 10H32C33.1 10 34 10.89 34 12L33.99 22ZM32 12H16V22H32V12Z" fill="white"/>
<path d="M49.248 12.576V24H56.816V22.72H50.768V12.576H49.248ZM63.6586 19.072H58.9066C58.928 18.752 58.9973 18.4533 59.1146 18.176C59.232 17.888 59.392 17.6373 59.5946 17.424C59.7973 17.2107 60.0373 17.0453 60.3146 16.928C60.6026 16.8 60.9226 16.736 61.2746 16.736C61.616 16.736 61.9253 16.8 62.2026 16.928C62.4906 17.0453 62.736 17.2107 62.9386 17.424C63.152 17.6267 63.3173 17.872 63.4346 18.16C63.5626 18.448 63.6373 18.752 63.6586 19.072ZM64.9706 21.376H63.6266C63.5093 21.92 63.264 22.3253 62.8906 22.592C62.528 22.8587 62.0586 22.992 61.4826 22.992C61.0346 22.992 60.6453 22.9173 60.3146 22.768C59.984 22.6187 59.712 22.4213 59.4986 22.176C59.2853 21.92 59.1306 21.632 59.0346 21.312C58.9386 20.9813 58.896 20.6347 58.9066 20.272H65.0986C65.12 19.7707 65.072 19.2427 64.9546 18.688C64.848 18.1333 64.6453 17.6213 64.3466 17.152C64.0586 16.6827 63.6693 16.2987 63.1786 16C62.6986 15.6907 62.0906 15.536 61.3546 15.536C60.7893 15.536 60.2666 15.6427 59.7866 15.856C59.3173 16.0693 58.9066 16.368 58.5546 16.752C58.2133 17.136 57.9466 17.5893 57.7546 18.112C57.5626 18.6347 57.4666 19.2107 57.4666 19.84C57.488 20.4693 57.5786 21.0507 57.7386 21.584C57.9093 22.1173 58.16 22.576 58.4906 22.96C58.8213 23.344 59.2266 23.6427 59.7066 23.856C60.1973 24.0693 60.7733 24.176 61.4346 24.176C62.3733 24.176 63.152 23.9413 63.7706 23.472C64.3893 23.0027 64.7893 22.304 64.9706 21.376ZM73.8364 23.968C73.6017 24.1067 73.2764 24.176 72.8604 24.176C72.5084 24.176 72.2257 24.08 72.0124 23.888C71.8097 23.6853 71.7084 23.36 71.7084 22.912C71.335 23.36 70.8977 23.6853 70.3964 23.888C69.9057 24.08 69.3724 24.176 68.7964 24.176C68.423 24.176 68.0657 24.1333 67.7244 24.048C67.3937 23.9627 67.1057 23.8293 66.8604 23.648C66.615 23.4667 66.4177 23.232 66.2684 22.944C66.1297 22.6453 66.0604 22.288 66.0604 21.872C66.0604 21.4027 66.1404 21.0187 66.3004 20.72C66.4604 20.4213 66.6684 20.1813 66.9244 20C67.191 19.808 67.4897 19.664 67.8204 19.568C68.1617 19.472 68.5084 19.392 68.8604 19.328C69.2337 19.2533 69.5857 19.2 69.9164 19.168C70.2577 19.1253 70.5564 19.072 70.8124 19.008C71.0684 18.9333 71.271 18.832 71.4204 18.704C71.5697 18.5653 71.6444 18.368 71.6444 18.112C71.6444 17.8133 71.5857 17.5733 71.4684 17.392C71.3617 17.2107 71.2177 17.072 71.0364 16.976C70.8657 16.88 70.6684 16.816 70.4444 16.784C70.231 16.752 70.0177 16.736 69.8044 16.736C69.2284 16.736 68.7484 16.848 68.3644 17.072C67.9804 17.2853 67.7724 17.696 67.7404 18.304H66.3804C66.4017 17.792 66.5084 17.36 66.7004 17.008C66.8924 16.656 67.1484 16.3733 67.4684 16.16C67.7884 15.936 68.151 15.776 68.5564 15.68C68.9724 15.584 69.415 15.536 69.8844 15.536C70.2577 15.536 70.6257 15.5627 70.9884 15.616C71.3617 15.6693 71.6977 15.7813 71.9964 15.952C72.295 16.112 72.535 16.3413 72.7164 16.64C72.8977 16.9387 72.9884 17.328 72.9884 17.808V22.064C72.9884 22.384 73.0044 22.6187 73.0364 22.768C73.079 22.9173 73.207 22.992 73.4204 22.992C73.5377 22.992 73.6764 22.9653 73.8364 22.912V23.968ZM71.6284 19.728C71.4577 19.856 71.2337 19.952 70.9564 20.016C70.679 20.0693 70.3857 20.1173 70.0764 20.16C69.7777 20.192 69.4737 20.2347 69.1644 20.288C68.855 20.3307 68.5777 20.4053 68.3324 20.512C68.087 20.6187 67.8844 20.7733 67.7244 20.976C67.575 21.168 67.5004 21.4347 67.5004 21.776C67.5004 22 67.543 22.192 67.6284 22.352C67.7244 22.5013 67.8417 22.624 67.9804 22.72C68.1297 22.816 68.3004 22.8853 68.4924 22.928C68.6844 22.9707 68.887 22.992 69.1004 22.992C69.5484 22.992 69.9324 22.9333 70.2524 22.816C70.5724 22.688 70.8337 22.5333 71.0364 22.352C71.239 22.16 71.3884 21.9573 71.4844 21.744C71.5804 21.52 71.6284 21.312 71.6284 21.12V19.728ZM78.8301 24L81.8541 15.728H80.4301L78.1741 22.624H78.1421L75.8221 15.728H74.3021L77.3741 24H78.8301ZM88.8461 19.072H84.0941C84.1155 18.752 84.1848 18.4533 84.3021 18.176C84.4195 17.888 84.5795 17.6373 84.7821 17.424C84.9848 17.2107 85.2248 17.0453 85.5021 16.928C85.7901 16.8 86.1101 16.736 86.4621 16.736C86.8035 16.736 87.1128 16.8 87.3901 16.928C87.6781 17.0453 87.9235 17.2107 88.1261 17.424C88.3395 17.6267 88.5048 17.872 88.6221 18.16C88.7501 18.448 88.8248 18.752 88.8461 19.072ZM90.1581 21.376H88.8141C88.6968 21.92 88.4515 22.3253 88.0781 22.592C87.7155 22.8587 87.2461 22.992 86.6701 22.992C86.2221 22.992 85.8328 22.9173 85.5021 22.768C85.1715 22.6187 84.8995 22.4213 84.6861 22.176C84.4728 21.92 84.3181 21.632 84.2221 21.312C84.1261 20.9813 84.0835 20.6347 84.0941 20.272H90.2861C90.3075 19.7707 90.2595 19.2427 90.1421 18.688C90.0355 18.1333 89.8328 17.6213 89.5341 17.152C89.2461 16.6827 88.8568 16.2987 88.3661 16C87.8861 15.6907 87.2781 15.536 86.5421 15.536C85.9768 15.536 85.4541 15.6427 84.9741 15.856C84.5048 16.0693 84.0941 16.368 83.7421 16.752C83.4008 17.136 83.1341 17.5893 82.9421 18.112C82.7501 18.6347 82.6541 19.2107 82.6541 19.84C82.6755 20.4693 82.7661 21.0507 82.9261 21.584C83.0968 22.1173 83.3475 22.576 83.6781 22.96C84.0088 23.344 84.4141 23.6427 84.8941 23.856C85.3848 24.0693 85.9608 24.176 86.6221 24.176C87.5608 24.176 88.3395 23.9413 88.9581 23.472C89.5768 23.0027 89.9768 22.304 90.1581 21.376ZM104.405 16.016H105.925C105.84 15.408 105.658 14.8747 105.381 14.416C105.104 13.9467 104.757 13.5573 104.341 13.248C103.925 12.9387 103.45 12.704 102.917 12.544C102.384 12.384 101.818 12.304 101.221 12.304C100.346 12.304 99.5677 12.464 98.885 12.784C98.213 13.0933 97.6477 13.52 97.189 14.064C96.741 14.608 96.3997 15.248 96.165 15.984C95.9303 16.7093 95.813 17.488 95.813 18.32C95.813 19.152 95.9197 19.9307 96.133 20.656C96.357 21.3813 96.6877 22.0107 97.125 22.544C97.5623 23.0773 98.1117 23.4987 98.773 23.808C99.4343 24.1067 100.208 24.256 101.093 24.256C102.554 24.256 103.706 23.856 104.549 23.056C105.392 22.256 105.888 21.136 106.037 19.696H104.517C104.485 20.1653 104.389 20.6027 104.229 21.008C104.069 21.4133 103.845 21.7653 103.557 22.064C103.28 22.352 102.944 22.5813 102.549 22.752C102.165 22.912 101.722 22.992 101.221 22.992C100.538 22.992 99.9517 22.864 99.461 22.608C98.9703 22.352 98.565 22.0107 98.245 21.584C97.9357 21.1467 97.7063 20.64 97.557 20.064C97.4077 19.4773 97.333 18.8587 97.333 18.208C97.333 17.6107 97.4077 17.0347 97.557 16.48C97.7063 15.9253 97.9357 15.4347 98.245 15.008C98.565 14.5707 98.965 14.224 99.445 13.968C99.9357 13.712 100.522 13.584 101.205 13.584C102.005 13.584 102.693 13.7867 103.269 14.192C103.856 14.5973 104.234 15.2053 104.405 16.016ZM108.688 19.872C108.688 19.3707 108.752 18.928 108.88 18.544C109.019 18.1493 109.205 17.8187 109.44 17.552C109.675 17.2853 109.947 17.0827 110.256 16.944C110.576 16.8053 110.912 16.736 111.264 16.736C111.616 16.736 111.947 16.8053 112.256 16.944C112.576 17.0827 112.853 17.2853 113.088 17.552C113.323 17.8187 113.504 18.1493 113.632 18.544C113.771 18.928 113.84 19.3707 113.84 19.872C113.84 20.3733 113.771 20.8213 113.632 21.216C113.504 21.6 113.323 21.9253 113.088 22.192C112.853 22.448 112.576 22.6453 112.256 22.784C111.947 22.9227 111.616 22.992 111.264 22.992C110.912 22.992 110.576 22.9227 110.256 22.784C109.947 22.6453 109.675 22.448 109.44 22.192C109.205 21.9253 109.019 21.6 108.88 21.216C108.752 20.8213 108.688 20.3733 108.688 19.872ZM107.248 19.872C107.248 20.48 107.333 21.0453 107.504 21.568C107.675 22.0907 107.931 22.5493 108.272 22.944C108.613 23.328 109.035 23.632 109.536 23.856C110.037 24.0693 110.613 24.176 111.264 24.176C111.925 24.176 112.501 24.0693 112.992 23.856C113.493 23.632 113.915 23.328 114.256 22.944C114.597 22.5493 114.853 22.0907 115.024 21.568C115.195 21.0453 115.28 20.48 115.28 19.872C115.28 19.264 115.195 18.6987 115.024 18.176C114.853 17.6427 114.597 17.184 114.256 16.8C113.915 16.4053 113.493 16.096 112.992 15.872C112.501 15.648 111.925 15.536 111.264 15.536C110.613 15.536 110.037 15.648 109.536 15.872C109.035 16.096 108.613 16.4053 108.272 16.8C107.931 17.184 107.675 17.6427 107.504 18.176C107.333 18.6987 107.248 19.264 107.248 19.872ZM116.883 15.728V24H118.243V18.848C118.243 18.688 118.281 18.4907 118.355 18.256C118.441 18.0107 118.569 17.776 118.739 17.552C118.921 17.328 119.15 17.136 119.427 16.976C119.715 16.816 120.057 16.736 120.451 16.736C120.761 16.736 121.011 16.784 121.203 16.88C121.406 16.9653 121.566 17.0933 121.683 17.264C121.801 17.424 121.881 17.616 121.923 17.84C121.977 18.064 122.003 18.3093 122.003 18.576V24H123.363V18.848C123.363 18.208 123.555 17.696 123.939 17.312C124.323 16.928 124.851 16.736 125.523 16.736C125.854 16.736 126.121 16.784 126.323 16.88C126.537 16.976 126.702 17.1093 126.819 17.28C126.937 17.44 127.017 17.632 127.059 17.856C127.102 18.08 127.123 18.32 127.123 18.576V24H128.483V17.936C128.483 17.5093 128.414 17.1467 128.275 16.848C128.147 16.5387 127.961 16.288 127.715 16.096C127.481 15.904 127.193 15.7653 126.851 15.68C126.521 15.584 126.147 15.536 125.731 15.536C125.187 15.536 124.686 15.6587 124.227 15.904C123.779 16.1493 123.417 16.496 123.139 16.944C122.969 16.432 122.675 16.0693 122.259 15.856C121.843 15.6427 121.379 15.536 120.867 15.536C119.705 15.536 118.814 16.0053 118.195 16.944H118.163V15.728H116.883ZM130.572 15.728V27.152H131.932V22.896H131.964C132.113 23.1413 132.295 23.3493 132.508 23.52C132.732 23.68 132.967 23.808 133.212 23.904C133.457 24 133.703 24.0693 133.948 24.112C134.204 24.1547 134.433 24.176 134.636 24.176C135.265 24.176 135.815 24.064 136.284 23.84C136.764 23.616 137.159 23.312 137.468 22.928C137.788 22.5333 138.023 22.0747 138.172 21.552C138.332 21.0293 138.412 20.4747 138.412 19.888C138.412 19.3013 138.332 18.7467 138.172 18.224C138.012 17.7013 137.772 17.2427 137.452 16.848C137.143 16.4427 136.748 16.1227 136.268 15.888C135.799 15.6533 135.244 15.536 134.604 15.536C134.028 15.536 133.5 15.6427 133.02 15.856C132.54 16.0587 132.188 16.3893 131.964 16.848H131.932V15.728H130.572ZM136.972 19.792C136.972 20.1973 136.929 20.592 136.844 20.976C136.759 21.36 136.62 21.7013 136.428 22C136.236 22.2987 135.98 22.5387 135.66 22.72C135.351 22.9013 134.961 22.992 134.492 22.992C134.023 22.992 133.623 22.9067 133.292 22.736C132.961 22.5547 132.689 22.32 132.476 22.032C132.273 21.744 132.124 21.4133 132.028 21.04C131.932 20.656 131.884 20.2613 131.884 19.856C131.884 19.472 131.927 19.0933 132.012 18.72C132.108 18.3467 132.257 18.016 132.46 17.728C132.663 17.4293 132.924 17.1893 133.244 17.008C133.564 16.8267 133.953 16.736 134.412 16.736C134.849 16.736 135.228 16.8213 135.548 16.992C135.879 17.1627 136.145 17.392 136.348 17.68C136.561 17.968 136.716 18.2987 136.812 18.672C136.919 19.0347 136.972 19.408 136.972 19.792ZM146.856 24V15.728H145.496V20.4C145.496 20.7733 145.443 21.12 145.336 21.44C145.24 21.7493 145.091 22.0213 144.888 22.256C144.686 22.4907 144.43 22.672 144.12 22.8C143.822 22.928 143.464 22.992 143.048 22.992C142.526 22.992 142.115 22.8427 141.816 22.544C141.518 22.2453 141.368 21.84 141.368 21.328V15.728H140.008V21.168C140.008 21.616 140.051 22.0267 140.136 22.4C140.232 22.7627 140.392 23.0773 140.616 23.344C140.84 23.6107 141.134 23.8187 141.496 23.968C141.859 24.1067 142.312 24.176 142.856 24.176C143.464 24.176 143.992 24.0587 144.44 23.824C144.888 23.5787 145.256 23.2 145.544 22.688H145.576V24H146.856ZM150.787 15.728V13.248H149.427V15.728H148.019V16.928H149.427V22.192C149.427 22.576 149.464 22.8853 149.539 23.12C149.614 23.3547 149.726 23.536 149.875 23.664C150.035 23.792 150.238 23.8827 150.483 23.936C150.739 23.9787 151.043 24 151.395 24H152.435V22.8H151.811C151.598 22.8 151.422 22.7947 151.283 22.784C151.155 22.7627 151.054 22.7253 150.979 22.672C150.904 22.6187 150.851 22.544 150.819 22.448C150.798 22.352 150.787 22.224 150.787 22.064V16.928H152.435V15.728H150.787ZM159.69 19.072H154.938C154.959 18.752 155.029 18.4533 155.146 18.176C155.263 17.888 155.423 17.6373 155.626 17.424C155.829 17.2107 156.069 17.0453 156.346 16.928C156.634 16.8 156.954 16.736 157.306 16.736C157.647 16.736 157.957 16.8 158.234 16.928C158.522 17.0453 158.767 17.2107 158.97 17.424C159.183 17.6267 159.349 17.872 159.466 18.16C159.594 18.448 159.669 18.752 159.69 19.072ZM161.002 21.376H159.658C159.541 21.92 159.295 22.3253 158.922 22.592C158.559 22.8587 158.09 22.992 157.514 22.992C157.066 22.992 156.677 22.9173 156.346 22.768C156.015 22.6187 155.743 22.4213 155.53 22.176C155.317 21.92 155.162 21.632 155.066 21.312C154.97 20.9813 154.927 20.6347 154.938 20.272H161.13C161.151 19.7707 161.103 19.2427 160.986 18.688C160.879 18.1333 160.677 17.6213 160.378 17.152C160.09 16.6827 159.701 16.2987 159.21 16C158.73 15.6907 158.122 15.536 157.386 15.536C156.821 15.536 156.298 15.6427 155.818 15.856C155.349 16.0693 154.938 16.368 154.586 16.752C154.245 17.136 153.978 17.5893 153.786 18.112C153.594 18.6347 153.498 19.2107 153.498 19.84C153.519 20.4693 153.61 21.0507 153.77 21.584C153.941 22.1173 154.191 22.576 154.522 22.96C154.853 23.344 155.258 23.6427 155.738 23.856C156.229 24.0693 156.805 24.176 157.466 24.176C158.405 24.176 159.183 23.9413 159.802 23.472C160.421 23.0027 160.821 22.304 161.002 21.376ZM162.492 15.728V24H163.852V20.32C163.852 19.7867 163.905 19.3173 164.012 18.912C164.118 18.496 164.289 18.144 164.524 17.856C164.758 17.568 165.068 17.3493 165.452 17.2C165.836 17.0507 166.3 16.976 166.844 16.976V15.536C166.108 15.5147 165.5 15.664 165.02 15.984C164.54 16.304 164.134 16.8 163.804 17.472H163.772V15.728H162.492ZM174.513 19.28L176.449 13.952H176.481L178.385 19.28H174.513ZM175.649 12.576L171.201 24H172.753L174.033 20.56H178.865L180.113 24H181.793L177.329 12.576H175.649ZM189.544 24V15.728H188.184V20.4C188.184 20.7733 188.131 21.12 188.024 21.44C187.928 21.7493 187.779 22.0213 187.576 22.256C187.373 22.4907 187.117 22.672 186.808 22.8C186.509 22.928 186.152 22.992 185.736 22.992C185.213 22.992 184.803 22.8427 184.504 22.544C184.205 22.2453 184.056 21.84 184.056 21.328V15.728H182.696V21.168C182.696 21.616 182.739 22.0267 182.824 22.4C182.92 22.7627 183.08 23.0773 183.304 23.344C183.528 23.6107 183.821 23.8187 184.184 23.968C184.547 24.1067 185 24.176 185.544 24.176C186.152 24.176 186.68 24.0587 187.128 23.824C187.576 23.5787 187.944 23.2 188.232 22.688H188.264V24H189.544ZM192.579 19.936C192.579 19.5307 192.621 19.136 192.707 18.752C192.792 18.368 192.931 18.0267 193.123 17.728C193.315 17.4293 193.571 17.1893 193.891 17.008C194.211 16.8267 194.6 16.736 195.059 16.736C195.528 16.736 195.928 16.8267 196.259 17.008C196.589 17.1787 196.856 17.408 197.059 17.696C197.272 17.984 197.427 18.32 197.523 18.704C197.619 19.0773 197.667 19.4667 197.667 19.872C197.667 20.256 197.619 20.6347 197.523 21.008C197.437 21.3813 197.293 21.7173 197.091 22.016C196.888 22.304 196.627 22.5387 196.307 22.72C195.987 22.9013 195.597 22.992 195.139 22.992C194.701 22.992 194.317 22.9067 193.987 22.736C193.667 22.5653 193.4 22.336 193.187 22.048C192.984 21.76 192.829 21.4347 192.723 21.072C192.627 20.6987 192.579 20.32 192.579 19.936ZM198.979 24V12.576H197.619V16.832H197.587C197.437 16.5867 197.251 16.384 197.027 16.224C196.813 16.0533 196.584 15.92 196.339 15.824C196.093 15.7173 195.848 15.6427 195.603 15.6C195.357 15.5573 195.128 15.536 194.915 15.536C194.285 15.536 193.731 15.6533 193.251 15.888C192.781 16.112 192.387 16.4213 192.067 16.816C191.757 17.2 191.523 17.6533 191.363 18.176C191.213 18.6987 191.139 19.2533 191.139 19.84C191.139 20.4267 191.219 20.9813 191.379 21.504C191.539 22.0267 191.773 22.4853 192.083 22.88C192.403 23.2747 192.797 23.5893 193.267 23.824C193.747 24.0587 194.307 24.176 194.947 24.176C195.523 24.176 196.051 24.0747 196.531 23.872C197.011 23.6693 197.363 23.3387 197.587 22.88H197.619V24H198.979ZM202.511 14.24V12.576H201.151V14.24H202.511ZM201.151 15.728V24H202.511V15.728H201.151ZM205.61 19.872C205.61 19.3707 205.674 18.928 205.802 18.544C205.94 18.1493 206.127 17.8187 206.362 17.552C206.596 17.2853 206.868 17.0827 207.178 16.944C207.498 16.8053 207.834 16.736 208.186 16.736C208.538 16.736 208.868 16.8053 209.178 16.944C209.498 17.0827 209.775 17.2853 210.01 17.552C210.244 17.8187 210.426 18.1493 210.554 18.544C210.692 18.928 210.762 19.3707 210.762 19.872C210.762 20.3733 210.692 20.8213 210.554 21.216C210.426 21.6 210.244 21.9253 210.01 22.192C209.775 22.448 209.498 22.6453 209.178 22.784C208.868 22.9227 208.538 22.992 208.186 22.992C207.834 22.992 207.498 22.9227 207.178 22.784C206.868 22.6453 206.596 22.448 206.362 22.192C206.127 21.9253 205.94 21.6 205.802 21.216C205.674 20.8213 205.61 20.3733 205.61 19.872ZM204.17 19.872C204.17 20.48 204.255 21.0453 204.426 21.568C204.596 22.0907 204.852 22.5493 205.194 22.944C205.535 23.328 205.956 23.632 206.458 23.856C206.959 24.0693 207.535 24.176 208.186 24.176C208.847 24.176 209.423 24.0693 209.914 23.856C210.415 23.632 210.836 23.328 211.178 22.944C211.519 22.5493 211.775 22.0907 211.946 21.568C212.116 21.0453 212.202 20.48 212.202 19.872C212.202 19.264 212.116 18.6987 211.946 18.176C211.775 17.6427 211.519 17.184 211.178 16.8C210.836 16.4053 210.415 16.096 209.914 15.872C209.423 15.648 208.847 15.536 208.186 15.536C207.535 15.536 206.959 15.648 206.458 15.872C205.956 16.096 205.535 16.4053 205.194 16.8C204.852 17.184 204.596 17.6427 204.426 18.176C204.255 18.6987 204.17 19.264 204.17 19.872Z" fill="white"/>
</svg>
