<svg width="38" height="38" viewBox="0 0 38 38" fill="none" xmlns="http://www.w3.org/2000/svg">
<path fill-rule="evenodd" clip-rule="evenodd" d="M0 4C0 1.79086 1.79086 0 4 0H34C36.2091 0 38 1.79086 38 4V34C38 36.2091 36.2091 38 34 38H4C1.79086 38 0 36.2091 0 34V4Z" fill="#14A6E0"/>
<path fill-rule="evenodd" clip-rule="evenodd" d="M17.7689 23H19.7679C21.4249 23 22.7679 21.657 22.7679 20V12C22.7679 10.343 21.4249 9 19.7679 9H17.7689C16.1119 9 14.7689 10.343 14.7689 12V20C14.7689 21.657 16.1119 23 17.7689 23ZM24.1477 20.8937L25.1337 21.0947C25.4137 21.1517 25.6027 21.4357 25.5217 21.7097C24.8217 24.0647 22.7207 25.7507 20.2687 25.9587V26.9997H21.2687C21.5447 26.9997 21.7687 27.2237 21.7687 27.4997V28.4997C21.7687 28.7767 21.5447 28.9997 21.2687 28.9997H16.2687C15.9927 28.9997 15.7687 28.7767 15.7687 28.4997V27.4997C15.7687 27.2237 15.9927 26.9997 16.2687 26.9997H17.2687V25.9587C14.8207 25.7507 12.7217 24.0687 12.0197 21.7187C11.9377 21.4447 12.1257 21.1597 12.4067 21.1027L13.3927 20.9017C13.6497 20.8487 13.8887 21.0097 13.9707 21.2587C14.5057 22.8717 16.0347 23.9997 17.7687 23.9997H19.7687C21.5067 23.9997 23.0367 22.8687 23.5687 21.2527C23.6517 21.0037 23.8897 20.8417 24.1477 20.8937Z" fill="white"/>
</svg>
