<svg width="38" height="38" viewBox="0 0 38 38" fill="none" xmlns="http://www.w3.org/2000/svg">
<path fill-rule="evenodd" clip-rule="evenodd" d="M0 4C0 1.79086 1.79086 0 4 0H34C36.2091 0 38 1.79086 38 4V34C38 36.2091 36.2091 38 34 38H4C1.79086 38 0 36.2091 0 34V4Z" fill="#14A6E0"/>
<path fill-rule="evenodd" clip-rule="evenodd" d="M27 25C28.1 25 28.99 24.1 28.99 23L29 13C29 11.89 28.1 11 27 11H11C9.89 11 9 11.89 9 13V23C9 24.1 9.89 25 11 25H7V27H31V25H27ZM20 21.47V19.28C17.22 19.28 15.39 20.13 14 22C14.56 19.33 16.11 16.67 20 16.13V14L24 17.73L20 21.47Z" fill="white"/>
</svg>
