<svg width="38" height="38" viewBox="0 0 38 38" fill="none" xmlns="http://www.w3.org/2000/svg">
<path fill-rule="evenodd" clip-rule="evenodd" d="M0 4C0 1.79086 1.79086 0 4 0H34C36.2091 0 38 1.79086 38 4V34C38 36.2091 36.2091 38 34 38H4C1.79086 38 0 36.2091 0 34V4Z" fill="#14A6E0"/>
<path fill-rule="evenodd" clip-rule="evenodd" d="M13.2924 15.0014L17.1464 11.1474C17.4614 10.8334 18.0004 11.0554 18.0004 11.5014V27.0864C18.0004 27.5324 17.4614 27.7544 17.1464 27.4404L13.2934 23.5874C13.1064 23.4004 12.8514 23.2944 12.5864 23.2944H10.5004C10.2234 23.2944 10.0004 23.0714 10.0004 22.7944V15.7934C10.0004 15.5174 10.2234 15.2934 10.5004 15.2934H12.5854C12.8514 15.2934 13.1054 15.1884 13.2924 15.0014ZM23.5769 14.7145C23.7789 14.5125 24.1189 14.5125 24.3059 14.7295C25.4009 15.9985 25.9979 17.5995 25.9979 19.2925C25.9979 20.9855 25.4009 22.5865 24.3069 23.8565C24.1199 24.0735 23.7799 24.0735 23.5779 23.8715L22.8689 23.1625C22.6809 22.9745 22.6839 22.6825 22.8529 22.4775C23.5949 21.5835 23.9979 20.4685 23.9979 19.2925C23.9979 18.1175 23.5949 17.0015 22.8529 16.1075C22.6829 15.9035 22.6809 15.6115 22.8679 15.4235L23.5769 14.7145ZM22.2103 16.9082C22.0253 16.6602 21.6633 16.6282 21.4443 16.8462L20.7273 17.5632C20.5633 17.7272 20.5293 17.9852 20.6583 18.1772C20.8793 18.5042 20.9983 18.8892 20.9983 19.2932C20.9983 19.6962 20.8793 20.0822 20.6593 20.4092C20.5293 20.6002 20.5643 20.8582 20.7283 21.0212L21.4453 21.7392C21.6643 21.9582 22.0263 21.9262 22.2113 21.6782C22.7223 20.9912 22.9983 20.1642 22.9983 19.2932C22.9983 18.4222 22.7213 17.5942 22.2103 16.9082ZM25.702 12.5896C25.902 12.3896 26.238 12.3896 26.428 12.5996C28.089 14.4386 28.998 16.7956 28.998 19.2926C28.998 21.7886 28.09 24.1466 26.429 25.9856C26.239 26.1966 25.903 26.1966 25.703 25.9956L24.994 25.2876C24.805 25.0986 24.807 24.7996 24.985 24.6006C26.287 23.1356 26.998 21.2686 26.998 19.2926C26.998 17.3176 26.287 15.4506 24.984 13.9856C24.806 13.7866 24.804 13.4876 24.994 13.2976L25.702 12.5896Z" fill="white"/>
</svg>
